<svg xmlns="http://www.w3.org/2000/svg" xmlns:xlink="http://www.w3.org/1999/xlink" width="529" zoomAndPan="magnify" viewBox="0 0 396.75 396.749984" height="529" preserveAspectRatio="xMidYMid meet" version="1.0"><defs><clipPath id="id1"><path d="M 129 47.171875 L 270 47.171875 L 270 126 L 129 126 Z M 129 47.171875 " clip-rule="nonzero"/></clipPath><clipPath id="id2"><path d="M 35.773438 47.171875 L 357.523438 47.171875 L 357.523438 349.421875 L 35.773438 349.421875 Z M 35.773438 47.171875 " clip-rule="nonzero"/></clipPath><clipPath id="id3"><path d="M 98 125 L 336 125 L 336 349.421875 L 98 349.421875 Z M 98 125 " clip-rule="nonzero"/></clipPath></defs><g clip-path="url(#id1)"><path fill="#ad5831" d="M 269.875 125.125 L 269.875 47.25 L 247.84375 47.25 C 246.402344 74.632812 224.097656 96.433594 196.609375 96.949219 C 169.117188 96.433594 146.808594 74.632812 145.371094 47.25 L 129.289062 47.25 L 129.289062 125.125 L 269.875 125.125 " fill-opacity="1" fill-rule="nonzero"/></g><g clip-path="url(#id2)"><path fill="#f57e48" d="M 294.746094 47.253906 L 252.648438 47.253906 C 251.074219 77.007812 226.671875 100.695312 196.609375 101.253906 C 166.539062 100.695312 142.144531 77.007812 140.574219 47.253906 L 98.472656 47.253906 L 35.746094 83.023438 L 63.523438 154.542969 L 98.472656 135.671875 L 98.472656 349.339844 L 294.746094 349.339844 L 294.746094 135.671875 L 329.695312 154.542969 L 357.464844 83.023438 L 294.746094 47.253906 " fill-opacity="1" fill-rule="nonzero"/><path fill="#f57e48" d="M 294.746094 47.253906 L 252.648438 47.253906 C 251.074219 77.007812 226.671875 100.695312 196.609375 101.253906 C 166.539062 100.695312 142.144531 77.007812 140.574219 47.253906 L 98.472656 47.253906 L 35.746094 83.023438 L 63.523438 154.542969 L 98.472656 135.671875 L 98.472656 349.339844 L 294.746094 349.339844 L 294.746094 135.671875 L 329.695312 154.542969 L 357.464844 83.023438 L 294.746094 47.253906 " fill-opacity="1" fill-rule="nonzero"/></g><path fill="#96cdcf" d="M 98.472656 198.828125 L 294.746094 198.828125 L 294.746094 134.867188 L 98.472656 134.867188 Z M 98.472656 198.828125 " fill-opacity="1" fill-rule="nonzero"/><path fill="#ffffff" d="M 98.472656 147.824219 L 294.746094 147.824219 L 294.746094 143.621094 L 98.472656 143.621094 Z M 98.472656 147.824219 " fill-opacity="1" fill-rule="nonzero"/><path fill="#ffffff" d="M 98.472656 190.070312 L 294.746094 190.070312 L 294.746094 185.871094 L 98.472656 185.871094 Z M 98.472656 190.070312 " fill-opacity="1" fill-rule="nonzero"/><path fill="#bdbcbd" d="M 329.699219 154.53125 L 329.699219 154.53125 M 329.699219 154.53125 L 334.320312 142.628906 C 332.675781 146.867188 329.828125 154.191406 329.699219 154.53125 " fill-opacity="1" fill-rule="nonzero"/><g clip-path="url(#id3)"><path fill="#b65c34" d="M 294.746094 349.339844 L 98.472656 349.339844 C 114.445312 345.75 175.839844 338.730469 190.726562 332.179688 C 207.964844 324.589844 221.722656 315.652344 236.539062 303.742188 C 259.703125 285.121094 273.65625 253.742188 277.59375 224.796875 C 278.761719 216.207031 279.238281 207.523438 279.578125 198.828125 L 294.746094 198.828125 L 294.746094 349.339844 M 329.695312 154.542969 L 294.746094 135.671875 L 294.746094 134.867188 L 287.761719 134.867188 C 289.59375 129.890625 292.121094 125.914062 297.773438 125.914062 C 298.648438 125.914062 299.59375 126.011719 300.621094 126.210938 C 301.566406 126.390625 302.492188 126.621094 303.40625 126.878906 C 308.257812 128.253906 312.753906 130.585938 317.34375 132.632812 C 318.5 133.148438 332.847656 139.800781 335.15625 139.800781 C 335.328125 139.800781 335.433594 139.761719 335.460938 139.6875 C 335.402344 139.835938 334.949219 141.007812 334.320312 142.628906 L 329.699219 154.53125 C 329.695312 154.539062 329.695312 154.542969 329.695312 154.542969 " fill-opacity="1" fill-rule="nonzero"/></g><path fill="#6f9799" d="M 294.746094 198.828125 L 279.578125 198.828125 C 279.6875 195.910156 279.789062 192.988281 279.890625 190.070312 L 294.746094 190.070312 L 294.746094 198.828125 M 294.746094 185.871094 L 280.039062 185.871094 C 280.527344 173.070312 281.289062 160.304688 284.066406 147.824219 L 294.746094 147.824219 L 294.746094 185.871094 M 294.746094 143.621094 L 285.082031 143.621094 C 285.464844 142.164062 285.875 140.707031 286.324219 139.257812 C 286.785156 137.757812 287.246094 136.273438 287.761719 134.867188 L 294.746094 134.867188 L 294.746094 143.621094 " fill-opacity="1" fill-rule="nonzero"/><path fill="#bdbcbd" d="M 294.746094 147.824219 L 284.066406 147.824219 C 284.378906 146.417969 284.714844 145.019531 285.082031 143.621094 L 294.746094 143.621094 L 294.746094 147.824219 " fill-opacity="1" fill-rule="nonzero"/><path fill="#bdbcbd" d="M 294.746094 190.070312 L 279.890625 190.070312 C 279.9375 188.667969 279.988281 187.269531 280.039062 185.871094 L 294.746094 185.871094 L 294.746094 190.070312 " fill-opacity="1" fill-rule="nonzero"/><path fill="#b65c34" d="M 98.472656 344.296875 L 98.472656 198.828125 L 109.710938 198.828125 C 109.746094 199.105469 109.789062 199.382812 109.824219 199.664062 C 111.097656 209.027344 113.609375 218.132812 115.609375 227.351562 C 115.660156 229.800781 115.621094 232.242188 115.488281 234.695312 C 113.996094 242.207031 112.117188 249.652344 110.207031 257.085938 C 109.347656 259.175781 108.5 261.265625 107.695312 263.378906 C 104.097656 272.949219 102.925781 283.328125 102.085938 293.601562 C 100.8125 300.984375 99.570312 336.898438 98.472656 344.296875 M 63.523438 154.542969 L 57.683594 139.5 C 60.378906 138.292969 63.074219 137.089844 65.777344 135.894531 C 80.027344 130.210938 94.753906 124.789062 108.484375 117.765625 C 108.996094 118.4375 109.515625 119.097656 110.019531 119.761719 C 109.566406 124.796875 109.652344 129.828125 110.292969 134.867188 L 98.472656 134.867188 L 98.472656 135.671875 L 63.523438 154.542969 " fill-opacity="1" fill-rule="nonzero"/><path fill="#6f9799" d="M 109.710938 198.828125 L 98.472656 198.828125 L 98.472656 190.070312 L 108.457031 190.070312 C 108.863281 192.957031 109.300781 195.871094 109.710938 198.828125 M 107.902344 185.871094 L 98.472656 185.871094 L 98.472656 147.824219 L 109.542969 147.824219 C 108.789062 153.207031 108.0625 158.597656 107.40625 164.003906 C 106.496094 171.464844 107 178.632812 107.902344 185.871094 M 110.109375 143.621094 L 98.472656 143.621094 L 98.472656 134.867188 L 110.292969 134.867188 C 110.351562 135.316406 110.414062 135.765625 110.480469 136.214844 C 110.464844 138.6875 110.324219 141.152344 110.109375 143.621094 " fill-opacity="1" fill-rule="nonzero"/><path fill="#bdbcbd" d="M 109.542969 147.824219 L 98.472656 147.824219 L 98.472656 143.621094 L 110.109375 143.621094 C 110.089844 143.804688 110.074219 143.992188 110.058594 144.175781 C 109.882812 145.394531 109.714844 146.605469 109.542969 147.824219 " fill-opacity="1" fill-rule="nonzero"/><path fill="#bdbcbd" d="M 108.457031 190.070312 L 98.472656 190.070312 L 98.472656 185.871094 L 107.902344 185.871094 C 108.074219 187.265625 108.261719 188.664062 108.457031 190.070312 " fill-opacity="1" fill-rule="nonzero"/></svg>