<svg xmlns="http://www.w3.org/2000/svg" xmlns:xlink="http://www.w3.org/1999/xlink" width="529" zoomAndPan="magnify" viewBox="0 0 396.75 396.749984" height="529" preserveAspectRatio="xMidYMid meet" version="1.0"><defs><clipPath id="id1"><path d="M 42 47 L 363.648438 47 L 363.648438 350 L 42 350 Z M 42 47 " clip-rule="nonzero"/></clipPath><clipPath id="id2"><path d="M 191 45.933594 L 269 45.933594 L 269 98 L 191 98 Z M 191 45.933594 " clip-rule="nonzero"/></clipPath><clipPath id="id3"><path d="M 127 45.933594 L 146 45.933594 L 146 48 L 127 48 Z M 127 45.933594 " clip-rule="nonzero"/></clipPath><clipPath id="id4"><path d="M 33 45.933594 L 331 45.933594 L 331 351.183594 L 33 351.183594 Z M 33 45.933594 " clip-rule="nonzero"/></clipPath><clipPath id="id5"><path d="M 219 45.933594 L 294 45.933594 L 294 94 L 219 94 Z M 219 45.933594 " clip-rule="nonzero"/></clipPath><clipPath id="id6"><path d="M 293 45.933594 L 296 45.933594 L 296 48 L 293 48 Z M 293 45.933594 " clip-rule="nonzero"/></clipPath></defs><path fill="#ad5831" d="M 275.988281 125.246094 L 275.988281 47.214844 L 253.996094 47.214844 C 252.558594 74.652344 230.292969 96.496094 202.851562 97.015625 C 175.40625 96.496094 153.144531 74.652344 151.707031 47.214844 L 135.65625 47.214844 L 135.65625 125.246094 L 275.988281 125.246094 " fill-opacity="1" fill-rule="nonzero"/><g clip-path="url(#id1)"><path fill="#f57e48" d="M 300.8125 47.21875 L 258.789062 47.21875 C 257.214844 77.03125 232.863281 100.765625 202.851562 101.324219 C 172.835938 100.765625 148.484375 77.03125 146.914062 47.21875 L 104.890625 47.21875 L 42.277344 83.058594 L 70.003906 154.71875 L 104.890625 135.8125 L 104.890625 349.90625 L 300.8125 349.90625 L 300.8125 135.8125 L 335.699219 154.71875 L 363.417969 83.058594 L 300.8125 47.21875 " fill-opacity="1" fill-rule="nonzero"/><path fill="#f57e48" d="M 300.8125 47.21875 L 258.789062 47.21875 C 257.214844 77.03125 232.863281 100.765625 202.851562 101.324219 C 172.835938 100.765625 148.484375 77.03125 146.914062 47.21875 L 104.890625 47.21875 L 42.277344 83.058594 L 70.003906 154.71875 L 104.890625 135.8125 L 104.890625 349.90625 L 300.8125 349.90625 L 300.8125 135.8125 L 335.699219 154.71875 L 363.417969 83.058594 L 300.8125 47.21875 " fill-opacity="1" fill-rule="nonzero"/></g><path fill="#96cdcf" d="M 104.890625 199.09375 L 300.8125 199.09375 L 300.8125 135.003906 L 104.890625 135.003906 Z M 104.890625 199.09375 " fill-opacity="1" fill-rule="nonzero"/><path fill="#ffffff" d="M 206.820312 96.789062 C 228.984375 91.375 245.746094 72.050781 247.507812 48.496094 L 249.734375 48.496094 C 248.210938 68.375 236.304688 85.335938 219.445312 93.960938 C 215.441406 95.40625 211.207031 96.371094 206.820312 96.789062 " fill-opacity="1" fill-rule="nonzero"/><path fill="#ad5831" d="M 195.160156 100.042969 C 193.632812 100.011719 192.113281 99.921875 190.613281 99.769531 C 186.207031 98.71875 182 97.152344 178.054688 95.140625 C 183.40625 97.078125 189.148438 98.179688 195.136719 98.292969 L 195.1875 98.292969 C 199.1875 98.222656 203.082031 97.703125 206.820312 96.789062 C 211.207031 96.371094 215.441406 95.40625 219.445312 93.960938 C 212.132812 97.703125 203.894531 99.878906 195.160156 100.042969 " fill-opacity="1" fill-rule="nonzero"/><path fill="#f57e48" d="M 190.613281 99.769531 C 163.851562 97.089844 142.660156 75.480469 140.589844 48.496094 L 142.816406 48.496094 C 144.429688 70.078125 158.636719 88.109375 178.054688 95.140625 C 182 97.152344 186.207031 98.71875 190.613281 99.769531 " fill-opacity="1" fill-rule="nonzero"/><g clip-path="url(#id2)"><path fill="#231f20" d="M 202.851562 97.015625 C 198.914062 96.9375 195.082031 96.425781 191.402344 95.519531 C 192.644531 95.636719 193.898438 95.707031 195.160156 95.730469 C 221.910156 95.21875 243.625 73.90625 245.027344 47.144531 C 245.0625 46.46875 245.625 45.933594 246.304688 45.933594 L 268.296875 45.933594 C 268.339844 45.933594 268.378906 45.933594 268.421875 45.9375 L 251.101562 45.9375 C 250.421875 45.9375 249.859375 46.472656 249.820312 47.152344 C 249.796875 47.601562 249.769531 48.046875 249.734375 48.496094 L 247.507812 48.496094 C 245.746094 72.050781 228.984375 91.375 206.820312 96.789062 C 205.511719 96.910156 204.191406 96.988281 202.851562 97.015625 " fill-opacity="1" fill-rule="nonzero"/></g><path fill="#200d05" d="M 195.1875 98.292969 L 195.136719 98.292969 C 189.148438 98.179688 183.40625 97.078125 178.054688 95.140625 C 170.785156 91.433594 164.414062 86.21875 159.359375 79.898438 C 167.601562 88.582031 178.84375 94.351562 191.402344 95.519531 C 195.082031 96.425781 198.914062 96.9375 202.851562 97.015625 C 204.191406 96.988281 205.511719 96.910156 206.820312 96.789062 C 203.082031 97.703125 199.1875 98.222656 195.1875 98.292969 " fill-opacity="1" fill-rule="nonzero"/><g clip-path="url(#id3)"><path fill="#231f20" d="M 145.296875 47.214844 L 140.507812 47.214844 C 140.507812 47.191406 140.507812 47.171875 140.503906 47.152344 C 140.46875 46.472656 139.90625 45.9375 139.226562 45.9375 L 127.84375 45.9375 C 127.886719 45.933594 127.925781 45.933594 127.964844 45.933594 L 144.019531 45.933594 C 144.699219 45.933594 145.261719 46.46875 145.296875 47.144531 C 145.296875 47.167969 145.296875 47.191406 145.296875 47.214844 " fill-opacity="1" fill-rule="nonzero"/></g><path fill="#200d05" d="M 145.300781 47.21875 L 140.507812 47.21875 C 140.507812 47.21875 140.507812 47.214844 140.507812 47.214844 L 145.296875 47.214844 C 145.296875 47.214844 145.300781 47.21875 145.300781 47.21875 " fill-opacity="1" fill-rule="nonzero"/><path fill="#200d05" d="M 178.054688 95.140625 C 158.636719 88.109375 144.429688 70.078125 142.816406 48.496094 L 140.589844 48.496094 C 140.5625 48.070312 140.53125 47.648438 140.507812 47.21875 L 145.300781 47.21875 C 145.980469 59.878906 151.207031 71.3125 159.359375 79.898438 C 164.414062 86.21875 170.785156 91.433594 178.054688 95.140625 " fill-opacity="1" fill-rule="nonzero"/><path fill="#ffffff" d="M 104.890625 348.625 L 98.484375 348.625 L 98.484375 200.375 L 104.890625 200.375 L 104.890625 348.625 " fill-opacity="1" fill-rule="nonzero"/><path fill="#f57e48" d="M 291.84375 348.625 L 104.890625 348.625 L 104.890625 200.375 L 291.84375 200.375 L 291.84375 348.625 " fill-opacity="1" fill-rule="nonzero"/><path fill="#ffffff" d="M 327.339844 152.898438 L 300.8125 138.523438 L 300.8125 135.8125 L 328.207031 150.660156 L 327.339844 152.898438 M 62.984375 152.898438 L 36.183594 83.625 L 97.542969 48.5 L 102.648438 48.5 L 42.277344 83.058594 L 68.203125 150.066406 L 62.984375 152.898438 M 239.628906 80.730469 C 246.808594 71.773438 251.410156 60.660156 252.300781 48.5 L 253.914062 48.5 C 252.957031 60.96875 247.699219 72.210938 239.628906 80.730469 " fill-opacity="1" fill-rule="nonzero"/><path fill="#ad5831" d="M 207.609375 101.039062 C 220.441406 97.992188 231.636719 90.703125 239.628906 80.730469 C 247.699219 72.210938 252.957031 60.96875 253.914062 48.5 L 258.707031 48.5 C 256.632812 76.125 234.976562 98.257812 207.609375 101.039062 " fill-opacity="1" fill-rule="nonzero"/><path fill="#f57e48" d="M 328.207031 150.660156 L 300.8125 135.8125 L 300.8125 135.003906 L 294.402344 135.003906 C 294.402344 134.660156 294.269531 134.339844 294.027344 134.097656 C 293.785156 133.855469 293.464844 133.722656 293.125 133.722656 L 97.203125 133.722656 C 96.867188 133.722656 96.535156 133.859375 96.296875 134.097656 C 96.058594 134.335938 95.921875 134.667969 95.921875 135.003906 L 95.921875 135.046875 L 68.203125 150.066406 L 42.277344 83.058594 L 102.648438 48.5 L 138.023438 48.5 C 140.21875 78.414062 164.859375 102.042969 195.136719 102.605469 L 195.1875 102.605469 C 199.457031 102.527344 203.613281 101.988281 207.609375 101.039062 C 234.976562 98.257812 256.632812 76.125 258.707031 48.5 L 292.78125 48.5 L 354.140625 83.621094 L 328.207031 150.660156 " fill-opacity="1" fill-rule="nonzero"/><path fill="#96cdcf" d="M 300.8125 138.523438 L 294.402344 135.046875 L 294.402344 135.003906 L 300.8125 135.003906 L 300.8125 138.523438 " fill-opacity="1" fill-rule="nonzero"/><g clip-path="url(#id4)"><path fill="#231f20" d="M 293.125 351.191406 L 97.203125 351.191406 C 96.859375 351.191406 96.539062 351.054688 96.300781 350.8125 C 96.054688 350.570312 95.921875 350.25 95.921875 349.90625 L 95.921875 140.671875 L 95.921875 199.09375 C 95.921875 199.433594 96.054688 199.757812 96.300781 199.996094 C 96.539062 200.242188 96.859375 200.375 97.203125 200.375 L 98.484375 200.375 L 98.484375 348.625 L 104.890625 348.625 L 104.890625 349.90625 L 294.402344 349.90625 C 294.402344 350.25 294.269531 350.570312 294.027344 350.8125 C 293.785156 351.054688 293.464844 351.191406 293.125 351.191406 M 328.011719 156 C 327.800781 156 327.589844 155.949219 327.398438 155.847656 L 300.8125 141.4375 L 300.8125 138.523438 L 327.339844 152.898438 L 328.207031 150.660156 L 330.476562 151.886719 L 329.203125 155.183594 C 329.070312 155.527344 328.796875 155.796875 328.449219 155.921875 C 328.308594 155.976562 328.160156 156 328.011719 156 M 62.3125 156 C 62.164062 156 62.011719 155.976562 61.871094 155.921875 C 61.527344 155.796875 61.253906 155.527344 61.117188 155.183594 L 33.398438 83.523438 C 33.167969 82.925781 33.402344 82.257812 33.953125 81.945312 L 96.570312 46.105469 C 96.761719 45.996094 96.980469 45.9375 97.203125 45.9375 L 139.226562 45.9375 C 139.90625 45.9375 140.46875 46.472656 140.503906 47.152344 C 140.507812 47.171875 140.507812 47.191406 140.507812 47.214844 L 135.65625 47.214844 L 135.65625 47.21875 L 104.890625 47.21875 L 102.648438 48.5 L 97.542969 48.5 L 36.183594 83.625 L 62.984375 152.898438 L 68.203125 150.066406 L 69.136719 152.480469 L 62.921875 155.847656 C 62.734375 155.949219 62.523438 156 62.3125 156 " fill-opacity="1" fill-rule="nonzero"/></g><path fill="#200d05" d="M 140.507812 47.21875 L 135.65625 47.21875 L 135.65625 47.214844 L 140.507812 47.214844 C 140.507812 47.214844 140.507812 47.21875 140.507812 47.21875 " fill-opacity="1" fill-rule="nonzero"/><g clip-path="url(#id5)"><path fill="#231f20" d="M 219.445312 93.960938 C 236.6875 85.140625 248.742188 67.605469 249.820312 47.152344 C 249.859375 46.472656 250.421875 45.9375 251.101562 45.9375 L 293.125 45.9375 L 293.125 47.21875 L 275.988281 47.21875 L 275.988281 47.214844 L 253.996094 47.214844 C 253.972656 47.644531 253.945312 48.074219 253.914062 48.5 L 252.300781 48.5 C 251.410156 60.660156 246.808594 71.773438 239.628906 80.730469 C 234.070312 86.601562 227.179688 91.175781 219.445312 93.960938 " fill-opacity="1" fill-rule="nonzero"/></g><path fill="#200d05" d="M 202.851562 101.324219 C 198.644531 101.246094 194.550781 100.714844 190.613281 99.769531 C 192.113281 99.921875 193.632812 100.011719 195.160156 100.042969 C 203.894531 99.878906 212.132812 97.703125 219.445312 93.960938 C 227.179688 91.175781 234.070312 86.601562 239.628906 80.730469 C 231.636719 90.703125 220.441406 97.992188 207.609375 101.039062 C 206.042969 101.199219 204.453125 101.292969 202.851562 101.324219 M 258.707031 48.5 L 253.914062 48.5 C 253.945312 48.074219 253.972656 47.644531 253.996094 47.214844 L 275.988281 47.214844 L 275.988281 47.21875 L 258.789062 47.21875 C 258.765625 47.648438 258.742188 48.074219 258.707031 48.5 " fill-opacity="1" fill-rule="nonzero"/><g clip-path="url(#id6)"><path fill="#231f20" d="M 295.703125 47.21875 L 293.125 47.21875 L 293.125 45.9375 C 293.347656 45.9375 293.5625 45.996094 293.757812 46.105469 L 295.703125 47.21875 " fill-opacity="1" fill-rule="nonzero"/></g><path fill="#200d05" d="M 294.402344 349.90625 L 104.890625 349.90625 L 104.890625 348.625 L 291.84375 348.625 L 291.84375 200.375 L 293.125 200.375 C 293.464844 200.375 293.785156 200.242188 294.027344 199.996094 C 294.269531 199.757812 294.402344 199.433594 294.402344 199.09375 L 294.402344 349.90625 M 69.136719 152.480469 L 68.203125 150.066406 L 95.921875 135.046875 L 95.921875 140.671875 L 95.921875 137.964844 L 69.136719 152.480469 M 330.476562 151.886719 L 328.207031 150.660156 L 354.140625 83.621094 L 292.78125 48.5 L 258.707031 48.5 C 258.742188 48.074219 258.765625 47.648438 258.789062 47.21875 L 293.125 47.21875 L 292.488281 48.335938 L 293.125 47.21875 L 295.703125 47.21875 L 356.367188 81.945312 C 356.773438 82.175781 357.007812 82.605469 357.007812 83.054688 C 357.007812 83.210938 356.984375 83.367188 356.921875 83.523438 L 330.476562 151.886719 M 195.1875 102.605469 L 195.136719 102.605469 C 164.859375 102.042969 140.21875 78.414062 138.023438 48.5 L 102.648438 48.5 L 104.890625 47.21875 L 140.507812 47.21875 C 141.996094 74.796875 163.433594 97.050781 190.613281 99.769531 C 194.550781 100.714844 198.644531 101.246094 202.851562 101.324219 C 204.453125 101.292969 206.042969 101.199219 207.609375 101.039062 C 203.613281 101.988281 199.457031 102.527344 195.1875 102.605469 " fill-opacity="1" fill-rule="nonzero"/><path fill="#14161a" d="M 300.8125 141.4375 L 294.402344 137.964844 L 294.402344 135.046875 L 300.8125 138.523438 L 300.8125 141.4375 " fill-opacity="1" fill-rule="nonzero"/><path fill="#ffffff" d="M 104.890625 197.808594 L 98.484375 197.808594 L 98.484375 139.285156 L 104.019531 136.289062 L 104.890625 136.289062 L 104.890625 197.808594 " fill-opacity="1" fill-rule="nonzero"/><path fill="#f57e48" d="M 98.484375 139.285156 L 98.484375 136.289062 L 104.019531 136.289062 L 98.484375 139.285156 " fill-opacity="1" fill-rule="nonzero"/><path fill="#96cdcf" d="M 291.84375 197.808594 L 104.890625 197.808594 L 104.890625 136.289062 L 291.839844 136.289062 L 291.84375 197.808594 " fill-opacity="1" fill-rule="nonzero"/><path fill="#14161a" d="M 294.402344 199.09375 L 293.125 199.09375 L 293.125 197.808594 L 293.125 199.09375 L 104.890625 199.09375 L 104.890625 197.808594 L 291.84375 197.808594 L 291.839844 136.289062 L 104.890625 136.289062 L 104.890625 135.003906 L 294.402344 135.003906 L 294.402344 199.09375 " fill-opacity="1" fill-rule="nonzero"/><path fill="#231f20" d="M 104.890625 200.375 L 97.203125 200.375 C 96.859375 200.375 96.539062 200.242188 96.300781 199.996094 C 96.054688 199.757812 95.921875 199.433594 95.921875 199.09375 L 95.921875 140.671875 L 98.484375 139.285156 L 98.484375 197.808594 L 104.890625 197.808594 L 104.890625 200.375 M 104.890625 136.289062 L 104.019531 136.289062 L 104.890625 135.8125 L 104.890625 136.289062 " fill-opacity="1" fill-rule="nonzero"/><path fill="#200d05" d="M 293.125 200.375 L 104.890625 200.375 L 104.890625 197.808594 L 104.890625 199.09375 L 294.402344 199.09375 C 294.402344 199.433594 294.269531 199.757812 294.027344 199.996094 C 293.785156 200.242188 293.464844 200.375 293.125 200.375 M 95.921875 140.671875 L 95.921875 135.003906 C 95.921875 134.667969 96.058594 134.335938 96.296875 134.097656 C 96.535156 133.859375 96.867188 133.722656 97.203125 133.722656 L 293.125 133.722656 C 293.464844 133.722656 293.785156 133.855469 294.027344 134.097656 C 294.269531 134.339844 294.402344 134.660156 294.402344 135.003906 L 104.890625 135.003906 L 104.890625 136.289062 L 104.890625 135.8125 L 104.019531 136.289062 L 98.484375 136.289062 L 98.484375 139.285156 L 95.921875 140.671875 " fill-opacity="1" fill-rule="nonzero"/></svg>