<svg xmlns="http://www.w3.org/2000/svg" xmlns:xlink="http://www.w3.org/1999/xlink" width="529" zoomAndPan="magnify" viewBox="0 0 396.75 396.749984" height="529" preserveAspectRatio="xMidYMid meet" version="1.0"><defs><clipPath id="id1"><path d="M 95 46 L 302 46 L 302 359.183594 L 95 359.183594 Z M 95 46 " clip-rule="nonzero"/></clipPath><clipPath id="id2"><path d="M 46.976562 74 L 117 74 L 117 197 L 46.976562 197 Z M 46.976562 74 " clip-rule="nonzero"/></clipPath><clipPath id="id3"><path d="M 46.976562 148 L 106 148 L 106 197 L 46.976562 197 Z M 46.976562 148 " clip-rule="nonzero"/></clipPath><clipPath id="id4"><path d="M 280 74 L 349.976562 74 L 349.976562 197 L 280 197 Z M 280 74 " clip-rule="nonzero"/></clipPath><clipPath id="id5"><path d="M 290 148 L 349.976562 148 L 349.976562 197 L 290 197 Z M 290 148 " clip-rule="nonzero"/></clipPath><clipPath id="id6"><path d="M 207 39.683594 L 248 39.683594 L 248 103 L 207 103 Z M 207 39.683594 " clip-rule="nonzero"/></clipPath><clipPath id="id7"><path d="M 149 39.683594 L 198 39.683594 L 198 101 L 149 101 Z M 149 39.683594 " clip-rule="nonzero"/></clipPath><clipPath id="id8"><path d="M 154 39.683594 L 242 39.683594 L 242 53 L 154 53 Z M 154 39.683594 " clip-rule="nonzero"/></clipPath></defs><g clip-path="url(#id1)"><path fill="#9ea7db" d="M 160.46875 46.222656 L 95.917969 74.792969 L 116.628906 157.882812 L 111.3125 359.097656 L 284.105469 359.097656 L 280.324219 157.882812 L 301.039062 74.792969 L 236.488281 46.222656 Z M 160.46875 46.222656 " fill-opacity="1" fill-rule="evenodd"/></g><g clip-path="url(#id2)"><path fill="#8c95c9" d="M 95.917969 74.792969 L 87.503906 79.128906 C 78.539062 83.734375 46.976562 159.40625 46.976562 159.40625 L 101.152344 196.875 L 116.671875 158.570312 Z M 95.917969 74.792969 " fill-opacity="1" fill-rule="evenodd"/></g><g clip-path="url(#id3)"><path fill="#eaeaed" d="M 51.730469 148.230469 C 48.820312 154.988281 46.976562 159.40625 46.976562 159.40625 L 101.152344 196.875 L 105.984375 184.945312 Z M 51.730469 148.230469 " fill-opacity="1" fill-rule="evenodd"/></g><g clip-path="url(#id4)"><path fill="#8c95c9" d="M 301.039062 74.792969 L 309.453125 79.128906 C 318.414062 83.734375 349.976562 159.40625 349.976562 159.40625 L 295.804688 196.875 L 280.285156 158.570312 Z M 301.039062 74.792969 " fill-opacity="1" fill-rule="evenodd"/></g><g clip-path="url(#id5)"><path fill="#eaeaed" d="M 345.226562 148.230469 C 348.132812 154.988281 349.976562 159.40625 349.976562 159.40625 L 295.804688 196.875 L 290.972656 184.945312 Z M 345.226562 148.230469 " fill-opacity="1" fill-rule="evenodd"/></g><path fill="#d2d8f7" d="M 187.039062 68.503906 L 197.066406 68.503906 L 206.136719 120.398438 L 196.109375 120.398438 Z M 187.039062 68.503906 " fill-opacity="1" fill-rule="evenodd"/><path fill="#eaeaed" d="M 217.726562 70.671875 L 207.699219 70.671875 L 196.109375 120.398438 L 206.136719 120.398438 Z M 217.726562 70.671875 " fill-opacity="1" fill-rule="evenodd"/><g clip-path="url(#id6)"><path fill="#eaeaed" d="M 207.699219 70.671875 L 241.980469 39.769531 L 242.101562 39.769531 C 243.742188 43.542969 245.304688 47.339844 246.917969 51.121094 C 247.132812 51.769531 247.738281 52.480469 247.28125 53.140625 L 231.183594 102.773438 Z M 207.699219 70.671875 " fill-opacity="1" fill-rule="evenodd"/></g><g clip-path="url(#id7)"><path fill="#eaeaed" d="M 154.882812 39.769531 L 154.976562 39.769531 C 161.289062 44.242188 167.777344 48.441406 174.074219 52.925781 C 175.113281 53.519531 176.09375 54.191406 177.0625 54.878906 C 183.738281 59.417969 190.390625 63.96875 197.066406 68.503906 L 197.066406 71.199219 L 189.070312 80.769531 C 183.671875 87.21875 178.289062 93.671875 172.890625 100.121094 C 167.859375 89.875 162.730469 79.679688 157.777344 69.40625 C 157.75 69.324219 157.667969 69.164062 157.628906 69.082031 L 157.535156 68.867188 L 157.492188 68.773438 L 157.46875 68.734375 C 154.871094 63.820312 152.527344 58.757812 150.011719 53.789062 C 149.78125 53.25 149.285156 52.65625 149.675781 52.0625 C 151.410156 47.972656 153.105469 43.851562 154.882812 39.769531 Z M 154.882812 39.769531 " fill-opacity="1" fill-rule="evenodd"/></g><g clip-path="url(#id8)"><path fill="#d2d8f7" d="M 154.976562 39.769531 L 241.980469 39.769531 L 227.820312 52.671875 C 212.207031 52.65625 191.640625 52.683594 176.027344 52.65625 C 175.382812 52.695312 174.640625 52.507812 174.074219 52.925781 C 167.777344 48.441406 161.289062 44.242188 154.976562 39.769531 Z M 154.976562 39.769531 " fill-opacity="1" fill-rule="evenodd"/></g></svg>