<svg xmlns="http://www.w3.org/2000/svg" xmlns:xlink="http://www.w3.org/1999/xlink" width="529" zoomAndPan="magnify" viewBox="0 0 396.75 396.749984" height="529" preserveAspectRatio="xMidYMid meet" version="1.0"><defs><clipPath id="id1"><path d="M 95 45 L 302 45 L 302 358.296875 L 95 358.296875 Z M 95 45 " clip-rule="nonzero"/></clipPath><clipPath id="id2"><path d="M 46.976562 73 L 117 73 L 117 196 L 46.976562 196 Z M 46.976562 73 " clip-rule="nonzero"/></clipPath><clipPath id="id3"><path d="M 46.976562 147 L 106 147 L 106 196 L 46.976562 196 Z M 46.976562 147 " clip-rule="nonzero"/></clipPath><clipPath id="id4"><path d="M 280 73 L 349.976562 73 L 349.976562 196 L 280 196 Z M 280 73 " clip-rule="nonzero"/></clipPath><clipPath id="id5"><path d="M 290 147 L 349.976562 147 L 349.976562 196 L 290 196 Z M 290 147 " clip-rule="nonzero"/></clipPath><clipPath id="id6"><path d="M 207 38.796875 L 248 38.796875 L 248 102 L 207 102 Z M 207 38.796875 " clip-rule="nonzero"/></clipPath><clipPath id="id7"><path d="M 149 38.796875 L 198 38.796875 L 198 100 L 149 100 Z M 149 38.796875 " clip-rule="nonzero"/></clipPath><clipPath id="id8"><path d="M 154 38.796875 L 242 38.796875 L 242 53 L 154 53 Z M 154 38.796875 " clip-rule="nonzero"/></clipPath></defs><g clip-path="url(#id1)"><path fill="#ff5757" d="M 160.46875 45.332031 L 95.917969 73.90625 L 116.628906 156.996094 L 111.3125 358.210938 L 284.105469 358.210938 L 280.324219 156.996094 L 301.039062 73.90625 L 236.488281 45.332031 Z M 160.46875 45.332031 " fill-opacity="1" fill-rule="evenodd"/></g><g clip-path="url(#id2)"><path fill="#ff1616" d="M 95.917969 73.90625 L 87.503906 78.242188 C 78.539062 82.84375 46.976562 158.515625 46.976562 158.515625 L 101.152344 195.988281 L 116.671875 157.683594 Z M 95.917969 73.90625 " fill-opacity="1" fill-rule="evenodd"/></g><g clip-path="url(#id3)"><path fill="#eaeaed" d="M 51.730469 147.339844 C 48.820312 154.101562 46.976562 158.515625 46.976562 158.515625 L 101.152344 195.988281 L 105.984375 184.058594 Z M 51.730469 147.339844 " fill-opacity="1" fill-rule="evenodd"/></g><g clip-path="url(#id4)"><path fill="#ff1616" d="M 301.039062 73.90625 L 309.453125 78.242188 C 318.414062 82.84375 349.976562 158.515625 349.976562 158.515625 L 295.804688 195.988281 L 280.285156 157.683594 Z M 301.039062 73.90625 " fill-opacity="1" fill-rule="evenodd"/></g><g clip-path="url(#id5)"><path fill="#eaeaed" d="M 345.226562 147.339844 C 348.132812 154.101562 349.976562 158.515625 349.976562 158.515625 L 295.804688 195.988281 L 290.972656 184.058594 Z M 345.226562 147.339844 " fill-opacity="1" fill-rule="evenodd"/></g><path fill="#ff1616" d="M 187.039062 67.617188 L 197.066406 67.617188 L 206.136719 119.507812 L 196.109375 119.507812 Z M 187.039062 67.617188 " fill-opacity="1" fill-rule="evenodd"/><path fill="#eaeaed" d="M 217.726562 69.785156 L 207.699219 69.785156 L 196.109375 119.507812 L 206.136719 119.507812 Z M 217.726562 69.785156 " fill-opacity="1" fill-rule="evenodd"/><g clip-path="url(#id6)"><path fill="#eaeaed" d="M 207.699219 69.785156 L 241.980469 38.882812 L 242.101562 38.882812 C 243.742188 42.652344 245.304688 46.449219 246.917969 50.234375 C 247.132812 50.878906 247.738281 51.59375 247.28125 52.253906 L 231.183594 101.882812 Z M 207.699219 69.785156 " fill-opacity="1" fill-rule="evenodd"/></g><g clip-path="url(#id7)"><path fill="#eaeaed" d="M 154.882812 38.882812 L 154.976562 38.882812 C 161.289062 43.351562 167.777344 47.554688 174.074219 52.039062 C 175.113281 52.628906 176.09375 53.304688 177.0625 53.992188 C 183.738281 58.527344 190.390625 63.078125 197.066406 67.617188 L 197.066406 70.308594 L 189.070312 79.882812 C 183.671875 86.332031 178.289062 92.78125 172.890625 99.230469 C 167.859375 88.984375 162.730469 78.792969 157.777344 68.519531 C 157.75 68.4375 157.667969 68.277344 157.628906 68.195312 L 157.535156 67.980469 L 157.492188 67.886719 L 157.46875 67.84375 C 154.871094 62.929688 152.527344 57.867188 150.011719 52.898438 C 149.78125 52.359375 149.285156 51.769531 149.675781 51.175781 C 151.410156 47.082031 153.105469 42.964844 154.882812 38.882812 Z M 154.882812 38.882812 " fill-opacity="1" fill-rule="evenodd"/></g><g clip-path="url(#id8)"><path fill="#ff1616" d="M 154.976562 38.882812 L 241.980469 38.882812 L 227.820312 51.78125 C 212.207031 51.769531 191.640625 51.796875 176.027344 51.769531 C 175.382812 51.808594 174.640625 51.621094 174.074219 52.039062 C 167.777344 47.554688 161.289062 43.351562 154.976562 38.882812 Z M 154.976562 38.882812 " fill-opacity="1" fill-rule="evenodd"/></g></svg>