<svg xmlns="http://www.w3.org/2000/svg" xmlns:xlink="http://www.w3.org/1999/xlink" width="529" zoomAndPan="magnify" viewBox="0 0 396.75 396.749984" height="529" preserveAspectRatio="xMidYMid meet" version="1.0"><defs><clipPath id="id1"><path d="M 45 39.683594 L 352 39.683594 L 352 356.933594 L 45 356.933594 Z M 45 39.683594 " clip-rule="nonzero"/></clipPath></defs><path fill="#ff914d" d="M 111.625 119.519531 C 107.046875 140.484375 102.472656 161.449219 97.792969 182.859375 C 82.449219 177.148438 67.421875 171.550781 52.039062 165.832031 C 55.625 155.648438 59.070312 145.683594 62.625 135.753906 C 68.808594 118.476562 75.089844 101.238281 81.230469 83.945312 C 82.074219 81.578125 83.316406 80.015625 85.613281 78.820312 C 104.308594 69.074219 122.929688 59.183594 141.570312 49.351562 C 142.453125 48.878906 143.347656 48.457031 144.464844 47.90625 C 156.621094 68.882812 173.757812 83.453125 198.671875 83.519531 C 223.539062 83.585938 240.542969 69.023438 252.851562 47.875 C 257.523438 50.316406 262.171875 52.738281 266.808594 55.179688 C 281.96875 63.164062 297.144531 71.121094 312.246094 79.210938 C 313.589844 79.929688 315.007812 81.300781 315.515625 82.683594 C 325.195312 109.472656 334.753906 136.304688 344.332031 163.125 C 344.59375 163.867188 344.785156 164.636719 345.152344 165.882812 C 330.125 171.488281 315.082031 177.089844 299.539062 182.882812 C 294.875 161.527344 290.253906 140.367188 285.632812 119.195312 C 285.4375 119.210938 285.238281 119.226562 285.039062 119.238281 C 285.039062 196.425781 285.039062 273.617188 285.039062 351.015625 C 227.320312 351.015625 170.019531 351.015625 112.445312 351.015625 C 112.445312 273.734375 112.445312 196.660156 112.445312 119.585938 C 112.175781 119.5625 111.902344 119.539062 111.625 119.519531 " fill-opacity="1" fill-rule="nonzero"/><g clip-path="url(#id1)"><path fill="#231f20" d="M 299.539062 182.882812 C 294.875 161.527344 290.253906 140.367188 285.632812 119.195312 C 285.628906 119.195312 285.621094 119.203125 285.621094 119.203125 L 285.214844 118.089844 L 285.046875 119.238281 C 285.046875 119.238281 285.046875 119.238281 285.039062 119.238281 C 285.039062 196.425781 285.039062 273.617188 285.039062 351.015625 C 227.320312 351.015625 170.019531 351.015625 112.445312 351.015625 C 112.445312 273.734375 112.445312 196.660156 112.445312 119.585938 L 112.074219 118.234375 L 111.625 119.519531 C 107.046875 140.484375 102.472656 161.449219 97.792969 182.859375 C 82.449219 177.148438 67.421875 171.550781 52.039062 165.832031 C 55.625 155.648438 59.070312 145.683594 62.625 135.753906 C 68.808594 118.476562 75.089844 101.238281 81.230469 83.945312 C 82.074219 81.578125 83.316406 80.015625 85.613281 78.820312 C 104.308594 69.074219 122.929688 59.183594 141.570312 49.351562 C 142.453125 48.878906 143.347656 48.457031 144.464844 47.90625 C 156.621094 68.882812 173.757812 83.453125 198.671875 83.519531 C 223.539062 83.585938 240.542969 69.023438 252.851562 47.875 C 257.523438 50.316406 262.171875 52.738281 266.808594 55.179688 C 281.96875 63.164062 297.144531 71.121094 312.246094 79.210938 C 313.589844 79.929688 315.007812 81.300781 315.515625 82.683594 C 325.195312 109.472656 334.753906 136.304688 344.332031 163.125 C 344.59375 163.867188 344.785156 164.636719 345.152344 165.882812 C 330.125 171.488281 315.082031 177.089844 299.539062 182.882812 Z M 350.976562 164.5 C 350.875 164.175781 350.742188 163.859375 350.625 163.542969 C 340.597656 135.335938 330.601562 107.117188 320.472656 78.945312 C 319.9375 77.457031 318.527344 75.925781 317.109375 75.160156 C 301.726562 66.890625 286.265625 58.757812 270.8125 50.605469 C 263.964844 46.988281 257.097656 43.394531 250.105469 39.722656 C 249.597656 40.691406 249.210938 41.355469 248.894531 42.054688 C 243.574219 53.75 235.636719 63.238281 224.667969 70.007812 C 215.839844 75.453125 206.179688 78.695312 195.734375 77.691406 C 178.28125 76.011719 164.769531 67.269531 154.75 53.113281 C 151.855469 49.027344 149.613281 44.472656 146.96875 39.957031 C 146.097656 40.382812 145.089844 40.835938 144.113281 41.351562 C 122.886719 52.546875 101.628906 63.714844 80.457031 75.035156 C 78.886719 75.878906 77.367188 77.648438 76.742188 79.328125 C 71.285156 93.984375 66.003906 108.703125 60.75 123.433594 C 55.925781 137.007812 51.179688 150.609375 46.457031 164.21875 C 44.6875 169.300781 44.804688 169.425781 49.695312 171.257812 C 60.875 175.429688 72.070312 179.597656 83.265625 183.761719 C 89.457031 186.070312 95.65625 188.367188 102.066406 190.75 C 103.367188 185.058594 104.574219 179.765625 105.777344 174.472656 C 106.058594 174.507812 106.328125 174.542969 106.609375 174.582031 C 106.609375 235.371094 106.609375 296.160156 106.609375 356.898438 C 168.21875 356.898438 229.457031 356.898438 290.972656 356.898438 C 290.972656 295.953125 290.972656 235.289062 290.972656 174.625 C 291.171875 174.59375 291.378906 174.566406 291.578125 174.535156 C 292.78125 179.851562 293.992188 185.167969 295.25 190.707031 C 296.328125 190.339844 297.167969 190.066406 297.988281 189.761719 C 314.566406 183.585938 331.136719 177.410156 347.71875 171.230469 C 352.558594 169.425781 352.558594 169.417969 350.976562 164.5 " fill-opacity="1" fill-rule="nonzero"/></g></svg>