<svg xmlns="http://www.w3.org/2000/svg" xmlns:xlink="http://www.w3.org/1999/xlink" width="529" zoomAndPan="magnify" viewBox="0 0 396.75 396.749984" height="529" preserveAspectRatio="xMidYMid meet" version="1.0"><defs><g/><clipPath id="id1"><path d="M 44.566406 51.769531 L 352.066406 51.769531 L 352.066406 342 L 44.566406 342 Z M 44.566406 51.769531 " clip-rule="nonzero"/></clipPath></defs><path fill="#545454" d="M 296.160156 64.707031 C 286.539062 92.011719 284.488281 121.074219 282.761719 143.699219 C 282.632812 146.097656 282.515625 148.527344 282.402344 150.976562 C 287.835938 158.5 297.265625 170.625 297.457031 170.363281 C 329.792969 158.632812 346.574219 138.652344 346.574219 138.652344 C 337.886719 118.445312 323.453125 95.691406 307.148438 76.207031 C 300.792969 68.597656 298.214844 65.445312 296.160156 64.707031 " fill-opacity="1" fill-rule="nonzero"/><path fill="#545454" d="M 100.488281 64.703125 C 98.4375 65.445312 95.855469 68.597656 89.503906 76.203125 C 73.195312 95.691406 58.761719 118.445312 50.074219 138.652344 C 50.074219 138.652344 66.859375 158.628906 99.191406 170.363281 C 99.390625 170.625 108.8125 158.5 114.25 150.972656 C 114.132812 148.527344 114.019531 146.09375 113.886719 143.695312 C 112.164062 121.074219 110.109375 92.007812 100.488281 64.703125 " fill-opacity="1" fill-rule="nonzero"/><path fill="#545454" d="M 295.195312 64.507812 C 284.175781 64.390625 254.535156 59.316406 243.515625 53.105469 C 243.46875 53.269531 243.417969 53.433594 243.371094 53.597656 C 243.222656 54.109375 243.058594 54.648438 242.863281 55.257812 C 224.914062 98.039062 171.742188 98.054688 153.792969 55.257812 C 153.527344 54.453125 153.316406 53.761719 153.136719 53.105469 C 142.117188 59.316406 112.476562 64.390625 101.457031 64.507812 C 101.375 64.507812 101.292969 64.523438 101.210938 64.523438 C 113.019531 91.484375 116.007812 120.941406 118.339844 143.398438 C 124.726562 224.019531 115.136719 303.273438 106.433594 331.285156 L 106.84375 331.417969 C 161.65625 341.734375 236.375 341.472656 289.808594 331.417969 L 290.21875 331.285156 C 281.515625 303.273438 271.925781 224.019531 278.3125 143.398438 C 280.644531 120.941406 283.648438 91.484375 295.441406 64.523438 C 295.359375 64.523438 295.277344 64.507812 295.195312 64.507812 " fill-opacity="1" fill-rule="nonzero"/><path fill="#dedddb" d="M 241.613281 54.683594 C 241.957031 54.109375 242.269531 53.582031 242.515625 53.105469 L 242.53125 53.105469 C 242.546875 53.074219 242.5625 53.039062 242.582031 53.007812 C 242.546875 53.023438 242.5 53.054688 242.464844 53.074219 C 218.246094 70.207031 181.476562 70.667969 156.566406 54.683594 C 155.761719 54.160156 154.957031 53.632812 154.183594 53.074219 C 154.152344 53.054688 154.101562 53.023438 154.070312 53.007812 C 154.351562 53.515625 154.679688 54.074219 155.039062 54.683594 C 178.195312 93.882812 219.542969 92.078125 241.613281 54.683594 " fill-opacity="1" fill-rule="nonzero"/><g clip-path="url(#id1)"><path fill="#1e1b1b" d="M 297.460938 170.363281 C 297.265625 170.625 287.835938 158.5 282.402344 150.976562 C 282.515625 148.527344 282.632812 146.097656 282.761719 143.695312 C 284.484375 121.074219 286.539062 92.011719 296.164062 64.707031 C 298.214844 65.445312 300.792969 68.597656 307.148438 76.207031 C 323.453125 95.691406 337.886719 118.445312 346.578125 138.652344 C 346.578125 138.652344 329.792969 158.632812 297.460938 170.363281 Z M 278.3125 143.402344 C 271.925781 224.019531 281.511719 303.273438 290.21875 331.285156 L 289.808594 331.417969 C 236.375 341.472656 161.65625 341.734375 106.84375 331.417969 L 106.433594 331.285156 C 115.136719 303.273438 124.726562 224.019531 118.339844 143.402344 C 116.003906 120.941406 113.015625 91.484375 101.210938 64.523438 C 101.292969 64.523438 101.375 64.511719 101.457031 64.511719 C 112.476562 64.394531 142.117188 59.316406 153.132812 53.105469 C 153.316406 53.765625 153.527344 54.453125 153.789062 55.257812 C 171.738281 98.058594 224.914062 98.039062 242.859375 55.257812 C 243.054688 54.652344 243.222656 54.109375 243.371094 53.597656 C 243.417969 53.433594 243.464844 53.273438 243.515625 53.105469 C 254.535156 59.316406 284.175781 64.394531 295.191406 64.511719 C 295.277344 64.511719 295.355469 64.523438 295.441406 64.523438 C 283.648438 91.484375 280.644531 120.941406 278.3125 143.402344 Z M 99.191406 170.363281 C 66.859375 158.632812 50.074219 138.652344 50.074219 138.652344 C 58.761719 118.445312 73.195312 95.691406 89.503906 76.207031 C 95.855469 68.597656 98.433594 65.445312 100.488281 64.707031 C 110.109375 92.011719 112.164062 121.074219 113.886719 143.695312 C 114.019531 146.097656 114.132812 148.527344 114.25 150.976562 C 108.8125 158.5 99.386719 170.625 99.191406 170.363281 Z M 154.183594 53.074219 C 154.957031 53.632812 155.761719 54.160156 156.566406 54.683594 C 181.476562 70.667969 218.246094 70.210938 242.464844 53.074219 C 242.496094 53.058594 242.546875 53.023438 242.582031 53.007812 C 242.5625 53.042969 242.546875 53.074219 242.53125 53.105469 L 242.515625 53.105469 C 242.269531 53.585938 241.957031 54.109375 241.613281 54.683594 C 219.542969 92.078125 178.191406 93.882812 155.039062 54.683594 C 154.679688 54.074219 154.347656 53.519531 154.070312 53.007812 C 154.101562 53.023438 154.152344 53.058594 154.183594 53.074219 Z M 296.144531 62.914062 C 279.625 59.859375 253.367188 54.207031 243.777344 51.941406 C 243.601562 51.902344 243.414062 51.875 243.253906 51.792969 C 243.238281 51.792969 243.222656 51.808594 243.203125 51.808594 L 243.1875 51.808594 C 243.171875 51.808594 243.171875 51.824219 243.171875 51.824219 C 242.542969 52.179688 242.054688 52.382812 242.054688 52.382812 C 214.695312 65.609375 184.828125 66.101562 157.089844 53.550781 C 156.253906 53.171875 155.433594 52.777344 154.59375 52.382812 C 154.59375 52.382812 154.257812 52.257812 153.480469 51.824219 C 153.480469 51.824219 153.480469 51.808594 153.460938 51.808594 L 153.445312 51.808594 C 153.429688 51.808594 153.414062 51.792969 153.398438 51.792969 C 153.226562 51.878906 153.058594 51.898438 152.871094 51.941406 C 143.28125 54.207031 117.023438 59.859375 100.503906 62.914062 C 95.28125 64.445312 91.898438 70.0625 87.679688 74.597656 C 60.125 103.9375 44.574219 139.671875 44.574219 139.671875 C 54.574219 153.210938 80.109375 168.144531 99.796875 173.566406 C 99.832031 173.582031 99.878906 173.617188 99.914062 173.632812 C 100.765625 172.480469 109.421875 161.785156 114.414062 154.902344 C 116.957031 218.433594 112.835938 298.507812 105.710938 331.136719 C 105.59375 331.664062 105.480469 332.1875 105.363281 332.699219 C 105.496094 332.746094 105.824219 332.796875 105.957031 332.847656 C 106.121094 332.894531 106.269531 332.929688 106.351562 332.945312 C 106.433594 332.960938 106.5 332.976562 106.582031 332.996094 C 155.003906 345.003906 241.644531 345.003906 290.070312 332.996094 C 290.152344 332.976562 290.21875 332.960938 290.300781 332.945312 C 290.382812 332.929688 290.53125 332.894531 290.695312 332.847656 C 290.824219 332.796875 291.152344 332.746094 291.285156 332.699219 C 291.171875 332.1875 291.054688 331.664062 290.941406 331.136719 C 283.816406 298.507812 279.691406 218.433594 282.238281 154.902344 C 287.230469 161.785156 295.882812 172.480469 296.738281 173.632812 C 296.769531 173.617188 296.820312 173.582031 296.851562 173.566406 C 316.539062 168.144531 342.078125 153.210938 352.078125 139.671875 C 352.078125 139.671875 336.527344 103.9375 308.96875 74.597656 C 304.753906 70.0625 301.371094 64.445312 296.144531 62.914062 " fill-opacity="1" fill-rule="nonzero"/></g><g fill="#ffffff" fill-opacity="1"><g transform="translate(221.159194, 122.692661)"><g><path d="M 1.140625 0 L 1.140625 -10.609375 L 4.015625 -10.609375 L 4.015625 -2.3125 L 8.09375 -2.3125 L 8.09375 0 Z M 1.140625 0 "/></g></g></g><g fill="#ffffff" fill-opacity="1"><g transform="translate(229.807813, 122.692661)"><g><path d="M 6.34375 0 L 5.796875 -1.09375 L 5.734375 -1.09375 C 5.359375 -0.613281 4.96875 -0.285156 4.5625 -0.109375 C 4.164062 0.0546875 3.65625 0.140625 3.03125 0.140625 C 2.257812 0.140625 1.648438 -0.0859375 1.203125 -0.546875 C 0.753906 -1.015625 0.53125 -1.671875 0.53125 -2.515625 C 0.53125 -3.390625 0.832031 -4.039062 1.4375 -4.46875 C 2.050781 -4.894531 2.9375 -5.132812 4.09375 -5.1875 L 5.46875 -5.234375 L 5.46875 -5.34375 C 5.46875 -6.019531 5.132812 -6.359375 4.46875 -6.359375 C 3.863281 -6.359375 3.101562 -6.15625 2.1875 -5.75 L 1.359375 -7.625 C 2.316406 -8.113281 3.523438 -8.359375 4.984375 -8.359375 C 6.046875 -8.359375 6.863281 -8.097656 7.4375 -7.578125 C 8.019531 -7.054688 8.3125 -6.328125 8.3125 -5.390625 L 8.3125 0 Z M 4.234375 -1.859375 C 4.578125 -1.859375 4.867188 -1.96875 5.109375 -2.1875 C 5.359375 -2.40625 5.484375 -2.6875 5.484375 -3.03125 L 5.484375 -3.671875 L 4.828125 -3.640625 C 3.898438 -3.609375 3.4375 -3.265625 3.4375 -2.609375 C 3.4375 -2.109375 3.703125 -1.859375 4.234375 -1.859375 Z M 4.234375 -1.859375 "/></g></g></g><g fill="#ffffff" fill-opacity="1"><g transform="translate(239.0659, 122.692661)"><g><path d="M 6 -8.359375 C 6.894531 -8.359375 7.601562 -7.984375 8.125 -7.234375 C 8.65625 -6.484375 8.921875 -5.445312 8.921875 -4.125 C 8.921875 -2.789062 8.65625 -1.742188 8.125 -0.984375 C 7.59375 -0.234375 6.851562 0.140625 5.90625 0.140625 C 5.601562 0.140625 5.332031 0.109375 5.09375 0.046875 C 4.863281 -0.015625 4.65625 -0.101562 4.46875 -0.21875 C 4.28125 -0.34375 4.0625 -0.539062 3.8125 -0.8125 L 3.640625 -0.8125 L 3.1875 0 L 0.984375 0 L 0.984375 -11.296875 L 3.8125 -11.296875 L 3.8125 -8.734375 C 3.8125 -8.429688 3.78125 -7.90625 3.71875 -7.15625 L 3.8125 -7.15625 C 4.09375 -7.582031 4.410156 -7.890625 4.765625 -8.078125 C 5.128906 -8.265625 5.539062 -8.359375 6 -8.359375 Z M 4.96875 -6.140625 C 4.570312 -6.140625 4.28125 -6 4.09375 -5.71875 C 3.90625 -5.445312 3.8125 -5.015625 3.8125 -4.421875 L 3.8125 -4.03125 C 3.8125 -3.351562 3.90625 -2.867188 4.09375 -2.578125 C 4.28125 -2.285156 4.578125 -2.140625 4.984375 -2.140625 C 5.328125 -2.140625 5.585938 -2.304688 5.765625 -2.640625 C 5.941406 -2.984375 6.03125 -3.488281 6.03125 -4.15625 C 6.03125 -5.476562 5.675781 -6.140625 4.96875 -6.140625 Z M 4.96875 -6.140625 "/></g></g></g><g fill="#ffffff" fill-opacity="1"><g transform="translate(248.621464, 122.692661)"><g><path d="M 8.828125 -4.125 C 8.828125 -2.78125 8.460938 -1.734375 7.734375 -0.984375 C 7.015625 -0.234375 6.003906 0.140625 4.703125 0.140625 C 3.460938 0.140625 2.472656 -0.238281 1.734375 -1 C 0.992188 -1.769531 0.625 -2.8125 0.625 -4.125 C 0.625 -5.46875 0.984375 -6.507812 1.703125 -7.25 C 2.429688 -7.988281 3.445312 -8.359375 4.75 -8.359375 C 5.5625 -8.359375 6.273438 -8.1875 6.890625 -7.84375 C 7.515625 -7.5 7.992188 -7.003906 8.328125 -6.359375 C 8.660156 -5.722656 8.828125 -4.976562 8.828125 -4.125 Z M 3.5 -4.125 C 3.5 -3.414062 3.59375 -2.875 3.78125 -2.5 C 3.976562 -2.132812 4.296875 -1.953125 4.734375 -1.953125 C 5.171875 -1.953125 5.476562 -2.132812 5.65625 -2.5 C 5.84375 -2.875 5.9375 -3.414062 5.9375 -4.125 C 5.9375 -4.832031 5.84375 -5.363281 5.65625 -5.71875 C 5.476562 -6.070312 5.164062 -6.25 4.71875 -6.25 C 4.289062 -6.25 3.976562 -6.070312 3.78125 -5.71875 C 3.59375 -5.363281 3.5 -4.832031 3.5 -4.125 Z M 3.5 -4.125 "/></g></g></g><g fill="#ffffff" fill-opacity="1"><g transform="translate(258.089961, 122.692661)"><g><path d="M 6.828125 0 L 6.484375 -1.015625 L 6.3125 -1.015625 C 6.070312 -0.640625 5.738281 -0.351562 5.3125 -0.15625 C 4.894531 0.0390625 4.398438 0.140625 3.828125 0.140625 C 2.921875 0.140625 2.21875 -0.117188 1.71875 -0.640625 C 1.21875 -1.160156 0.96875 -1.898438 0.96875 -2.859375 L 0.96875 -8.21875 L 3.796875 -8.21875 L 3.796875 -3.734375 C 3.796875 -3.191406 3.875 -2.78125 4.03125 -2.5 C 4.1875 -2.226562 4.4375 -2.09375 4.78125 -2.09375 C 5.269531 -2.09375 5.617188 -2.285156 5.828125 -2.671875 C 6.035156 -3.054688 6.140625 -3.707031 6.140625 -4.625 L 6.140625 -8.21875 L 8.96875 -8.21875 L 8.96875 0 Z M 6.828125 0 "/></g></g></g><g fill="#ffffff" fill-opacity="1"><g transform="translate(268.044581, 122.692661)"><g><path d="M 5.9375 -8.359375 C 6.1875 -8.359375 6.421875 -8.34375 6.640625 -8.3125 L 6.8125 -8.28125 L 6.546875 -5.59375 C 6.316406 -5.65625 6 -5.6875 5.59375 -5.6875 C 4.96875 -5.6875 4.515625 -5.546875 4.234375 -5.265625 C 3.953125 -4.984375 3.8125 -4.578125 3.8125 -4.046875 L 3.8125 0 L 0.984375 0 L 0.984375 -8.21875 L 3.09375 -8.21875 L 3.53125 -6.90625 L 3.671875 -6.90625 C 3.910156 -7.34375 4.238281 -7.691406 4.65625 -7.953125 C 5.082031 -8.222656 5.507812 -8.359375 5.9375 -8.359375 Z M 5.9375 -8.359375 "/></g></g></g></svg>