<svg xmlns="http://www.w3.org/2000/svg" xmlns:xlink="http://www.w3.org/1999/xlink" width="800" zoomAndPan="magnify" viewBox="0 0 600 149.999998" height="200" preserveAspectRatio="xMidYMid meet" version="1.0"><defs><g/></defs><rect x="-60" width="720" fill="#ffffff" y="-15" height="179.999997" fill-opacity="1"/><rect x="-60" width="720" fill="#ffffff" y="-15" height="179.999997" fill-opacity="1"/><rect x="-60" width="720" fill="#ffffff" y="-15" height="179.999997" fill-opacity="1"/><rect x="-60" width="720" fill="#ffffff" y="-15" height="179.999997" fill-opacity="1"/><g fill="#000000" fill-opacity="1"><g transform="translate(33.9638, 117.095395)"><g><path d="M 66.738281 0 C 68.140625 0 68.523438 -0.511719 68.523438 -1.785156 L 68.523438 -5.613281 C 68.523438 -6.890625 68.140625 -7.273438 66.738281 -7.273438 L 21.4375 -7.273438 L 21.4375 -87.539062 C 21.4375 -88.941406 21.054688 -89.324219 19.652344 -89.324219 L 14.929688 -89.324219 C 13.527344 -89.324219 13.144531 -88.941406 13.144531 -87.539062 L 13.144531 -1.785156 C 13.144531 -0.382812 13.527344 0 14.929688 0 Z M 66.738281 0 "/></g></g></g><g fill="#000000" fill-opacity="1"><g transform="translate(107.333593, 117.095395)"><g><path d="M 9.441406 0 C 10.589844 0 11.101562 -0.382812 11.738281 -1.785156 L 22.203125 -24.882812 L 68.140625 -24.882812 L 78.605469 -1.785156 C 79.371094 -0.382812 79.753906 0 80.902344 0 L 86.773438 0 C 87.921875 0 88.429688 -0.765625 87.921875 -1.785156 L 46.703125 -90.089844 C 46.320312 -90.984375 45.9375 -91.621094 45.429688 -91.621094 L 45.046875 -91.621094 C 44.40625 -91.621094 44.023438 -90.984375 43.640625 -90.089844 L 2.425781 -1.785156 C 2.042969 -0.765625 2.425781 0 3.445312 0 Z M 45.300781 -76.945312 L 65.335938 -32.15625 L 25.011719 -32.15625 L 45.171875 -76.945312 Z M 45.300781 -76.945312 "/></g></g></g><g fill="#000000" fill-opacity="1"><g transform="translate(197.929291, 117.095395)"><g><path d="M 76.179688 -64.570312 C 76.179688 -83.328125 59.59375 -89.324219 45.046875 -89.324219 L 14.417969 -89.324219 C 13.144531 -89.324219 12.632812 -88.941406 12.632812 -87.539062 L 12.632812 -1.785156 C 12.632812 -0.253906 13.144531 0 14.417969 0 L 48.234375 0 C 65.078125 0 79.5 -6.761719 79.5 -24.628906 C 79.5 -39.175781 65.71875 -44.789062 60.996094 -45.9375 L 60.996094 -46.066406 C 66.484375 -47.851562 76.179688 -53.085938 76.179688 -64.570312 Z M 20.925781 -42.238281 L 48.875 -42.238281 C 61.25 -42.238281 70.949219 -34.707031 70.949219 -25.394531 C 70.949219 -14.035156 64.058594 -7.273438 47.46875 -7.273438 L 20.925781 -7.273438 Z M 20.925781 -82.050781 L 44.40625 -82.050781 C 58.316406 -82.050781 67.757812 -76.4375 67.757812 -63.804688 C 67.757812 -55 59.210938 -49.257812 47.851562 -49.257812 L 20.925781 -49.257812 Z M 20.925781 -82.050781 "/></g></g></g><g fill="#000000" fill-opacity="1"><g transform="translate(283.803829, 117.095395)"><g><path d="M 52.191406 -90.984375 C 27.050781 -90.984375 6.507812 -70.054688 6.507812 -44.664062 C 6.507812 -19.269531 27.050781 1.660156 52.191406 1.660156 C 77.328125 1.660156 97.875 -19.269531 97.875 -44.664062 C 97.875 -70.054688 77.328125 -90.984375 52.191406 -90.984375 Z M 14.929688 -44.664062 C 14.929688 -64.824219 31.519531 -83.582031 52.191406 -83.582031 C 72.992188 -83.582031 89.453125 -64.824219 89.453125 -44.664062 C 89.453125 -24.628906 72.992188 -5.742188 52.191406 -5.742188 C 31.519531 -5.742188 14.929688 -24.628906 14.929688 -44.664062 Z M 14.929688 -44.664062 "/></g></g></g><g fill="#000000" fill-opacity="1"><g transform="translate(388.818285, 117.095395)"><g><path d="M 74.777344 -89.324219 C 73.375 -89.324219 72.992188 -88.941406 72.992188 -87.539062 L 72.992188 -37.390625 C 72.992188 -14.929688 61.378906 -5.742188 45.554688 -5.742188 C 29.730469 -5.742188 18.121094 -14.929688 18.121094 -37.390625 L 18.121094 -87.539062 C 18.121094 -88.941406 17.738281 -89.324219 16.460938 -89.324219 L 11.613281 -89.324219 C 10.335938 -89.324219 9.824219 -88.941406 9.824219 -87.539062 L 9.824219 -36.75 C 9.824219 -11.355469 24.753906 1.660156 45.554688 1.660156 C 66.355469 1.660156 81.285156 -11.355469 81.285156 -36.75 L 81.285156 -87.539062 C 81.285156 -88.941406 81.03125 -89.324219 79.625 -89.324219 Z M 74.777344 -89.324219 "/></g></g></g><g fill="#000000" fill-opacity="1"><g transform="translate(480.689973, 117.095395)"><g><path d="M 78.605469 0 C 80.007812 0 80.902344 -0.636719 80.007812 -2.042969 L 55.507812 -35.855469 C 67.757812 -39.046875 75.925781 -47.214844 75.925781 -62.527344 C 75.925781 -83.199219 59.71875 -89.324219 45.171875 -89.324219 L 14.929688 -89.324219 C 13.652344 -89.324219 13.144531 -88.941406 13.144531 -87.539062 L 13.144531 -1.785156 C 13.144531 -0.253906 13.652344 0 14.929688 0 L 19.652344 0 C 20.925781 0 21.4375 -0.253906 21.4375 -1.785156 L 21.4375 -34.835938 L 46.832031 -34.835938 L 70.820312 -1.785156 C 71.585938 -0.636719 72.480469 0 73.757812 0 Z M 44.535156 -82.050781 C 58.316406 -82.050781 67.757812 -76.308594 67.757812 -62.527344 C 67.757812 -50.023438 60.613281 -42.109375 44.535156 -42.109375 L 21.4375 -42.109375 L 21.4375 -82.050781 Z M 44.535156 -82.050781 "/></g></g></g></svg>