<svg xmlns="http://www.w3.org/2000/svg" xmlns:xlink="http://www.w3.org/1999/xlink" width="529" zoomAndPan="magnify" viewBox="0 0 396.75 396.749984" height="529" preserveAspectRatio="xMidYMid meet" version="1.0"><defs><clipPath id="id1"><path d="M 359 278 L 396.5 278 L 396.5 329 L 359 329 Z M 359 278 " clip-rule="nonzero"/></clipPath><clipPath id="id2"><path d="M 361 238 L 396.5 238 L 396.5 279 L 361 279 Z M 361 238 " clip-rule="nonzero"/></clipPath><clipPath id="id3"><path d="M 140 332 L 154 332 L 154 339.675781 L 140 339.675781 Z M 140 332 " clip-rule="nonzero"/></clipPath><clipPath id="id4"><path d="M 117 332 L 132 332 L 132 339.675781 L 117 339.675781 Z M 117 332 " clip-rule="nonzero"/></clipPath></defs><path fill="#fffef5" d="M 349.195312 100.074219 L 320.523438 216.113281 L 324.0625 216.988281 L 352.691406 101.117188 C 351.5 100.839844 350.332031 100.488281 349.195312 100.074219 " fill-opacity="1" fill-rule="nonzero"/><g clip-path="url(#id1)"><path fill="#c6712c" d="M 396.703125 328.480469 L 359.972656 328.480469 L 359.972656 278.605469 L 396.703125 278.605469 L 396.703125 328.480469 " fill-opacity="1" fill-rule="nonzero"/></g><g clip-path="url(#id2)"><path fill="#151b22" d="M 396.703125 278.605469 L 361.476562 278.605469 L 361.476562 238.460938 L 372.410156 238.460938 L 396.703125 278.605469 " fill-opacity="1" fill-rule="nonzero"/></g><path fill="#e38b2b" d="M 387.898438 278.605469 L 361.476562 278.605469 L 361.476562 238.460938 L 363.605469 238.460938 L 387.898438 278.605469 " fill-opacity="1" fill-rule="nonzero"/><path fill="#242e43" d="M 207.289062 121.371094 C 207.328125 121.378906 228.730469 124.925781 255.5 124.925781 C 276.097656 124.921875 299.863281 122.835938 319.566406 115.347656 L 318.835938 113.40625 C 299.523438 120.753906 275.953125 122.863281 255.5 122.855469 C 242.203125 122.855469 230.230469 121.972656 221.582031 121.089844 C 217.257812 120.648438 213.761719 120.210938 211.359375 119.878906 C 210.152344 119.714844 209.21875 119.574219 208.585938 119.476562 C 207.957031 119.382812 207.628906 119.328125 207.628906 119.328125 L 207.289062 121.371094 " fill-opacity="1" fill-rule="nonzero"/><path fill="#242e43" d="M 205.273438 123.328125 C 205.3125 123.332031 238.609375 131.566406 269.746094 131.570312 C 279.820312 131.570312 289.671875 130.707031 298.136719 128.402344 C 306.589844 126.089844 313.707031 122.320312 318.148438 116.402344 L 316.492188 115.160156 C 312.457031 120.554688 305.796875 124.164062 297.589844 126.402344 C 289.394531 128.640625 279.703125 129.5 269.746094 129.5 C 254.355469 129.5 238.34375 127.453125 226.195312 125.40625 C 220.121094 124.382812 215.007812 123.359375 211.421875 122.59375 C 209.621094 122.207031 208.207031 121.886719 207.242188 121.664062 C 206.277344 121.441406 205.769531 121.316406 205.769531 121.316406 L 205.273438 123.328125 " fill-opacity="1" fill-rule="nonzero"/><path fill="#e38b2b" d="M 312.019531 263.007812 L 261.222656 263.007812 L 270.203125 208.292969 L 304.652344 208.292969 L 312.019531 263.007812 " fill-opacity="1" fill-rule="nonzero"/><path fill="#232127" d="M 239.90625 117.21875 L 197.035156 126.121094 L 195.402344 118.230469 L 238.273438 109.332031 L 239.90625 117.21875 " fill-opacity="1" fill-rule="nonzero"/><path fill="#e38b2b" d="M 324.820312 208.3125 C 328.5 209.691406 330.367188 213.804688 328.980469 217.488281 C 327.601562 221.171875 323.496094 223.042969 319.816406 221.65625 L 302.738281 216.355469 L 308.488281 201.042969 L 324.820312 208.3125 " fill-opacity="1" fill-rule="nonzero"/><path fill="#668191" d="M 323.707031 218.785156 C 321.726562 219.242188 319.75 218.003906 319.292969 216.019531 C 318.839844 214.039062 320.074219 212.0625 322.058594 211.601562 C 324.035156 211.144531 326.007812 212.382812 326.464844 214.367188 C 326.917969 216.355469 325.6875 218.328125 323.707031 218.785156 " fill-opacity="1" fill-rule="nonzero"/><path fill="#ffffff" d="M 323.457031 217.699219 C 322.074219 218.015625 320.695312 217.152344 320.378906 215.769531 C 320.0625 214.386719 320.925781 213.007812 322.304688 212.6875 C 323.6875 212.371094 325.0625 213.238281 325.382812 214.621094 C 325.695312 216 324.839844 217.382812 323.457031 217.699219 " fill-opacity="1" fill-rule="nonzero"/><path fill="#232127" d="M 323.277344 216.914062 C 322.332031 217.132812 321.382812 216.539062 321.164062 215.589844 C 320.945312 214.636719 321.539062 213.695312 322.488281 213.476562 C 323.433594 213.253906 324.378906 213.851562 324.597656 214.796875 C 324.8125 215.746094 324.222656 216.695312 323.277344 216.914062 " fill-opacity="1" fill-rule="nonzero"/><path fill="#e38b2b" d="M 352.527344 94.203125 C 356.203125 95.585938 358.066406 99.699219 356.679688 103.382812 C 355.300781 107.066406 351.199219 108.933594 347.515625 107.550781 L 330.441406 102.246094 L 336.191406 86.929688 L 352.527344 94.203125 " fill-opacity="1" fill-rule="nonzero"/><path fill="#668191" d="M 351.410156 104.679688 C 349.425781 105.136719 347.453125 103.898438 347 101.910156 C 346.542969 99.929688 347.78125 97.949219 349.761719 97.5 C 351.738281 97.039062 353.714844 98.277344 354.171875 100.261719 C 354.625 102.242188 353.386719 104.222656 351.410156 104.679688 " fill-opacity="1" fill-rule="nonzero"/><path fill="#ffffff" d="M 351.160156 103.59375 C 349.777344 103.910156 348.402344 103.046875 348.082031 101.660156 C 347.765625 100.28125 348.628906 98.902344 350.007812 98.582031 C 351.386719 98.261719 352.765625 99.125 353.082031 100.511719 C 353.402344 101.894531 352.539062 103.273438 351.160156 103.59375 " fill-opacity="1" fill-rule="nonzero"/><path fill="#232127" d="M 350.976562 102.804688 C 350.03125 103.023438 349.089844 102.429688 348.871094 101.480469 C 348.652344 100.53125 349.238281 99.585938 350.191406 99.367188 C 351.136719 99.148438 352.082031 99.742188 352.296875 100.691406 C 352.515625 101.644531 351.925781 102.585938 350.976562 102.804688 " fill-opacity="1" fill-rule="nonzero"/><path fill="#e38b2b" d="M 326.933594 82.070312 L 227.347656 104.496094 C 221.957031 105.417969 218.332031 110.542969 219.25 115.945312 C 220.167969 121.347656 225.289062 124.980469 230.683594 124.054688 L 332.054688 112.109375 C 332.578125 112.074219 333.109375 112.015625 333.640625 111.921875 C 341.972656 110.5 347.566406 102.582031 346.144531 94.246094 C 344.722656 85.902344 336.820312 80.300781 328.492188 81.722656 C 327.960938 81.8125 327.441406 81.933594 326.933594 82.070312 " fill-opacity="1" fill-rule="nonzero"/><path fill="#a8786c" d="M 333.671875 111.917969 C 333.679688 111.917969 333.683594 111.917969 333.6875 111.914062 C 333.683594 111.917969 333.679688 111.917969 333.671875 111.917969 M 333.699219 111.914062 C 337.609375 111.230469 340.914062 109.113281 343.164062 106.199219 C 340.914062 109.113281 337.609375 111.230469 333.699219 111.914062 " fill-opacity="1" fill-rule="nonzero"/><path fill="#dc7030" d="M 343.164062 106.199219 C 343.347656 105.960938 343.527344 105.714844 343.695312 105.46875 C 343.527344 105.714844 343.347656 105.960938 343.164062 106.199219 M 343.695312 105.464844 C 343.703125 105.457031 343.707031 105.445312 343.71875 105.433594 C 343.707031 105.445312 343.703125 105.457031 343.695312 105.464844 M 343.722656 105.429688 C 343.726562 105.425781 343.726562 105.417969 343.730469 105.414062 C 343.726562 105.417969 343.726562 105.425781 343.722656 105.429688 M 343.734375 105.40625 C 343.746094 105.398438 343.75 105.390625 343.753906 105.378906 C 343.75 105.390625 343.746094 105.398438 343.734375 105.40625 M 343.761719 105.367188 C 343.765625 105.363281 343.769531 105.355469 343.777344 105.347656 C 343.769531 105.355469 343.765625 105.363281 343.761719 105.367188 M 343.785156 105.332031 C 343.789062 105.328125 343.792969 105.328125 343.792969 105.324219 C 343.792969 105.328125 343.789062 105.328125 343.785156 105.332031 M 343.808594 105.300781 C 343.8125 105.300781 343.8125 105.292969 343.816406 105.285156 C 343.8125 105.292969 343.8125 105.296875 343.808594 105.300781 M 343.828125 105.273438 C 343.828125 105.269531 343.828125 105.265625 343.832031 105.265625 C 343.828125 105.265625 343.828125 105.269531 343.828125 105.273438 M 343.851562 105.238281 C 343.851562 105.234375 343.851562 105.234375 343.855469 105.230469 C 343.851562 105.234375 343.851562 105.234375 343.851562 105.238281 M 343.871094 105.207031 C 343.871094 105.203125 343.871094 105.203125 343.875 105.203125 C 343.871094 105.203125 343.871094 105.203125 343.871094 105.207031 M 343.890625 105.175781 C 343.890625 105.175781 343.890625 105.171875 343.894531 105.171875 C 343.890625 105.171875 343.890625 105.175781 343.890625 105.175781 M 345.265625 102.527344 C 345.265625 102.523438 345.265625 102.523438 345.265625 102.523438 C 345.265625 102.523438 345.265625 102.523438 345.265625 102.527344 M 345.292969 102.460938 C 345.292969 102.457031 345.292969 102.457031 345.292969 102.453125 C 345.292969 102.457031 345.292969 102.457031 345.292969 102.460938 M 345.308594 102.421875 C 345.308594 102.421875 345.308594 102.417969 345.3125 102.417969 C 345.308594 102.417969 345.308594 102.421875 345.308594 102.421875 M 345.320312 102.390625 C 345.320312 102.390625 345.320312 102.386719 345.324219 102.386719 C 345.320312 102.386719 345.320312 102.390625 345.320312 102.390625 M 345.332031 102.359375 C 345.332031 102.355469 345.339844 102.351562 345.339844 102.34375 C 345.339844 102.351562 345.332031 102.355469 345.332031 102.359375 M 345.347656 102.324219 C 345.347656 102.320312 345.351562 102.3125 345.351562 102.308594 C 345.351562 102.3125 345.347656 102.320312 345.347656 102.324219 M 345.359375 102.292969 C 345.359375 102.285156 345.363281 102.28125 345.363281 102.277344 C 345.363281 102.28125 345.359375 102.285156 345.359375 102.292969 M 345.375 102.25 C 345.375 102.246094 345.378906 102.242188 345.378906 102.238281 C 345.378906 102.242188 345.375 102.246094 345.375 102.25 M 345.382812 102.222656 C 345.386719 102.214844 345.390625 102.207031 345.394531 102.191406 C 345.390625 102.207031 345.386719 102.214844 345.382812 102.222656 M 345.394531 102.183594 C 345.402344 102.179688 345.40625 102.175781 345.40625 102.167969 C 345.40625 102.175781 345.402344 102.179688 345.394531 102.183594 M 345.40625 102.167969 C 345.414062 102.152344 345.417969 102.140625 345.421875 102.125 C 345.417969 102.140625 345.410156 102.152344 345.40625 102.167969 M 345.421875 102.121094 C 345.808594 101.085938 346.078125 100 346.230469 98.886719 C 346.078125 100 345.808594 101.085938 345.421875 102.121094 " fill-opacity="1" fill-rule="nonzero"/><path fill="#dc7030" d="M 229.007812 124.199219 C 225.402344 124.199219 222.121094 122.21875 220.394531 119.140625 L 346.230469 98.886719 C 346.078125 100 345.808594 101.085938 345.421875 102.121094 L 345.421875 102.125 C 345.417969 102.140625 345.414062 102.152344 345.40625 102.167969 C 345.40625 102.175781 345.402344 102.179688 345.394531 102.183594 C 345.394531 102.1875 345.394531 102.191406 345.394531 102.191406 C 345.390625 102.207031 345.386719 102.214844 345.382812 102.222656 C 345.382812 102.230469 345.382812 102.234375 345.378906 102.238281 C 345.378906 102.242188 345.375 102.246094 345.375 102.25 C 345.371094 102.261719 345.371094 102.269531 345.363281 102.277344 C 345.363281 102.28125 345.359375 102.285156 345.359375 102.292969 C 345.355469 102.296875 345.355469 102.300781 345.351562 102.308594 C 345.351562 102.3125 345.347656 102.320312 345.347656 102.324219 C 345.34375 102.332031 345.34375 102.335938 345.339844 102.34375 C 345.339844 102.351562 345.332031 102.355469 345.332031 102.359375 C 345.328125 102.367188 345.328125 102.371094 345.324219 102.386719 C 345.320312 102.386719 345.320312 102.390625 345.320312 102.390625 C 345.316406 102.398438 345.316406 102.40625 345.3125 102.417969 C 345.308594 102.417969 345.308594 102.421875 345.308594 102.421875 C 345.300781 102.433594 345.296875 102.445312 345.292969 102.453125 C 345.292969 102.457031 345.292969 102.457031 345.292969 102.460938 C 345.285156 102.480469 345.277344 102.5 345.265625 102.523438 C 345.265625 102.523438 345.265625 102.523438 345.265625 102.527344 C 344.910156 103.417969 344.46875 104.273438 343.953125 105.078125 C 343.945312 105.089844 343.941406 105.097656 343.933594 105.109375 C 343.925781 105.121094 343.917969 105.128906 343.914062 105.140625 C 343.90625 105.148438 343.902344 105.15625 343.894531 105.171875 C 343.890625 105.171875 343.890625 105.175781 343.890625 105.175781 C 343.882812 105.183594 343.878906 105.191406 343.875 105.203125 C 343.871094 105.203125 343.871094 105.203125 343.871094 105.207031 C 343.863281 105.210938 343.859375 105.222656 343.855469 105.230469 C 343.851562 105.234375 343.851562 105.234375 343.851562 105.238281 C 343.84375 105.246094 343.839844 105.25 343.832031 105.265625 C 343.828125 105.265625 343.828125 105.269531 343.828125 105.273438 C 343.824219 105.277344 343.820312 105.28125 343.816406 105.285156 C 343.8125 105.292969 343.8125 105.300781 343.808594 105.300781 C 343.800781 105.308594 343.796875 105.3125 343.792969 105.324219 C 343.792969 105.328125 343.789062 105.328125 343.785156 105.332031 C 343.78125 105.339844 343.777344 105.34375 343.777344 105.347656 C 343.769531 105.355469 343.765625 105.363281 343.761719 105.367188 C 343.761719 105.371094 343.757812 105.375 343.753906 105.378906 C 343.75 105.390625 343.746094 105.398438 343.734375 105.40625 C 343.734375 105.40625 343.734375 105.414062 343.730469 105.414062 C 343.726562 105.417969 343.726562 105.425781 343.722656 105.429688 C 343.722656 105.429688 343.71875 105.433594 343.71875 105.433594 C 343.707031 105.445312 343.703125 105.457031 343.695312 105.464844 C 343.695312 105.46875 343.695312 105.46875 343.695312 105.46875 C 343.527344 105.714844 343.347656 105.960938 343.164062 106.199219 C 340.914062 109.113281 337.609375 111.230469 333.699219 111.914062 C 333.695312 111.914062 333.691406 111.914062 333.6875 111.914062 C 333.683594 111.917969 333.679688 111.917969 333.671875 111.917969 C 333.664062 111.917969 333.652344 111.921875 333.640625 111.921875 C 333.109375 112.015625 332.578125 112.074219 332.054688 112.109375 L 318.929688 113.65625 L 317.824219 113.785156 L 242.988281 122.605469 L 231.105469 124.007812 L 230.683594 124.054688 C 230.121094 124.152344 229.558594 124.199219 229.007812 124.199219 " fill-opacity="1" fill-rule="nonzero"/><path fill="#e6b72a" d="M 306.601562 213.507812 L 343.769531 95.65625 C 346.089844 89.453125 342.945312 82.539062 336.75 80.214844 C 330.558594 77.894531 323.652344 81.042969 321.335938 87.246094 L 272.148438 200.597656 C 271.863281 201.171875 271.609375 201.761719 271.378906 202.375 C 267.800781 211.953125 272.660156 222.625 282.21875 226.207031 C 291.785156 229.792969 302.441406 224.933594 306.023438 215.351562 C 306.25 214.738281 306.441406 214.121094 306.601562 213.507812 " fill-opacity="1" fill-rule="nonzero"/><path fill="#668191" d="M 300.058594 205.160156 C 301.625 211.578125 297.703125 218.058594 291.292969 219.625 C 284.882812 221.195312 278.417969 217.261719 276.847656 210.839844 C 275.285156 204.421875 279.207031 197.949219 285.617188 196.378906 C 292.027344 194.808594 298.492188 198.738281 300.058594 205.160156 " fill-opacity="1" fill-rule="nonzero"/><path fill="#151b22" d="M 298.0625 205.652344 C 299.359375 210.964844 296.109375 216.328125 290.800781 217.625 C 285.492188 218.925781 280.140625 215.667969 278.839844 210.355469 C 277.546875 205.039062 280.800781 199.671875 286.105469 198.378906 C 291.417969 197.074219 296.765625 200.335938 298.0625 205.652344 " fill-opacity="1" fill-rule="nonzero"/><path fill="#668191" d="M 332.90625 101.164062 C 329.199219 102.015625 325.519531 99.703125 324.664062 95.996094 C 323.816406 92.296875 326.125 88.597656 329.824219 87.75 C 333.523438 86.894531 337.210938 89.207031 338.0625 92.910156 C 338.914062 96.617188 336.601562 100.3125 332.90625 101.164062 " fill-opacity="1" fill-rule="nonzero"/><path fill="#ffffff" d="M 332.4375 99.128906 C 329.859375 99.730469 327.285156 98.113281 326.691406 95.527344 C 326.101562 92.949219 327.710938 90.367188 330.289062 89.777344 C 332.871094 89.183594 335.441406 90.792969 336.035156 93.382812 C 336.628906 95.960938 335.015625 98.535156 332.4375 99.128906 " fill-opacity="1" fill-rule="nonzero"/><path fill="#232127" d="M 332.097656 97.664062 C 330.328125 98.070312 328.566406 96.960938 328.164062 95.191406 C 327.753906 93.421875 328.855469 91.652344 330.628906 91.246094 C 332.398438 90.835938 334.160156 91.941406 334.570312 93.714844 C 334.972656 95.492188 333.871094 97.257812 332.097656 97.664062 " fill-opacity="1" fill-rule="nonzero"/><path fill="#c6712c" d="M 312.019531 305.117188 L 261.222656 305.117188 L 261.222656 263.007812 L 312.019531 263.007812 L 312.019531 305.117188 " fill-opacity="1" fill-rule="nonzero"/><path fill="#465360" d="M 186.792969 133.148438 C 186.6875 133.832031 186.636719 134.53125 186.636719 135.242188 C 186.636719 142.824219 192.773438 148.964844 200.34375 148.964844 C 207.910156 148.964844 214.050781 142.824219 214.050781 135.242188 C 214.050781 134.53125 213.996094 133.832031 213.886719 133.148438 L 186.792969 133.148438 " fill-opacity="1" fill-rule="nonzero"/><path fill="#c6712c" d="M 210 124.15625 C 210 126.628906 207.976562 128.652344 205.507812 128.652344 L 194.949219 128.652344 C 192.480469 128.652344 190.457031 126.628906 190.457031 124.15625 L 190.457031 118.875 C 190.457031 116.398438 192.480469 114.375 194.949219 114.375 L 205.507812 114.375 C 207.976562 114.375 210 116.398438 210 118.875 L 210 124.15625 " fill-opacity="1" fill-rule="nonzero"/><path fill="#668191" d="M 215.410156 135.316406 L 185.050781 135.316406 L 185.050781 125.988281 L 215.410156 125.988281 L 215.410156 135.316406 " fill-opacity="1" fill-rule="nonzero"/><path fill="#8caab2" d="M 211.492188 137.230469 L 208.675781 142.839844 L 217.292969 162.183594 L 217.292969 167.871094 L 210 178.449219 L 210 184.441406 L 221.871094 169.460938 L 221.871094 160.117188 L 211.492188 137.230469 " fill-opacity="1" fill-rule="nonzero"/><path fill="#668191" d="M 208.675781 142.839844 L 217.292969 162.183594 L 217.292969 167.871094 L 210 178.449219 L 210 182.152344 L 220.113281 168.023438 L 220.113281 160.835938 L 210 140.195312 L 208.675781 142.839844 " fill-opacity="1" fill-rule="nonzero"/><path fill="#8caab2" d="M 188.960938 137.230469 L 191.773438 142.839844 L 183.148438 162.183594 L 183.148438 167.871094 L 190.449219 178.449219 L 190.449219 184.441406 L 178.578125 169.460938 L 178.578125 160.117188 L 188.960938 137.230469 " fill-opacity="1" fill-rule="nonzero"/><path fill="#668191" d="M 191.773438 142.839844 L 183.148438 162.183594 L 183.148438 167.871094 L 190.449219 178.449219 L 190.449219 182.152344 L 180.335938 168.023438 L 180.335938 160.835938 L 190.449219 140.195312 L 191.773438 142.839844 " fill-opacity="1" fill-rule="nonzero"/><path fill="#668191" d="M 204.796875 120.347656 C 204.796875 122.875 202.75 124.925781 200.226562 124.925781 C 197.707031 124.925781 195.660156 122.875 195.660156 120.347656 C 195.660156 117.828125 197.707031 115.78125 200.226562 115.78125 C 202.75 115.78125 204.796875 117.828125 204.796875 120.347656 " fill-opacity="1" fill-rule="nonzero"/><path fill="#ffffff" d="M 203.285156 120.347656 C 203.285156 122.042969 201.914062 123.410156 200.226562 123.410156 C 198.542969 123.410156 197.171875 122.042969 197.171875 120.347656 C 197.171875 118.660156 198.542969 117.289062 200.226562 117.289062 C 201.914062 117.289062 203.285156 118.660156 203.285156 120.347656 " fill-opacity="1" fill-rule="nonzero"/><path fill="#232127" d="M 202.191406 120.347656 C 202.191406 121.441406 201.3125 122.320312 200.226562 122.320312 C 199.144531 122.320312 198.261719 121.441406 198.261719 120.347656 C 198.261719 119.261719 199.144531 118.382812 200.226562 118.382812 C 201.3125 118.382812 202.191406 119.261719 202.191406 120.347656 " fill-opacity="1" fill-rule="nonzero"/><path fill="#e6b72a" d="M 328.585938 328.480469 L 246.695312 328.480469 L 246.695312 300.199219 L 328.585938 300.199219 L 328.585938 328.480469 " fill-opacity="1" fill-rule="nonzero"/><path fill="#e6b72a" d="M 363.605469 328.480469 L 327.773438 328.480469 L 327.773438 235.648438 L 363.605469 235.648438 L 363.605469 328.480469 " fill-opacity="1" fill-rule="nonzero"/><path fill="#151b22" d="M 359.972656 235.648438 L 331.40625 235.648438 L 331.40625 227.386719 L 359.972656 227.386719 L 359.972656 235.648438 " fill-opacity="1" fill-rule="nonzero"/><path fill="#181822" d="M 180.402344 280.703125 L 172.839844 280.703125 L 172.839844 262.070312 L 180.402344 262.070312 L 180.402344 280.703125 " fill-opacity="1" fill-rule="nonzero"/><path fill="#181822" d="M 163.265625 262.085938 L 68.480469 262.085938 C 63.199219 262.085938 58.902344 266.382812 58.902344 271.671875 L 58.902344 273.640625 C 58.902344 278.929688 63.199219 283.230469 68.480469 283.230469 L 163.265625 283.230469 C 168.546875 283.230469 172.839844 278.929688 172.839844 273.640625 L 172.839844 271.671875 C 172.839844 266.382812 168.546875 262.085938 163.265625 262.085938 Z M 163.265625 263.921875 C 167.542969 263.921875 171.007812 267.386719 171.007812 271.671875 L 171.007812 273.640625 C 171.007812 277.925781 167.542969 281.394531 163.265625 281.394531 L 68.480469 281.394531 C 64.203125 281.394531 60.738281 277.925781 60.738281 273.640625 L 60.738281 271.671875 C 60.738281 267.386719 64.203125 263.921875 68.480469 263.921875 L 163.265625 263.921875 " fill-opacity="1" fill-rule="nonzero"/><path fill="#181822" d="M 76.492188 272.828125 C 76.492188 277.1875 72.960938 280.714844 68.613281 280.714844 C 64.265625 280.714844 60.738281 277.1875 60.738281 272.828125 C 60.738281 268.472656 64.265625 264.941406 68.613281 264.941406 C 72.960938 264.941406 76.492188 268.472656 76.492188 272.828125 " fill-opacity="1" fill-rule="nonzero"/><path fill="#312e43" d="M 74.15625 272.828125 C 74.15625 275.894531 71.675781 278.375 68.613281 278.375 C 65.554688 278.375 63.074219 275.894531 63.074219 272.828125 C 63.074219 269.765625 65.554688 267.28125 68.613281 267.28125 C 71.675781 267.28125 74.15625 269.765625 74.15625 272.828125 " fill-opacity="1" fill-rule="nonzero"/><path fill="#181822" d="M 92.246094 272.828125 C 92.246094 277.1875 88.71875 280.714844 84.367188 280.714844 C 80.015625 280.714844 76.492188 277.1875 76.492188 272.828125 C 76.492188 268.472656 80.015625 264.941406 84.367188 264.941406 C 88.71875 264.941406 92.246094 268.472656 92.246094 272.828125 " fill-opacity="1" fill-rule="nonzero"/><path fill="#312e43" d="M 89.90625 272.828125 C 89.90625 275.894531 87.429688 278.375 84.367188 278.375 C 81.304688 278.375 78.824219 275.894531 78.824219 272.828125 C 78.824219 269.765625 81.304688 267.28125 84.367188 267.28125 C 87.429688 267.28125 89.90625 269.765625 89.90625 272.828125 " fill-opacity="1" fill-rule="nonzero"/><path fill="#181822" d="M 107.996094 272.828125 C 107.996094 277.1875 104.46875 280.714844 100.121094 280.714844 C 95.773438 280.714844 92.246094 277.1875 92.246094 272.828125 C 92.246094 268.472656 95.773438 264.941406 100.121094 264.941406 C 104.46875 264.941406 107.996094 268.472656 107.996094 272.828125 " fill-opacity="1" fill-rule="nonzero"/><path fill="#312e43" d="M 105.664062 272.828125 C 105.664062 275.894531 103.179688 278.375 100.121094 278.375 C 97.058594 278.375 94.582031 275.894531 94.582031 272.828125 C 94.582031 269.765625 97.058594 267.28125 100.121094 267.28125 C 103.179688 267.28125 105.664062 269.765625 105.664062 272.828125 " fill-opacity="1" fill-rule="nonzero"/><path fill="#181822" d="M 123.75 272.828125 C 123.75 277.1875 120.222656 280.714844 115.875 280.714844 C 111.523438 280.714844 107.996094 277.1875 107.996094 272.828125 C 107.996094 268.472656 111.523438 264.941406 115.875 264.941406 C 120.222656 264.941406 123.75 268.472656 123.75 272.828125 " fill-opacity="1" fill-rule="nonzero"/><path fill="#312e43" d="M 121.414062 272.828125 C 121.414062 275.894531 118.933594 278.375 115.875 278.375 C 112.8125 278.375 110.332031 275.894531 110.332031 272.828125 C 110.332031 269.765625 112.8125 267.28125 115.875 267.28125 C 118.933594 267.28125 121.414062 269.765625 121.414062 272.828125 " fill-opacity="1" fill-rule="nonzero"/><path fill="#181822" d="M 139.503906 272.828125 C 139.503906 277.1875 135.976562 280.714844 131.625 280.714844 C 127.277344 280.714844 123.75 277.1875 123.75 272.828125 C 123.75 268.472656 127.277344 264.941406 131.625 264.941406 C 135.976562 264.941406 139.503906 268.472656 139.503906 272.828125 " fill-opacity="1" fill-rule="nonzero"/><path fill="#312e43" d="M 137.167969 272.828125 C 137.167969 275.894531 134.6875 278.375 131.625 278.375 C 128.566406 278.375 126.085938 275.894531 126.085938 272.828125 C 126.085938 269.765625 128.566406 267.28125 131.625 267.28125 C 134.6875 267.28125 137.167969 269.765625 137.167969 272.828125 " fill-opacity="1" fill-rule="nonzero"/><path fill="#181822" d="M 155.257812 272.828125 C 155.257812 277.1875 151.726562 280.714844 147.378906 280.714844 C 143.03125 280.714844 139.503906 277.1875 139.503906 272.828125 C 139.503906 268.472656 143.03125 264.941406 147.378906 264.941406 C 151.726562 264.941406 155.257812 268.472656 155.257812 272.828125 " fill-opacity="1" fill-rule="nonzero"/><path fill="#312e43" d="M 152.917969 272.828125 C 152.917969 275.894531 150.441406 278.375 147.378906 278.375 C 144.316406 278.375 141.832031 275.894531 141.832031 272.828125 C 141.832031 269.765625 144.316406 267.28125 147.378906 267.28125 C 150.441406 267.28125 152.917969 269.765625 152.917969 272.828125 " fill-opacity="1" fill-rule="nonzero"/><path fill="#181822" d="M 171.007812 272.828125 C 171.007812 277.1875 167.484375 280.714844 163.132812 280.714844 C 158.78125 280.714844 155.257812 277.1875 155.257812 272.828125 C 155.257812 268.472656 158.78125 264.941406 163.132812 264.941406 C 167.484375 264.941406 171.007812 268.472656 171.007812 272.828125 " fill-opacity="1" fill-rule="nonzero"/><path fill="#312e43" d="M 168.671875 272.828125 C 168.671875 275.894531 166.195312 278.375 163.132812 278.375 C 160.070312 278.375 157.585938 275.894531 157.585938 272.828125 C 157.585938 269.765625 160.070312 267.28125 163.132812 267.28125 C 166.195312 267.28125 168.671875 269.765625 168.671875 272.828125 " fill-opacity="1" fill-rule="nonzero"/><path fill="#e38b2b" d="M 61.027344 328.355469 L 54.921875 328.355469 L 54.921875 276.234375 L 61.027344 276.234375 L 61.027344 328.355469 " fill-opacity="1" fill-rule="nonzero"/><path fill="#e38b2b" d="M 176.421875 328.355469 L 170.308594 328.355469 L 170.308594 276.234375 L 176.421875 276.234375 L 176.421875 328.355469 " fill-opacity="1" fill-rule="nonzero"/><path fill="#e38b2b" d="M 176.421875 295.203125 L 54.921875 295.203125 L 54.921875 276.234375 L 176.421875 276.234375 L 176.421875 295.203125 " fill-opacity="1" fill-rule="nonzero"/><path fill="#e6b72a" d="M 176.421875 276.234375 L 54.921875 276.234375 L 54.921875 272.660156 L 176.421875 272.660156 L 176.421875 276.234375 " fill-opacity="1" fill-rule="nonzero"/><path fill="#181822" d="M 284.765625 262.070312 L 189.980469 262.070312 C 184.699219 262.070312 180.402344 266.371094 180.402344 271.660156 L 180.402344 273.628906 C 180.402344 278.917969 184.699219 283.21875 189.980469 283.21875 L 284.765625 283.21875 C 290.046875 283.21875 294.339844 278.917969 294.339844 273.628906 L 294.339844 271.660156 C 294.339844 266.371094 290.046875 262.070312 284.765625 262.070312 Z M 284.765625 263.90625 C 289.042969 263.90625 292.503906 267.378906 292.503906 271.660156 L 292.503906 273.628906 C 292.503906 277.910156 289.042969 281.386719 284.765625 281.386719 L 189.980469 281.386719 C 185.703125 281.386719 182.238281 277.910156 182.238281 273.628906 L 182.238281 271.660156 C 182.238281 267.378906 185.703125 263.90625 189.980469 263.90625 L 284.765625 263.90625 " fill-opacity="1" fill-rule="nonzero"/><path fill="#181822" d="M 197.992188 272.816406 C 197.992188 277.167969 194.464844 280.703125 190.113281 280.703125 C 185.765625 280.703125 182.238281 277.167969 182.238281 272.816406 C 182.238281 268.457031 185.765625 264.929688 190.113281 264.929688 C 194.464844 264.929688 197.992188 268.457031 197.992188 272.816406 " fill-opacity="1" fill-rule="nonzero"/><path fill="#312e43" d="M 195.65625 272.816406 C 195.65625 275.878906 193.175781 278.363281 190.113281 278.363281 C 187.054688 278.363281 184.574219 275.878906 184.574219 272.816406 C 184.574219 269.746094 187.054688 267.265625 190.113281 267.265625 C 193.175781 267.265625 195.65625 269.746094 195.65625 272.816406 " fill-opacity="1" fill-rule="nonzero"/><path fill="#181822" d="M 213.742188 272.816406 C 213.742188 277.167969 210.214844 280.703125 205.867188 280.703125 C 201.519531 280.703125 197.992188 277.167969 197.992188 272.816406 C 197.992188 268.457031 201.519531 264.929688 205.867188 264.929688 C 210.214844 264.929688 213.742188 268.457031 213.742188 272.816406 " fill-opacity="1" fill-rule="nonzero"/><path fill="#312e43" d="M 211.410156 272.816406 C 211.410156 275.878906 208.929688 278.363281 205.867188 278.363281 C 202.808594 278.363281 200.328125 275.878906 200.328125 272.816406 C 200.328125 269.746094 202.808594 267.265625 205.867188 267.265625 C 208.929688 267.265625 211.410156 269.746094 211.410156 272.816406 " fill-opacity="1" fill-rule="nonzero"/><path fill="#181822" d="M 229.496094 272.816406 C 229.496094 277.167969 225.96875 280.703125 221.621094 280.703125 C 217.269531 280.703125 213.742188 277.167969 213.742188 272.816406 C 213.742188 268.457031 217.269531 264.929688 221.621094 264.929688 C 225.96875 264.929688 229.496094 268.457031 229.496094 272.816406 " fill-opacity="1" fill-rule="nonzero"/><path fill="#312e43" d="M 227.160156 272.816406 C 227.160156 275.878906 224.679688 278.363281 221.621094 278.363281 C 218.558594 278.363281 216.074219 275.878906 216.074219 272.816406 C 216.074219 269.746094 218.558594 267.265625 221.621094 267.265625 C 224.679688 267.265625 227.160156 269.746094 227.160156 272.816406 " fill-opacity="1" fill-rule="nonzero"/><path fill="#181822" d="M 245.25 272.816406 C 245.25 277.167969 241.722656 280.703125 237.371094 280.703125 C 233.023438 280.703125 229.496094 277.167969 229.496094 272.816406 C 229.496094 268.457031 233.023438 264.929688 237.371094 264.929688 C 241.722656 264.929688 245.25 268.457031 245.25 272.816406 " fill-opacity="1" fill-rule="nonzero"/><path fill="#312e43" d="M 242.914062 272.816406 C 242.914062 275.878906 240.433594 278.363281 237.371094 278.363281 C 234.3125 278.363281 231.828125 275.878906 231.828125 272.816406 C 231.828125 269.746094 234.3125 267.265625 237.371094 267.265625 C 240.433594 267.265625 242.914062 269.746094 242.914062 272.816406 " fill-opacity="1" fill-rule="nonzero"/><path fill="#181822" d="M 261.003906 272.816406 C 261.003906 277.167969 257.476562 280.703125 253.128906 280.703125 C 248.777344 280.703125 245.25 277.167969 245.25 272.816406 C 245.25 268.457031 248.777344 264.929688 253.128906 264.929688 C 257.476562 264.929688 261.003906 268.457031 261.003906 272.816406 " fill-opacity="1" fill-rule="nonzero"/><path fill="#312e43" d="M 258.667969 272.816406 C 258.667969 275.878906 256.1875 278.363281 253.128906 278.363281 C 250.066406 278.363281 247.582031 275.878906 247.582031 272.816406 C 247.582031 269.746094 250.066406 267.265625 253.128906 267.265625 C 256.1875 267.265625 258.667969 269.746094 258.667969 272.816406 " fill-opacity="1" fill-rule="nonzero"/><path fill="#181822" d="M 276.753906 272.816406 C 276.753906 277.167969 273.230469 280.703125 268.878906 280.703125 C 264.527344 280.703125 261.003906 277.167969 261.003906 272.816406 C 261.003906 268.457031 264.527344 264.929688 268.878906 264.929688 C 273.230469 264.929688 276.753906 268.457031 276.753906 272.816406 " fill-opacity="1" fill-rule="nonzero"/><path fill="#312e43" d="M 274.421875 272.816406 C 274.421875 275.878906 271.941406 278.363281 268.878906 278.363281 C 265.816406 278.363281 263.335938 275.878906 263.335938 272.816406 C 263.335938 269.746094 265.816406 267.265625 268.878906 267.265625 C 271.941406 267.265625 274.421875 269.746094 274.421875 272.816406 " fill-opacity="1" fill-rule="nonzero"/><path fill="#181822" d="M 292.503906 272.816406 C 292.503906 277.167969 288.980469 280.703125 284.632812 280.703125 C 280.28125 280.703125 276.753906 277.167969 276.753906 272.816406 C 276.753906 268.457031 280.28125 264.929688 284.632812 264.929688 C 288.980469 264.929688 292.503906 268.457031 292.503906 272.816406 " fill-opacity="1" fill-rule="nonzero"/><path fill="#312e43" d="M 290.171875 272.816406 C 290.171875 275.878906 287.695312 278.363281 284.632812 278.363281 C 281.570312 278.363281 279.089844 275.878906 279.089844 272.816406 C 279.089844 269.746094 281.570312 267.265625 284.632812 267.265625 C 287.695312 267.265625 290.171875 269.746094 290.171875 272.816406 " fill-opacity="1" fill-rule="nonzero"/><path fill="#e38b2b" d="M 182.53125 328.335938 L 176.421875 328.335938 L 176.421875 276.21875 L 182.53125 276.21875 L 182.53125 328.335938 " fill-opacity="1" fill-rule="nonzero"/><path fill="#e38b2b" d="M 297.917969 328.335938 L 291.808594 328.335938 L 291.808594 276.21875 L 297.917969 276.21875 L 297.917969 328.335938 " fill-opacity="1" fill-rule="nonzero"/><path fill="#e38b2b" d="M 297.917969 295.191406 L 176.421875 295.191406 L 176.421875 276.21875 L 297.917969 276.21875 L 297.917969 295.191406 " fill-opacity="1" fill-rule="nonzero"/><path fill="#e6b72a" d="M 297.917969 276.21875 L 176.421875 276.21875 L 176.421875 272.644531 L 297.917969 272.644531 L 297.917969 276.21875 " fill-opacity="1" fill-rule="nonzero"/><path fill="#e6b72a" d="M 177.242188 328.355469 L 176 328.355469 L 176 275.175781 L 177.242188 275.175781 L 177.242188 328.355469 " fill-opacity="1" fill-rule="nonzero"/><path fill="#96bee0" d="M 44.621094 167.292969 C 44.621094 167.292969 47.355469 167.925781 50.390625 171.933594 C 53.421875 175.9375 60.753906 195.972656 60.753906 195.972656 L 74.351562 213.523438 C 74.351562 213.523438 73.703125 215.976562 70.832031 219.09375 C 70.832031 219.09375 58.105469 206.152344 55.988281 204.992188 C 53.875 203.839844 41.769531 179.925781 41.769531 179.925781 C 41.769531 179.925781 42.441406 171.257812 44.621094 167.292969 " fill-opacity="1" fill-rule="nonzero"/><path fill="#f79375" d="M 42.152344 217.566406 C 42.152344 217.566406 43.753906 220.027344 44.90625 220.5 C 46.054688 220.96875 48.003906 221.148438 48.761719 221.445312 C 49.515625 221.742188 49.945312 223.855469 49.945312 223.855469 C 49.945312 223.855469 50.976562 225.308594 51.191406 225.78125 C 51.410156 226.257812 51.253906 226.265625 51.019531 226.644531 C 50.789062 227.027344 47.140625 228.707031 46.046875 228.714844 C 44.953125 228.734375 42.296875 226.285156 41.949219 224.539062 C 41.949219 224.539062 42.105469 223.007812 41.886719 222.535156 C 41.671875 222.066406 38.582031 219.804688 38.582031 219.804688 C 38.753906 219.929688 42.152344 217.566406 42.152344 217.566406 " fill-opacity="1" fill-rule="nonzero"/><path fill="#16151a" d="M 8.128906 322.707031 C 8.128906 322.707031 10.074219 326.148438 13.402344 328.660156 C 13.402344 328.660156 14.402344 329.523438 14.660156 331.042969 C 14.660156 331.042969 6.785156 332.34375 4.0625 331.734375 C 4.0625 331.734375 2.207031 329.480469 1.859375 328.445312 C 1.859375 328.445312 2.503906 323.59375 2.589844 322.941406 L 8.128906 322.707031 " fill-opacity="1" fill-rule="nonzero"/><path fill="#16151a" d="M 18.683594 321.773438 C 18.683594 321.773438 23.203125 321.375 23.714844 321.5625 L 24.605469 322.707031 C 24.605469 322.707031 26.378906 325.152344 33.433594 328.195312 L 33.433594 329.523438 L 18.191406 329.558594 C 18.191406 329.558594 16.964844 327.53125 18.683594 321.773438 " fill-opacity="1" fill-rule="nonzero"/><path fill="#f9a875" d="M 18.582031 302.738281 C 18.566406 309.695312 19.320312 322.363281 19.320312 322.363281 C 20.398438 322.980469 23 322.363281 23 322.363281 C 23.34375 318.921875 24.222656 306.835938 24.574219 302.738281 L 18.582031 302.738281 " fill-opacity="1" fill-rule="nonzero"/><path fill="#456bbd" d="M 0.769531 216.769531 L 1.445312 323.519531 C 1.445312 323.519531 5.015625 324.371094 10.800781 323.503906 L 14.207031 283.300781 L 17.761719 249.105469 L 17.445312 322.597656 C 17.445312 322.597656 21.730469 323.519531 25.210938 322.585938 L 28.390625 282.882812 L 32.652344 229.347656 L 32.824219 218.945312 C 32.824219 218.945312 21.324219 218.867188 0.769531 216.769531 " fill-opacity="1" fill-rule="nonzero"/><path fill="#9dc0d9" d="M 50.925781 148.082031 C 50.925781 148.082031 57.710938 150.648438 57.238281 149.027344 C 57.082031 148.496094 51.628906 145.859375 51.628906 145.859375 L 50.925781 148.082031 " fill-opacity="1" fill-rule="nonzero"/><path fill="#e4846c" d="M 43.785156 177.390625 C 44.125 175.679688 45.753906 169.710938 45.585938 169.199219 C 45.585938 169.199219 40.707031 166.40625 40.566406 165.339844 C 40.351562 163.6875 40.757812 159.0625 41.84375 154.742188 C 42.105469 153.664062 35.988281 146.632812 35.988281 146.632812 C 35.988281 146.632812 32.941406 156.820312 29.1875 160.671875 C 29.1875 160.671875 21.035156 159.34375 18.730469 160.539062 C 18.132812 160.855469 17.488281 161.617188 16.882812 162.710938 L 43.785156 177.390625 " fill-opacity="1" fill-rule="nonzero"/><path fill="#d26758" d="M 40.511719 164.421875 C 40.480469 162.441406 40.875 158.828125 41.699219 155.316406 L 36.71875 149.007812 L 35.359375 148.578125 C 34.949219 149.769531 34.351562 151.394531 33.628906 153.101562 C 34.046875 156.601562 35.578125 165.046875 40.511719 164.421875 " fill-opacity="1" fill-rule="nonzero"/><path fill="#f7fbfe" d="M 38.105469 205.261719 L 8.644531 195.175781 C 9.253906 193.398438 9.625 192.363281 9.625 192.363281 C 10.371094 168 15.667969 160.351562 15.667969 160.351562 C 17.433594 158.960938 27.804688 159.757812 29.523438 160.21875 C 29.523438 160.21875 35.234375 169.199219 37.164062 169.175781 C 38.449219 169.15625 39.980469 166.25 40.527344 163.5625 L 45.972656 166.53125 C 51.191406 169.125 48 175.664062 48 175.664062 L 38.105469 205.261719 " fill-opacity="1" fill-rule="nonzero"/><path fill="#456bbd" d="M 22.148438 183.910156 L 43.351562 190.628906 L 36.707031 212.003906 L 31.503906 226.84375 C 23.007812 227.886719 0.769531 216.769531 0.769531 216.769531 C 0.0820312 214.507812 9.625 192.363281 9.625 192.363281 C 9.625 192.363281 18.679688 191.144531 22.148438 183.910156 " fill-opacity="1" fill-rule="nonzero"/><path fill="#f79375" d="M 52.535156 144.914062 C 52.535156 144.914062 51.695312 149.882812 49.34375 154.234375 C 47.945312 156.804688 43.847656 159.871094 41.871094 160.082031 C 41.871094 160.082031 41.316406 160.195312 39.707031 159.378906 C 37.730469 158.367188 34.964844 154.054688 35.238281 149.613281 C 35.238281 149.613281 33.980469 149.578125 33.945312 147.449219 C 33.914062 145.324219 35.394531 142.582031 36.847656 145.019531 C 36.847656 145.019531 38.824219 136.464844 42.714844 137.132812 C 46.597656 137.804688 54.109375 138.785156 52.535156 144.914062 " fill-opacity="1" fill-rule="nonzero"/><path fill="#371d15" d="M 36.167969 136.03125 L 54.105469 141.71875 L 52.890625 145.5625 C 52.511719 146.011719 52.253906 146.277344 52.253906 146.277344 L 52.742188 143.519531 C 50.890625 144.433594 48.070312 143.480469 48.070312 143.480469 C 44.574219 142.230469 41.238281 138.789062 41.238281 138.789062 C 39.769531 140.449219 39.351562 142.484375 39.351562 142.484375 C 39.246094 144.429688 37.316406 146.167969 36.976562 145.78125 C 36.832031 145.617188 36.714844 145.324219 36.625 145.019531 C 35.605469 142.710938 33.914062 145.394531 34.050781 147.222656 C 34.246094 149.808594 35.238281 149.613281 35.238281 149.613281 L 35.226562 149.910156 C 34.777344 151.140625 33.820312 152.675781 33.136719 154.183594 C 32.910156 154.15625 34.425781 152.160156 34.046875 149.636719 C 33.558594 146.378906 33.882812 140.011719 36.167969 136.03125 " fill-opacity="1" fill-rule="nonzero"/><path fill="#456bbd" d="M 25.914062 159.765625 C 25.914062 159.765625 28.851562 170.972656 25.789062 186.507812 L 22.664062 185.515625 C 22.664062 185.515625 25.433594 169.316406 22.960938 159.601562 C 22.960938 159.601562 24.464844 158.488281 25.914062 159.765625 " fill-opacity="1" fill-rule="nonzero"/><path fill="#456bbd" d="M 43.726562 165.175781 C 43.726562 165.175781 45.8125 175.035156 42.746094 190.570312 L 39.625 189.578125 C 39.625 189.578125 43.234375 173.351562 40.761719 163.640625 C 40.761719 163.640625 42.285156 163.898438 43.726562 165.175781 " fill-opacity="1" fill-rule="nonzero"/><path fill="#f7fbfe" d="M 52.253906 146.277344 C 52.253906 146.277344 49.167969 142.519531 41.761719 141.636719 C 39.628906 141.382812 37.140625 141.371094 34.265625 141.75 C 34.265625 141.75 34.632812 136.054688 37.390625 134.351562 C 37.390625 134.351562 51.9375 130.386719 54.617188 139.152344 C 54.617188 139.152344 54.972656 141.992188 52.253906 146.277344 " fill-opacity="1" fill-rule="nonzero"/><path fill="#f7fbfe" d="M 41.863281 140.964844 C 41.863281 140.964844 41.609375 142.886719 43.375 143.964844 C 45.136719 145.046875 55.492188 148.101562 57.238281 149.027344 L 53.539062 143.894531 C 53.539062 143.894531 47.867188 139.058594 41.863281 140.964844 " fill-opacity="1" fill-rule="nonzero"/><path fill="#f7fbfe" d="M 15.667969 160.351562 C 15.667969 160.351562 9.097656 164.269531 10.398438 173.527344 C 11.707031 182.789062 13.601562 192.269531 14.402344 194.964844 L 15.410156 197.035156 L 38.578125 221.867188 C 38.578125 221.867188 41.527344 222.699219 44.566406 218.121094 L 24.277344 193.015625 C 24.277344 193.015625 22.441406 167.453125 20.515625 163.859375 C 18.601562 160.269531 15.667969 160.351562 15.667969 160.351562 " fill-opacity="1" fill-rule="nonzero"/><path fill="#191e26" d="M 159.074219 197.6875 L 159.074219 246.351562 C 162.398438 238.925781 164.253906 230.691406 164.253906 222.023438 C 164.253906 213.355469 162.398438 205.113281 159.074219 197.6875 " fill-opacity="1" fill-rule="nonzero"/><path fill="#101318" d="M 72.5 249.757812 L 72.5 254.203125 C 72.5 258.371094 75.957031 261.75 80.210938 261.75 L 148.863281 261.75 C 153.117188 261.75 156.574219 258.371094 156.574219 254.203125 L 156.574219 249.757812 L 72.5 249.757812 " fill-opacity="1" fill-rule="nonzero"/><path fill="#191e26" d="M 157.207031 254.308594 L 71.058594 254.308594 L 71.058594 252.203125 L 157.207031 252.203125 L 157.207031 254.308594 " fill-opacity="1" fill-rule="nonzero"/><path fill="#9db4c2" d="M 62.726562 238.851562 L 60.734375 238.851562 L 60.734375 232.949219 L 62.726562 232.949219 L 62.726562 238.851562 " fill-opacity="1" fill-rule="nonzero"/><path fill="#9db4c2" d="M 62.726562 216.675781 L 61.121094 216.675781 L 61.121094 213.105469 L 62.726562 213.105469 L 62.726562 216.675781 " fill-opacity="1" fill-rule="nonzero"/><path fill="#29303a" d="M 66.027344 241.199219 L 63.867188 241.199219 L 63.867188 208.699219 L 66.027344 208.699219 L 66.027344 241.199219 " fill-opacity="1" fill-rule="nonzero"/><path fill="#191e26" d="M 70.785156 240.011719 L 67.027344 240.011719 L 67.027344 209.878906 L 70.785156 209.878906 L 70.785156 240.011719 " fill-opacity="1" fill-rule="nonzero"/><path fill="#191e26" d="M 156.820312 185.421875 L 156.820312 172.84375 C 156.820312 171.457031 155.691406 170.328125 154.304688 170.328125 L 147.195312 170.328125 C 145.8125 170.328125 144.683594 170.925781 144.683594 171.660156 C 144.683594 172.394531 143.550781 172.992188 142.167969 172.992188 L 126.285156 172.992188 C 124.90625 172.992188 123.773438 172.394531 123.773438 171.660156 C 123.773438 170.925781 122.640625 170.328125 121.257812 170.328125 L 107.007812 170.328125 C 105.625 170.328125 104.496094 170.925781 104.496094 171.660156 C 104.496094 172.394531 103.363281 172.992188 101.976562 172.992188 L 86.097656 172.992188 C 84.71875 172.992188 83.585938 172.394531 83.585938 171.660156 C 83.585938 170.925781 82.457031 170.328125 81.074219 170.328125 L 73.960938 170.328125 C 72.578125 170.328125 71.449219 171.457031 71.449219 172.84375 L 71.449219 185.421875 L 156.820312 185.421875 " fill-opacity="1" fill-rule="nonzero"/><path fill="#29303a" d="M 156.820312 178.738281 L 156.820312 172.84375 C 156.820312 171.457031 155.691406 170.328125 154.304688 170.328125 L 147.195312 170.328125 C 145.8125 170.328125 144.683594 170.925781 144.683594 171.660156 C 144.683594 172.394531 143.550781 172.992188 142.167969 172.992188 L 126.285156 172.992188 C 124.90625 172.992188 123.773438 172.394531 123.773438 171.660156 C 123.773438 170.925781 122.640625 170.328125 121.257812 170.328125 L 107.007812 170.328125 C 105.625 170.328125 104.496094 170.925781 104.496094 171.660156 C 104.496094 172.394531 103.363281 172.992188 101.976562 172.992188 L 86.097656 172.992188 C 84.71875 172.992188 83.585938 172.394531 83.585938 171.660156 C 83.585938 170.925781 82.457031 170.328125 81.074219 170.328125 L 73.960938 170.328125 C 72.578125 170.328125 71.449219 171.457031 71.449219 172.84375 L 71.449219 178.738281 L 156.820312 178.738281 " fill-opacity="1" fill-rule="nonzero"/><path fill="#9ebbdd" d="M 156.820312 200.070312 L 71.449219 200.070312 L 71.449219 187.308594 L 156.820312 187.308594 L 156.820312 200.070312 " fill-opacity="1" fill-rule="nonzero"/><path fill="#344d79" d="M 158.292969 209.023438 L 157.296875 209.023438 L 157.296875 199.371094 L 71.152344 199.371094 L 71.152344 207.773438 L 69.652344 207.773438 C 69.472656 207.773438 69.324219 207.921875 69.324219 208.109375 L 69.324219 241.234375 C 69.324219 241.417969 69.472656 241.570312 69.652344 241.570312 L 71.152344 241.570312 L 71.152344 249.972656 L 157.296875 249.972656 L 157.296875 240.316406 L 158.292969 240.316406 C 158.476562 240.316406 158.625 240.167969 158.625 239.984375 L 158.625 209.355469 C 158.625 209.171875 158.476562 209.023438 158.292969 209.023438 " fill-opacity="1" fill-rule="nonzero"/><path fill="#4f6b9c" d="M 82.484375 200.992188 L 82.484375 205.691406 C 82.484375 205.875 82.632812 206.027344 82.820312 206.027344 L 85.621094 206.027344 C 85.808594 206.027344 85.957031 205.875 85.957031 205.691406 L 85.957031 200.992188 L 82.484375 200.992188 " fill-opacity="1" fill-rule="nonzero"/><path fill="#1b3050" d="M 83.074219 200.992188 L 83.074219 205.046875 C 83.074219 205.199219 83.175781 205.324219 83.296875 205.324219 L 85.144531 205.324219 C 85.265625 205.324219 85.363281 205.199219 85.363281 205.046875 L 85.363281 200.992188 L 83.074219 200.992188 " fill-opacity="1" fill-rule="nonzero"/><path fill="#4f6b9c" d="M 93.511719 200.992188 L 93.511719 205.691406 C 93.511719 205.875 93.660156 206.027344 93.84375 206.027344 L 96.648438 206.027344 C 96.832031 206.027344 96.984375 205.875 96.984375 205.691406 L 96.984375 200.992188 L 93.511719 200.992188 " fill-opacity="1" fill-rule="nonzero"/><path fill="#1b3050" d="M 94.097656 200.992188 L 94.097656 205.046875 C 94.097656 205.199219 94.203125 205.324219 94.316406 205.324219 L 96.171875 205.324219 C 96.296875 205.324219 96.390625 205.199219 96.390625 205.046875 L 96.390625 200.992188 L 94.097656 200.992188 " fill-opacity="1" fill-rule="nonzero"/><path fill="#4f6b9c" d="M 104.535156 200.992188 L 104.535156 205.691406 C 104.535156 205.875 104.683594 206.027344 104.867188 206.027344 L 107.679688 206.027344 C 107.859375 206.027344 108.007812 205.875 108.007812 205.691406 L 108.007812 200.992188 L 104.535156 200.992188 " fill-opacity="1" fill-rule="nonzero"/><path fill="#1b3050" d="M 105.125 200.992188 L 105.125 205.046875 C 105.125 205.199219 105.222656 205.324219 105.347656 205.324219 L 107.195312 205.324219 C 107.316406 205.324219 107.414062 205.199219 107.414062 205.046875 L 107.414062 200.992188 L 105.125 200.992188 " fill-opacity="1" fill-rule="nonzero"/><path fill="#4f6b9c" d="M 120.257812 200.992188 L 120.257812 205.691406 C 120.257812 205.875 120.410156 206.027344 120.59375 206.027344 L 123.402344 206.027344 C 123.585938 206.027344 123.730469 205.875 123.730469 205.691406 L 123.730469 200.992188 L 120.257812 200.992188 " fill-opacity="1" fill-rule="nonzero"/><path fill="#1b3050" d="M 120.851562 200.992188 L 120.851562 205.046875 C 120.851562 205.199219 120.949219 205.324219 121.070312 205.324219 L 122.917969 205.324219 C 123.042969 205.324219 123.140625 205.199219 123.140625 205.046875 L 123.140625 200.992188 L 120.851562 200.992188 " fill-opacity="1" fill-rule="nonzero"/><path fill="#4f6b9c" d="M 131.285156 200.992188 L 131.285156 205.691406 C 131.285156 205.875 131.4375 206.027344 131.621094 206.027344 L 134.429688 206.027344 C 134.609375 206.027344 134.757812 205.875 134.757812 205.691406 L 134.757812 200.992188 L 131.285156 200.992188 " fill-opacity="1" fill-rule="nonzero"/><path fill="#1b3050" d="M 131.878906 200.992188 L 131.878906 205.046875 C 131.878906 205.199219 131.976562 205.324219 132.097656 205.324219 L 133.949219 205.324219 C 134.070312 205.324219 134.167969 205.199219 134.167969 205.046875 L 134.167969 200.992188 L 131.878906 200.992188 " fill-opacity="1" fill-rule="nonzero"/><path fill="#4f6b9c" d="M 142.3125 200.992188 L 142.3125 205.691406 C 142.3125 205.875 142.464844 206.027344 142.644531 206.027344 L 145.449219 206.027344 C 145.636719 206.027344 145.785156 205.875 145.785156 205.691406 L 145.785156 200.992188 L 142.3125 200.992188 " fill-opacity="1" fill-rule="nonzero"/><path fill="#1b3050" d="M 142.90625 200.992188 L 142.90625 205.046875 C 142.90625 205.199219 143.003906 205.324219 143.125 205.324219 L 144.972656 205.324219 C 145.097656 205.324219 145.191406 205.199219 145.191406 205.046875 L 145.191406 200.992188 L 142.90625 200.992188 " fill-opacity="1" fill-rule="nonzero"/><path fill="#4f6b9c" d="M 145.265625 249.972656 L 145.265625 245.269531 C 145.265625 245.09375 145.121094 244.945312 144.933594 244.945312 L 142.128906 244.945312 C 141.945312 244.945312 141.792969 245.09375 141.792969 245.269531 L 141.792969 249.972656 L 145.265625 249.972656 " fill-opacity="1" fill-rule="nonzero"/><path fill="#1b3050" d="M 144.675781 249.972656 L 144.675781 245.917969 C 144.675781 245.769531 144.578125 245.640625 144.457031 245.640625 L 142.605469 245.640625 C 142.484375 245.640625 142.386719 245.769531 142.386719 245.917969 L 142.386719 249.972656 L 144.675781 249.972656 " fill-opacity="1" fill-rule="nonzero"/><path fill="#4f6b9c" d="M 134.246094 249.972656 L 134.246094 245.269531 C 134.246094 245.09375 134.09375 244.945312 133.910156 244.945312 L 131.101562 244.945312 C 130.917969 244.945312 130.773438 245.09375 130.773438 245.269531 L 130.773438 249.972656 L 134.246094 249.972656 " fill-opacity="1" fill-rule="nonzero"/><path fill="#1b3050" d="M 133.652344 249.972656 L 133.652344 245.917969 C 133.652344 245.769531 133.554688 245.640625 133.433594 245.640625 L 131.578125 245.640625 C 131.460938 245.640625 131.359375 245.769531 131.359375 245.917969 L 131.359375 249.972656 L 133.652344 249.972656 " fill-opacity="1" fill-rule="nonzero"/><path fill="#4f6b9c" d="M 107.492188 249.972656 L 107.492188 245.269531 C 107.492188 245.09375 107.34375 244.945312 107.15625 244.945312 L 104.351562 244.945312 C 104.164062 244.945312 104.019531 245.09375 104.019531 245.269531 L 104.019531 249.972656 L 107.492188 249.972656 " fill-opacity="1" fill-rule="nonzero"/><path fill="#1b3050" d="M 106.902344 249.972656 L 106.902344 245.917969 C 106.902344 245.769531 106.804688 245.640625 106.679688 245.640625 L 104.832031 245.640625 C 104.710938 245.640625 104.609375 245.769531 104.609375 245.917969 L 104.609375 249.972656 L 106.902344 249.972656 " fill-opacity="1" fill-rule="nonzero"/><path fill="#4f6b9c" d="M 120.601562 249.972656 L 120.601562 245.269531 C 120.601562 245.09375 120.457031 244.945312 120.273438 244.945312 L 117.464844 244.945312 C 117.28125 244.945312 117.132812 245.09375 117.132812 245.269531 L 117.132812 249.972656 L 120.601562 249.972656 " fill-opacity="1" fill-rule="nonzero"/><path fill="#1b3050" d="M 120.011719 249.972656 L 120.011719 245.917969 C 120.011719 245.769531 119.914062 245.640625 119.792969 245.640625 L 117.941406 245.640625 C 117.820312 245.640625 117.722656 245.769531 117.722656 245.917969 L 117.722656 249.972656 L 120.011719 249.972656 " fill-opacity="1" fill-rule="nonzero"/><path fill="#4f6b9c" d="M 96.464844 249.972656 L 96.464844 245.269531 C 96.464844 245.09375 96.316406 244.945312 96.136719 244.945312 L 93.328125 244.945312 C 93.144531 244.945312 92.992188 245.09375 92.992188 245.269531 L 92.992188 249.972656 L 96.464844 249.972656 " fill-opacity="1" fill-rule="nonzero"/><path fill="#1b3050" d="M 95.871094 249.972656 L 95.871094 245.917969 C 95.871094 245.769531 95.773438 245.640625 95.652344 245.640625 L 93.804688 245.640625 C 93.679688 245.640625 93.582031 245.769531 93.582031 245.917969 L 93.582031 249.972656 L 95.871094 249.972656 " fill-opacity="1" fill-rule="nonzero"/><path fill="#4f6b9c" d="M 85.4375 249.972656 L 85.4375 245.269531 C 85.4375 245.09375 85.292969 244.945312 85.105469 244.945312 L 82.300781 244.945312 C 82.117188 244.945312 81.964844 245.09375 81.964844 245.269531 L 81.964844 249.972656 L 85.4375 249.972656 " fill-opacity="1" fill-rule="nonzero"/><path fill="#1b3050" d="M 84.847656 249.972656 L 84.847656 245.917969 C 84.847656 245.769531 84.746094 245.640625 84.628906 245.640625 L 82.777344 245.640625 C 82.65625 245.640625 82.554688 245.769531 82.554688 245.917969 L 82.554688 249.972656 L 84.847656 249.972656 " fill-opacity="1" fill-rule="nonzero"/><path fill="#6582b3" d="M 157.925781 201.511719 C 157.925781 201.695312 157.78125 201.847656 157.597656 201.847656 L 70.117188 201.847656 C 69.933594 201.847656 69.789062 201.695312 69.789062 201.511719 L 69.789062 198.628906 C 69.789062 198.445312 69.933594 198.292969 70.117188 198.292969 L 157.597656 198.292969 C 157.78125 198.292969 157.925781 198.445312 157.925781 198.628906 L 157.925781 201.511719 " fill-opacity="1" fill-rule="nonzero"/><path fill="#96b1cf" d="M 157.925781 199.378906 L 157.925781 198.628906 C 157.925781 198.445312 157.78125 198.292969 157.597656 198.292969 L 70.117188 198.292969 C 69.933594 198.292969 69.789062 198.445312 69.789062 198.628906 L 69.789062 199.378906 L 157.925781 199.378906 " fill-opacity="1" fill-rule="nonzero"/><path fill="#6582b3" d="M 158.203125 252.5625 C 158.203125 252.746094 158.054688 252.894531 157.875 252.894531 L 70.394531 252.894531 C 70.210938 252.894531 70.066406 252.746094 70.066406 252.5625 L 70.066406 249.679688 C 70.066406 249.496094 70.210938 249.34375 70.394531 249.34375 L 157.875 249.34375 C 158.054688 249.34375 158.203125 249.496094 158.203125 249.679688 L 158.203125 252.5625 " fill-opacity="1" fill-rule="nonzero"/><path fill="#96b1cf" d="M 158.203125 250.429688 L 158.203125 249.679688 C 158.203125 249.496094 158.054688 249.34375 157.875 249.34375 L 70.394531 249.34375 C 70.210938 249.34375 70.066406 249.496094 70.066406 249.679688 L 70.066406 250.429688 L 158.203125 250.429688 " fill-opacity="1" fill-rule="nonzero"/><path fill="#c3daea" d="M 85.957031 196.8125 C 85.957031 197 85.808594 197.148438 85.621094 197.148438 L 82.820312 197.148438 C 82.632812 197.148438 82.484375 197 82.484375 196.8125 L 82.484375 189.117188 C 82.484375 188.933594 82.632812 188.789062 82.820312 188.789062 L 85.621094 188.789062 C 85.808594 188.789062 85.957031 188.933594 85.957031 189.117188 L 85.957031 196.8125 " fill-opacity="1" fill-rule="nonzero"/><path fill="#83a4c5" d="M 85.363281 196.167969 C 85.363281 196.320312 85.265625 196.445312 85.144531 196.445312 L 83.296875 196.445312 C 83.175781 196.445312 83.074219 196.320312 83.074219 196.167969 L 83.074219 189.765625 C 83.074219 189.613281 83.175781 189.488281 83.296875 189.488281 L 85.144531 189.488281 C 85.265625 189.488281 85.363281 189.613281 85.363281 189.765625 L 85.363281 196.167969 " fill-opacity="1" fill-rule="nonzero"/><path fill="#c3daea" d="M 96.984375 196.8125 C 96.984375 197 96.832031 197.148438 96.648438 197.148438 L 93.84375 197.148438 C 93.660156 197.148438 93.511719 197 93.511719 196.8125 L 93.511719 189.117188 C 93.511719 188.933594 93.660156 188.789062 93.84375 188.789062 L 96.648438 188.789062 C 96.832031 188.789062 96.984375 188.933594 96.984375 189.117188 L 96.984375 196.8125 " fill-opacity="1" fill-rule="nonzero"/><path fill="#83a4c5" d="M 96.390625 196.167969 C 96.390625 196.320312 96.296875 196.445312 96.171875 196.445312 L 94.316406 196.445312 C 94.203125 196.445312 94.097656 196.320312 94.097656 196.167969 L 94.097656 189.765625 C 94.097656 189.613281 94.203125 189.488281 94.316406 189.488281 L 96.171875 189.488281 C 96.296875 189.488281 96.390625 189.613281 96.390625 189.765625 L 96.390625 196.167969 " fill-opacity="1" fill-rule="nonzero"/><path fill="#c3daea" d="M 108.007812 196.8125 C 108.007812 197 107.859375 197.148438 107.679688 197.148438 L 104.867188 197.148438 C 104.683594 197.148438 104.535156 197 104.535156 196.8125 L 104.535156 189.117188 C 104.535156 188.933594 104.683594 188.789062 104.867188 188.789062 L 107.679688 188.789062 C 107.859375 188.789062 108.007812 188.933594 108.007812 189.117188 L 108.007812 196.8125 " fill-opacity="1" fill-rule="nonzero"/><path fill="#83a4c5" d="M 107.414062 196.167969 C 107.414062 196.320312 107.316406 196.445312 107.195312 196.445312 L 105.347656 196.445312 C 105.222656 196.445312 105.125 196.320312 105.125 196.167969 L 105.125 189.765625 C 105.125 189.613281 105.222656 189.488281 105.347656 189.488281 L 107.195312 189.488281 C 107.316406 189.488281 107.414062 189.613281 107.414062 189.765625 L 107.414062 196.167969 " fill-opacity="1" fill-rule="nonzero"/><path fill="#c3daea" d="M 123.730469 196.8125 C 123.730469 197 123.585938 197.148438 123.402344 197.148438 L 120.59375 197.148438 C 120.410156 197.148438 120.257812 197 120.257812 196.8125 L 120.257812 189.117188 C 120.257812 188.933594 120.410156 188.789062 120.59375 188.789062 L 123.402344 188.789062 C 123.585938 188.789062 123.730469 188.933594 123.730469 189.117188 L 123.730469 196.8125 " fill-opacity="1" fill-rule="nonzero"/><path fill="#83a4c5" d="M 123.140625 196.167969 C 123.140625 196.320312 123.042969 196.445312 122.917969 196.445312 L 121.070312 196.445312 C 120.949219 196.445312 120.851562 196.320312 120.851562 196.167969 L 120.851562 189.765625 C 120.851562 189.613281 120.949219 189.488281 121.070312 189.488281 L 122.917969 189.488281 C 123.042969 189.488281 123.140625 189.613281 123.140625 189.765625 L 123.140625 196.167969 " fill-opacity="1" fill-rule="nonzero"/><path fill="#c3daea" d="M 134.757812 196.8125 C 134.757812 197 134.609375 197.148438 134.429688 197.148438 L 131.621094 197.148438 C 131.4375 197.148438 131.285156 197 131.285156 196.8125 L 131.285156 189.117188 C 131.285156 188.933594 131.4375 188.789062 131.621094 188.789062 L 134.429688 188.789062 C 134.609375 188.789062 134.757812 188.933594 134.757812 189.117188 L 134.757812 196.8125 " fill-opacity="1" fill-rule="nonzero"/><path fill="#83a4c5" d="M 134.167969 196.167969 C 134.167969 196.320312 134.070312 196.445312 133.949219 196.445312 L 132.097656 196.445312 C 131.976562 196.445312 131.878906 196.320312 131.878906 196.167969 L 131.878906 189.765625 C 131.878906 189.613281 131.976562 189.488281 132.097656 189.488281 L 133.949219 189.488281 C 134.070312 189.488281 134.167969 189.613281 134.167969 189.765625 L 134.167969 196.167969 " fill-opacity="1" fill-rule="nonzero"/><path fill="#c3daea" d="M 145.785156 196.8125 C 145.785156 197 145.636719 197.148438 145.449219 197.148438 L 142.644531 197.148438 C 142.464844 197.148438 142.3125 197 142.3125 196.8125 L 142.3125 189.117188 C 142.3125 188.933594 142.464844 188.789062 142.644531 188.789062 L 145.449219 188.789062 C 145.636719 188.789062 145.785156 188.933594 145.785156 189.117188 L 145.785156 196.8125 " fill-opacity="1" fill-rule="nonzero"/><path fill="#83a4c5" d="M 145.191406 196.167969 C 145.191406 196.320312 145.097656 196.445312 144.972656 196.445312 L 143.125 196.445312 C 143.003906 196.445312 142.90625 196.320312 142.90625 196.167969 L 142.90625 189.765625 C 142.90625 189.613281 143.003906 189.488281 143.125 189.488281 L 144.972656 189.488281 C 145.097656 189.488281 145.191406 189.613281 145.191406 189.765625 L 145.191406 196.167969 " fill-opacity="1" fill-rule="nonzero"/><path fill="#7195ba" d="M 80.277344 195.214844 C 80.277344 195.398438 80.125 195.546875 79.945312 195.546875 L 74.921875 195.546875 C 74.738281 195.546875 74.589844 195.398438 74.589844 195.214844 L 74.589844 191.738281 C 74.589844 191.554688 74.738281 191.402344 74.921875 191.402344 L 79.945312 191.402344 C 80.125 191.402344 80.277344 191.554688 80.277344 191.738281 L 80.277344 195.214844 " fill-opacity="1" fill-rule="nonzero"/><path fill="#c3daea" d="M 80.277344 194.964844 C 80.277344 195.148438 80.125 195.296875 79.945312 195.296875 L 74.921875 195.296875 C 74.738281 195.296875 74.589844 195.148438 74.589844 194.964844 L 74.589844 191.488281 C 74.589844 191.304688 74.738281 191.152344 74.921875 191.152344 L 79.945312 191.152344 C 80.125 191.152344 80.277344 191.304688 80.277344 191.488281 L 80.277344 194.964844 " fill-opacity="1" fill-rule="nonzero"/><path fill="#e2eff7" d="M 79.835938 194.691406 C 79.835938 194.847656 79.707031 194.976562 79.550781 194.976562 L 75.3125 194.976562 C 75.15625 194.976562 75.027344 194.847656 75.027344 194.691406 L 75.027344 191.761719 C 75.027344 191.605469 75.15625 191.472656 75.3125 191.472656 L 79.550781 191.472656 C 79.707031 191.472656 79.835938 191.605469 79.835938 191.761719 L 79.835938 194.691406 " fill-opacity="1" fill-rule="nonzero"/><path fill="#2b4150" d="M 76.917969 193.21875 C 76.917969 193.515625 76.671875 193.761719 76.367188 193.761719 C 76.070312 193.761719 75.824219 193.515625 75.824219 193.21875 C 75.824219 192.914062 76.070312 192.671875 76.367188 192.671875 C 76.671875 192.671875 76.917969 192.914062 76.917969 193.21875 " fill-opacity="1" fill-rule="nonzero"/><path fill="#2b4150" d="M 79.058594 193.226562 C 79.058594 193.527344 78.8125 193.773438 78.515625 193.773438 C 78.210938 193.773438 77.96875 193.527344 77.96875 193.226562 C 77.96875 192.921875 78.210938 192.679688 78.515625 192.679688 C 78.8125 192.679688 79.058594 192.921875 79.058594 193.226562 " fill-opacity="1" fill-rule="nonzero"/><path fill="#5a7c95" d="M 76.363281 192.96875 C 76.617188 192.96875 76.828125 193.140625 76.886719 193.378906 L 76.917969 193.21875 C 76.917969 192.914062 76.671875 192.671875 76.367188 192.671875 C 76.070312 192.671875 75.824219 192.914062 75.824219 193.21875 L 75.84375 193.351562 C 75.914062 193.128906 76.117188 192.96875 76.363281 192.96875 " fill-opacity="1" fill-rule="nonzero"/><path fill="#5a7c95" d="M 78.507812 192.976562 C 78.761719 192.976562 78.96875 193.152344 79.027344 193.386719 L 79.058594 193.226562 C 79.058594 192.921875 78.8125 192.679688 78.515625 192.679688 C 78.210938 192.679688 77.96875 192.921875 77.96875 193.226562 L 77.988281 193.359375 C 78.054688 193.136719 78.261719 192.976562 78.507812 192.976562 " fill-opacity="1" fill-rule="nonzero"/><path fill="#7195ba" d="M 92.59375 195.214844 C 92.59375 195.398438 92.449219 195.546875 92.261719 195.546875 L 87.242188 195.546875 C 87.054688 195.546875 86.90625 195.398438 86.90625 195.214844 L 86.90625 191.738281 C 86.90625 191.554688 87.054688 191.402344 87.242188 191.402344 L 92.261719 191.402344 C 92.449219 191.402344 92.59375 191.554688 92.59375 191.738281 L 92.59375 195.214844 " fill-opacity="1" fill-rule="nonzero"/><path fill="#c3daea" d="M 92.59375 194.964844 C 92.59375 195.148438 92.449219 195.296875 92.261719 195.296875 L 87.242188 195.296875 C 87.054688 195.296875 86.90625 195.148438 86.90625 194.964844 L 86.90625 191.488281 C 86.90625 191.304688 87.054688 191.152344 87.242188 191.152344 L 92.261719 191.152344 C 92.449219 191.152344 92.59375 191.304688 92.59375 191.488281 L 92.59375 194.964844 " fill-opacity="1" fill-rule="nonzero"/><path fill="#e2eff7" d="M 92.152344 194.691406 C 92.152344 194.847656 92.027344 194.976562 91.871094 194.976562 L 87.628906 194.976562 C 87.480469 194.976562 87.347656 194.847656 87.347656 194.691406 L 87.347656 191.761719 C 87.347656 191.605469 87.480469 191.472656 87.628906 191.472656 L 91.871094 191.472656 C 92.027344 191.472656 92.152344 191.605469 92.152344 191.761719 L 92.152344 194.691406 " fill-opacity="1" fill-rule="nonzero"/><path fill="#2b4150" d="M 89.234375 193.21875 C 89.234375 193.515625 88.992188 193.761719 88.6875 193.761719 C 88.390625 193.761719 88.144531 193.515625 88.144531 193.21875 C 88.144531 192.914062 88.390625 192.671875 88.6875 192.671875 C 88.992188 192.671875 89.234375 192.914062 89.234375 193.21875 " fill-opacity="1" fill-rule="nonzero"/><path fill="#2b4150" d="M 91.375 193.226562 C 91.375 193.527344 91.136719 193.773438 90.832031 193.773438 C 90.53125 193.773438 90.285156 193.527344 90.285156 193.226562 C 90.285156 192.921875 90.53125 192.679688 90.832031 192.679688 C 91.136719 192.679688 91.375 192.921875 91.375 193.226562 " fill-opacity="1" fill-rule="nonzero"/><path fill="#5a7c95" d="M 88.679688 192.96875 C 88.933594 192.96875 89.148438 193.140625 89.207031 193.378906 L 89.234375 193.21875 C 89.234375 192.914062 88.992188 192.671875 88.6875 192.671875 C 88.390625 192.671875 88.144531 192.914062 88.144531 193.21875 L 88.160156 193.351562 C 88.234375 193.128906 88.433594 192.96875 88.679688 192.96875 " fill-opacity="1" fill-rule="nonzero"/><path fill="#5a7c95" d="M 90.824219 192.976562 C 91.078125 192.976562 91.292969 193.152344 91.347656 193.386719 L 91.375 193.226562 C 91.375 192.921875 91.136719 192.679688 90.832031 192.679688 C 90.53125 192.679688 90.285156 192.921875 90.285156 193.226562 L 90.304688 193.359375 C 90.375 193.136719 90.578125 192.976562 90.824219 192.976562 " fill-opacity="1" fill-rule="nonzero"/><path fill="#7195ba" d="M 103.550781 195.214844 C 103.550781 195.398438 103.398438 195.546875 103.214844 195.546875 L 98.191406 195.546875 C 98.007812 195.546875 97.859375 195.398438 97.859375 195.214844 L 97.859375 191.738281 C 97.859375 191.554688 98.007812 191.402344 98.191406 191.402344 L 103.214844 191.402344 C 103.398438 191.402344 103.550781 191.554688 103.550781 191.738281 L 103.550781 195.214844 " fill-opacity="1" fill-rule="nonzero"/><path fill="#c3daea" d="M 103.550781 194.964844 C 103.550781 195.148438 103.398438 195.296875 103.214844 195.296875 L 98.191406 195.296875 C 98.007812 195.296875 97.859375 195.148438 97.859375 194.964844 L 97.859375 191.488281 C 97.859375 191.304688 98.007812 191.152344 98.191406 191.152344 L 103.214844 191.152344 C 103.398438 191.152344 103.550781 191.304688 103.550781 191.488281 L 103.550781 194.964844 " fill-opacity="1" fill-rule="nonzero"/><path fill="#e2eff7" d="M 103.109375 194.691406 C 103.109375 194.847656 102.976562 194.976562 102.820312 194.976562 L 98.585938 194.976562 C 98.429688 194.976562 98.300781 194.847656 98.300781 194.691406 L 98.300781 191.761719 C 98.300781 191.605469 98.429688 191.472656 98.585938 191.472656 L 102.820312 191.472656 C 102.976562 191.472656 103.109375 191.605469 103.109375 191.761719 L 103.109375 194.691406 " fill-opacity="1" fill-rule="nonzero"/><path fill="#2b4150" d="M 100.1875 193.21875 C 100.1875 193.515625 99.941406 193.761719 99.640625 193.761719 C 99.339844 193.761719 99.097656 193.515625 99.097656 193.21875 C 99.097656 192.914062 99.339844 192.671875 99.640625 192.671875 C 99.941406 192.671875 100.1875 192.914062 100.1875 193.21875 " fill-opacity="1" fill-rule="nonzero"/><path fill="#2b4150" d="M 102.332031 193.226562 C 102.332031 193.527344 102.085938 193.773438 101.78125 193.773438 C 101.484375 193.773438 101.242188 193.527344 101.242188 193.226562 C 101.242188 192.921875 101.484375 192.679688 101.78125 192.679688 C 102.085938 192.679688 102.332031 192.921875 102.332031 193.226562 " fill-opacity="1" fill-rule="nonzero"/><path fill="#5a7c95" d="M 99.628906 192.96875 C 99.890625 192.96875 100.097656 193.140625 100.15625 193.378906 L 100.1875 193.21875 C 100.1875 192.914062 99.941406 192.671875 99.640625 192.671875 C 99.339844 192.671875 99.097656 192.914062 99.097656 193.21875 L 99.117188 193.351562 C 99.183594 193.128906 99.390625 192.96875 99.628906 192.96875 " fill-opacity="1" fill-rule="nonzero"/><path fill="#5a7c95" d="M 101.777344 192.976562 C 102.027344 192.976562 102.242188 193.152344 102.300781 193.386719 L 102.332031 193.226562 C 102.332031 192.921875 102.085938 192.679688 101.78125 192.679688 C 101.484375 192.679688 101.242188 192.921875 101.242188 193.226562 L 101.257812 193.359375 C 101.328125 193.136719 101.53125 192.976562 101.777344 192.976562 " fill-opacity="1" fill-rule="nonzero"/><path fill="#7195ba" d="M 116.847656 195.214844 C 116.847656 195.398438 116.695312 195.546875 116.511719 195.546875 L 111.492188 195.546875 C 111.304688 195.546875 111.15625 195.398438 111.15625 195.214844 L 111.15625 191.738281 C 111.15625 191.554688 111.304688 191.402344 111.492188 191.402344 L 116.511719 191.402344 C 116.695312 191.402344 116.847656 191.554688 116.847656 191.738281 L 116.847656 195.214844 " fill-opacity="1" fill-rule="nonzero"/><path fill="#c3daea" d="M 116.847656 194.964844 C 116.847656 195.148438 116.695312 195.296875 116.511719 195.296875 L 111.492188 195.296875 C 111.304688 195.296875 111.15625 195.148438 111.15625 194.964844 L 111.15625 191.488281 C 111.15625 191.304688 111.304688 191.152344 111.492188 191.152344 L 116.511719 191.152344 C 116.695312 191.152344 116.847656 191.304688 116.847656 191.488281 L 116.847656 194.964844 " fill-opacity="1" fill-rule="nonzero"/><path fill="#e2eff7" d="M 116.402344 194.691406 C 116.402344 194.847656 116.277344 194.976562 116.121094 194.976562 L 111.878906 194.976562 C 111.726562 194.976562 111.601562 194.847656 111.601562 194.691406 L 111.601562 191.761719 C 111.601562 191.605469 111.726562 191.472656 111.878906 191.472656 L 116.121094 191.472656 C 116.277344 191.472656 116.402344 191.605469 116.402344 191.761719 L 116.402344 194.691406 " fill-opacity="1" fill-rule="nonzero"/><path fill="#2b4150" d="M 113.480469 193.21875 C 113.480469 193.515625 113.242188 193.761719 112.9375 193.761719 C 112.636719 193.761719 112.394531 193.515625 112.394531 193.21875 C 112.394531 192.914062 112.636719 192.671875 112.9375 192.671875 C 113.242188 192.671875 113.480469 192.914062 113.480469 193.21875 " fill-opacity="1" fill-rule="nonzero"/><path fill="#2b4150" d="M 115.625 193.226562 C 115.625 193.527344 115.382812 193.773438 115.082031 193.773438 C 114.78125 193.773438 114.535156 193.527344 114.535156 193.226562 C 114.535156 192.921875 114.78125 192.679688 115.082031 192.679688 C 115.382812 192.679688 115.625 192.921875 115.625 193.226562 " fill-opacity="1" fill-rule="nonzero"/><path fill="#5a7c95" d="M 112.929688 192.96875 C 113.183594 192.96875 113.398438 193.140625 113.457031 193.378906 L 113.480469 193.21875 C 113.480469 192.914062 113.242188 192.671875 112.9375 192.671875 C 112.636719 192.671875 112.394531 192.914062 112.394531 193.21875 L 112.414062 193.351562 C 112.480469 193.128906 112.6875 192.96875 112.929688 192.96875 " fill-opacity="1" fill-rule="nonzero"/><path fill="#5a7c95" d="M 115.070312 192.976562 C 115.324219 192.976562 115.539062 193.152344 115.597656 193.386719 L 115.625 193.226562 C 115.625 192.921875 115.382812 192.679688 115.082031 192.679688 C 114.78125 192.679688 114.535156 192.921875 114.535156 193.226562 L 114.554688 193.359375 C 114.625 193.136719 114.832031 192.976562 115.070312 192.976562 " fill-opacity="1" fill-rule="nonzero"/><path fill="#7195ba" d="M 130.1875 195.214844 C 130.1875 195.398438 130.039062 195.546875 129.855469 195.546875 L 124.828125 195.546875 C 124.648438 195.546875 124.5 195.398438 124.5 195.214844 L 124.5 191.738281 C 124.5 191.554688 124.648438 191.402344 124.828125 191.402344 L 129.855469 191.402344 C 130.039062 191.402344 130.1875 191.554688 130.1875 191.738281 L 130.1875 195.214844 " fill-opacity="1" fill-rule="nonzero"/><path fill="#c3daea" d="M 130.1875 194.964844 C 130.1875 195.148438 130.039062 195.296875 129.855469 195.296875 L 124.828125 195.296875 C 124.648438 195.296875 124.5 195.148438 124.5 194.964844 L 124.5 191.488281 C 124.5 191.304688 124.648438 191.152344 124.828125 191.152344 L 129.855469 191.152344 C 130.039062 191.152344 130.1875 191.304688 130.1875 191.488281 L 130.1875 194.964844 " fill-opacity="1" fill-rule="nonzero"/><path fill="#e2eff7" d="M 129.746094 194.691406 C 129.746094 194.847656 129.621094 194.976562 129.464844 194.976562 L 125.222656 194.976562 C 125.066406 194.976562 124.941406 194.847656 124.941406 194.691406 L 124.941406 191.761719 C 124.941406 191.605469 125.066406 191.472656 125.222656 191.472656 L 129.464844 191.472656 C 129.621094 191.472656 129.746094 191.605469 129.746094 191.761719 L 129.746094 194.691406 " fill-opacity="1" fill-rule="nonzero"/><path fill="#2b4150" d="M 126.824219 193.21875 C 126.824219 193.515625 126.585938 193.761719 126.285156 193.761719 C 125.976562 193.761719 125.734375 193.515625 125.734375 193.21875 C 125.734375 192.914062 125.976562 192.671875 126.285156 192.671875 C 126.585938 192.671875 126.824219 192.914062 126.824219 193.21875 " fill-opacity="1" fill-rule="nonzero"/><path fill="#2b4150" d="M 128.96875 193.226562 C 128.96875 193.527344 128.726562 193.773438 128.421875 193.773438 C 128.125 193.773438 127.878906 193.527344 127.878906 193.226562 C 127.878906 192.921875 128.125 192.679688 128.421875 192.679688 C 128.726562 192.679688 128.96875 192.921875 128.96875 193.226562 " fill-opacity="1" fill-rule="nonzero"/><path fill="#5a7c95" d="M 126.273438 192.96875 C 126.527344 192.96875 126.742188 193.140625 126.796875 193.378906 L 126.824219 193.21875 C 126.824219 192.914062 126.585938 192.671875 126.285156 192.671875 C 125.976562 192.671875 125.734375 192.914062 125.734375 193.21875 L 125.753906 193.351562 C 125.824219 193.128906 126.027344 192.96875 126.273438 192.96875 " fill-opacity="1" fill-rule="nonzero"/><path fill="#5a7c95" d="M 128.414062 192.976562 C 128.667969 192.976562 128.882812 193.152344 128.941406 193.386719 L 128.96875 193.226562 C 128.96875 192.921875 128.726562 192.679688 128.421875 192.679688 C 128.125 192.679688 127.878906 192.921875 127.878906 193.226562 L 127.898438 193.359375 C 127.96875 193.136719 128.167969 192.976562 128.414062 192.976562 " fill-opacity="1" fill-rule="nonzero"/><path fill="#7195ba" d="M 141.25 195.214844 C 141.25 195.398438 141.101562 195.546875 140.917969 195.546875 L 135.894531 195.546875 C 135.714844 195.546875 135.5625 195.398438 135.5625 195.214844 L 135.5625 191.738281 C 135.5625 191.554688 135.714844 191.402344 135.894531 191.402344 L 140.917969 191.402344 C 141.101562 191.402344 141.25 191.554688 141.25 191.738281 L 141.25 195.214844 " fill-opacity="1" fill-rule="nonzero"/><path fill="#c3daea" d="M 141.25 194.964844 C 141.25 195.148438 141.101562 195.296875 140.917969 195.296875 L 135.894531 195.296875 C 135.714844 195.296875 135.5625 195.148438 135.5625 194.964844 L 135.5625 191.488281 C 135.5625 191.304688 135.714844 191.152344 135.894531 191.152344 L 140.917969 191.152344 C 141.101562 191.152344 141.25 191.304688 141.25 191.488281 L 141.25 194.964844 " fill-opacity="1" fill-rule="nonzero"/><path fill="#e2eff7" d="M 140.808594 194.691406 C 140.808594 194.847656 140.683594 194.976562 140.53125 194.976562 L 136.289062 194.976562 C 136.132812 194.976562 136.007812 194.847656 136.007812 194.691406 L 136.007812 191.761719 C 136.007812 191.605469 136.132812 191.472656 136.289062 191.472656 L 140.53125 191.472656 C 140.683594 191.472656 140.808594 191.605469 140.808594 191.761719 L 140.808594 194.691406 " fill-opacity="1" fill-rule="nonzero"/><path fill="#2b4150" d="M 137.890625 193.21875 C 137.890625 193.515625 137.644531 193.761719 137.34375 193.761719 C 137.042969 193.761719 136.800781 193.515625 136.800781 193.21875 C 136.800781 192.914062 137.042969 192.671875 137.34375 192.671875 C 137.644531 192.671875 137.890625 192.914062 137.890625 193.21875 " fill-opacity="1" fill-rule="nonzero"/><path fill="#2b4150" d="M 140.03125 193.226562 C 140.03125 193.527344 139.789062 193.773438 139.484375 193.773438 C 139.1875 193.773438 138.941406 193.527344 138.941406 193.226562 C 138.941406 192.921875 139.1875 192.679688 139.484375 192.679688 C 139.789062 192.679688 140.03125 192.921875 140.03125 193.226562 " fill-opacity="1" fill-rule="nonzero"/><path fill="#5a7c95" d="M 137.339844 192.96875 C 137.589844 192.96875 137.800781 193.140625 137.859375 193.378906 L 137.890625 193.21875 C 137.890625 192.914062 137.644531 192.671875 137.34375 192.671875 C 137.042969 192.671875 136.800781 192.914062 136.800781 193.21875 L 136.820312 193.351562 C 136.886719 193.128906 137.09375 192.96875 137.339844 192.96875 " fill-opacity="1" fill-rule="nonzero"/><path fill="#5a7c95" d="M 139.476562 192.976562 C 139.730469 192.976562 139.945312 193.152344 140.003906 193.386719 L 140.03125 193.226562 C 140.03125 192.921875 139.789062 192.679688 139.484375 192.679688 C 139.1875 192.679688 138.941406 192.921875 138.941406 193.226562 L 138.964844 193.359375 C 139.03125 193.136719 139.234375 192.976562 139.476562 192.976562 " fill-opacity="1" fill-rule="nonzero"/><path fill="#7195ba" d="M 152.054688 195.214844 C 152.054688 195.398438 151.90625 195.546875 151.722656 195.546875 L 146.699219 195.546875 C 146.515625 195.546875 146.371094 195.398438 146.371094 195.214844 L 146.371094 191.738281 C 146.371094 191.554688 146.515625 191.402344 146.699219 191.402344 L 151.722656 191.402344 C 151.90625 191.402344 152.054688 191.554688 152.054688 191.738281 L 152.054688 195.214844 " fill-opacity="1" fill-rule="nonzero"/><path fill="#c3daea" d="M 152.054688 194.964844 C 152.054688 195.148438 151.90625 195.296875 151.722656 195.296875 L 146.699219 195.296875 C 146.515625 195.296875 146.371094 195.148438 146.371094 194.964844 L 146.371094 191.488281 C 146.371094 191.304688 146.515625 191.152344 146.699219 191.152344 L 151.722656 191.152344 C 151.90625 191.152344 152.054688 191.304688 152.054688 191.488281 L 152.054688 194.964844 " fill-opacity="1" fill-rule="nonzero"/><path fill="#e2eff7" d="M 151.613281 194.691406 C 151.613281 194.847656 151.484375 194.976562 151.332031 194.976562 L 147.09375 194.976562 C 146.9375 194.976562 146.8125 194.847656 146.8125 194.691406 L 146.8125 191.761719 C 146.8125 191.605469 146.9375 191.472656 147.09375 191.472656 L 151.332031 191.472656 C 151.484375 191.472656 151.613281 191.605469 151.613281 191.761719 L 151.613281 194.691406 " fill-opacity="1" fill-rule="nonzero"/><path fill="#2b4150" d="M 148.695312 193.21875 C 148.695312 193.515625 148.449219 193.761719 148.152344 193.761719 C 147.847656 193.761719 147.601562 193.515625 147.601562 193.21875 C 147.601562 192.914062 147.847656 192.671875 148.152344 192.671875 C 148.449219 192.671875 148.695312 192.914062 148.695312 193.21875 " fill-opacity="1" fill-rule="nonzero"/><path fill="#2b4150" d="M 150.832031 193.226562 C 150.832031 193.527344 150.59375 193.773438 150.292969 193.773438 C 149.988281 193.773438 149.742188 193.527344 149.742188 193.226562 C 149.742188 192.921875 149.988281 192.679688 150.292969 192.679688 C 150.59375 192.679688 150.832031 192.921875 150.832031 193.226562 " fill-opacity="1" fill-rule="nonzero"/><path fill="#5a7c95" d="M 148.140625 192.96875 C 148.390625 192.96875 148.605469 193.140625 148.664062 193.378906 L 148.695312 193.21875 C 148.695312 192.914062 148.449219 192.671875 148.152344 192.671875 C 147.847656 192.671875 147.601562 192.914062 147.601562 193.21875 L 147.625 193.351562 C 147.695312 193.128906 147.894531 192.96875 148.140625 192.96875 " fill-opacity="1" fill-rule="nonzero"/><path fill="#5a7c95" d="M 150.285156 192.976562 C 150.535156 192.976562 150.75 193.152344 150.8125 193.386719 L 150.832031 193.226562 C 150.832031 192.921875 150.59375 192.679688 150.292969 192.679688 C 149.988281 192.679688 149.742188 192.921875 149.742188 193.226562 L 149.765625 193.359375 C 149.832031 193.136719 150.039062 192.976562 150.285156 192.976562 " fill-opacity="1" fill-rule="nonzero"/><path fill="#c2dbe9" d="M 157.375 187.566406 C 157.375 187.75 157.226562 187.898438 157.042969 187.898438 L 71.117188 187.898438 C 70.929688 187.898438 70.785156 187.75 70.785156 187.566406 L 70.785156 185.53125 C 70.785156 185.347656 70.929688 185.195312 71.117188 185.195312 L 157.042969 185.195312 C 157.226562 185.195312 157.375 185.347656 157.375 185.53125 L 157.375 187.566406 " fill-opacity="1" fill-rule="nonzero"/><path fill="#5d78a6" d="M 73.59375 237.554688 L 73.59375 238.519531 C 73.59375 238.703125 73.742188 238.851562 73.925781 238.851562 L 85.363281 238.851562 C 85.546875 238.851562 85.699219 238.703125 85.699219 238.519531 L 85.699219 237.554688 L 73.59375 237.554688 " fill-opacity="1" fill-rule="nonzero"/><path fill="#263e63" d="M 85.628906 237.554688 L 73.664062 237.554688 C 73.617188 237.496094 73.59375 237.429688 73.59375 237.351562 L 73.59375 211.101562 C 73.59375 210.917969 73.742188 210.769531 73.925781 210.769531 L 85.363281 210.769531 C 85.546875 210.769531 85.699219 210.917969 85.699219 211.101562 C 85.699219 210.917969 85.546875 210.769531 85.363281 210.769531 L 73.925781 210.769531 C 73.742188 210.769531 73.59375 210.917969 73.59375 211.101562 L 73.59375 213.105469 C 73.59375 212.914062 73.742188 212.769531 73.925781 212.769531 L 85.363281 212.769531 C 85.546875 212.769531 85.699219 212.914062 85.699219 213.105469 L 85.699219 237.351562 C 85.699219 237.429688 85.671875 237.496094 85.628906 237.554688 " fill-opacity="1" fill-rule="nonzero"/><path fill="#364d75" d="M 85.363281 237.683594 L 73.925781 237.683594 C 73.820312 237.683594 73.71875 237.632812 73.664062 237.554688 L 85.628906 237.554688 C 85.566406 237.632812 85.472656 237.683594 85.363281 237.683594 " fill-opacity="1" fill-rule="nonzero"/><path fill="#203759" d="M 85.699219 213.105469 C 85.699219 212.914062 85.546875 212.769531 85.363281 212.769531 L 73.925781 212.769531 C 73.742188 212.769531 73.59375 212.914062 73.59375 213.105469 L 73.59375 211.101562 C 73.59375 210.917969 73.742188 210.769531 73.925781 210.769531 L 85.363281 210.769531 C 85.546875 210.769531 85.699219 210.917969 85.699219 211.101562 L 85.699219 213.105469 " fill-opacity="1" fill-rule="nonzero"/><path fill="#5d78a6" d="M 108.132812 237.980469 L 108.132812 238.945312 C 108.132812 239.128906 108.503906 239.273438 108.960938 239.273438 L 142.078125 239.273438 C 142.535156 239.273438 142.90625 239.128906 142.90625 238.945312 L 142.90625 237.980469 L 108.132812 237.980469 " fill-opacity="1" fill-rule="nonzero"/><path fill="#263e63" d="M 142.734375 237.980469 L 108.300781 237.980469 C 108.195312 237.921875 108.132812 237.855469 108.132812 237.777344 L 108.132812 211.53125 C 108.132812 211.347656 108.503906 211.195312 108.960938 211.195312 L 142.078125 211.195312 C 142.535156 211.195312 142.90625 211.347656 142.90625 211.53125 C 142.90625 211.347656 142.535156 211.195312 142.078125 211.195312 L 108.960938 211.195312 C 108.503906 211.195312 108.132812 211.347656 108.132812 211.53125 L 108.132812 213.523438 C 108.132812 213.339844 108.503906 213.191406 108.960938 213.191406 L 142.078125 213.191406 C 142.535156 213.191406 142.90625 213.339844 142.90625 213.523438 L 142.90625 237.777344 C 142.90625 237.855469 142.84375 237.921875 142.734375 237.980469 " fill-opacity="1" fill-rule="nonzero"/><path fill="#364d75" d="M 142.078125 238.109375 L 108.960938 238.109375 C 108.691406 238.109375 108.453125 238.058594 108.300781 237.980469 L 142.734375 237.980469 C 142.589844 238.058594 142.347656 238.109375 142.078125 238.109375 " fill-opacity="1" fill-rule="nonzero"/><path fill="#203759" d="M 142.90625 213.523438 C 142.90625 213.339844 142.535156 213.191406 142.078125 213.191406 L 108.960938 213.191406 C 108.503906 213.191406 108.132812 213.339844 108.132812 213.523438 L 108.132812 211.53125 C 108.132812 211.347656 108.503906 211.195312 108.960938 211.195312 L 142.078125 211.195312 C 142.535156 211.195312 142.90625 211.347656 142.90625 211.53125 L 142.90625 213.523438 " fill-opacity="1" fill-rule="nonzero"/><path fill="#263e63" d="M 105.144531 232.457031 L 92.492188 232.457031 C 92.027344 232.457031 91.652344 232.082031 91.652344 231.617188 L 91.652344 222.859375 C 91.652344 222.398438 92.027344 222.023438 92.492188 222.023438 L 105.144531 222.023438 C 105.609375 222.023438 105.984375 222.398438 105.984375 222.859375 L 105.984375 231.617188 C 105.984375 232.082031 105.609375 232.457031 105.144531 232.457031 " fill-opacity="1" fill-rule="nonzero"/><path fill="#5d78a6" d="M 105.984375 230.992188 C 105.984375 231.453125 105.609375 231.828125 105.144531 231.828125 L 92.492188 231.828125 C 92.027344 231.828125 91.652344 231.453125 91.652344 230.992188 L 91.652344 222.234375 C 91.652344 221.769531 92.027344 221.390625 92.492188 221.390625 L 105.144531 221.390625 C 105.609375 221.390625 105.984375 221.769531 105.984375 222.234375 L 105.984375 230.992188 " fill-opacity="1" fill-rule="nonzero"/><path fill="#e2eff7" d="M 104.867188 230.308594 C 104.867188 230.699219 104.550781 231.019531 104.15625 231.019531 L 93.480469 231.019531 C 93.085938 231.019531 92.773438 230.699219 92.773438 230.308594 L 92.773438 222.914062 C 92.773438 222.523438 93.085938 222.207031 93.480469 222.207031 L 104.15625 222.207031 C 104.550781 222.207031 104.867188 222.523438 104.867188 222.914062 L 104.867188 230.308594 " fill-opacity="1" fill-rule="nonzero"/><path fill="#2b4150" d="M 97.515625 226.585938 C 97.515625 227.347656 96.902344 227.964844 96.144531 227.964844 C 95.386719 227.964844 94.769531 227.347656 94.769531 226.585938 C 94.769531 225.828125 95.386719 225.214844 96.144531 225.214844 C 96.902344 225.214844 97.515625 225.828125 97.515625 226.585938 " fill-opacity="1" fill-rule="nonzero"/><path fill="#2b4150" d="M 102.910156 226.609375 C 102.910156 227.371094 102.300781 227.988281 101.539062 227.988281 C 100.78125 227.988281 100.164062 227.371094 100.164062 226.609375 C 100.164062 225.851562 100.78125 225.238281 101.539062 225.238281 C 102.300781 225.238281 102.910156 225.851562 102.910156 226.609375 " fill-opacity="1" fill-rule="nonzero"/><path fill="#5a7c95" d="M 96.117188 225.957031 C 96.765625 225.957031 97.296875 226.402344 97.445312 227 C 97.488281 226.867188 97.515625 226.734375 97.515625 226.585938 C 97.515625 225.828125 96.902344 225.214844 96.144531 225.214844 C 95.386719 225.214844 94.769531 225.828125 94.769531 226.585938 C 94.769531 226.703125 94.785156 226.816406 94.816406 226.921875 C 94.992188 226.367188 95.503906 225.957031 96.117188 225.957031 " fill-opacity="1" fill-rule="nonzero"/><path fill="#5a7c95" d="M 101.519531 225.980469 C 102.15625 225.980469 102.691406 226.421875 102.84375 227.019531 C 102.882812 226.890625 102.910156 226.753906 102.910156 226.609375 C 102.910156 225.851562 102.300781 225.238281 101.539062 225.238281 C 100.78125 225.238281 100.164062 225.851562 100.164062 226.609375 C 100.164062 226.726562 100.1875 226.835938 100.210938 226.945312 C 100.390625 226.390625 100.902344 225.980469 101.519531 225.980469 " fill-opacity="1" fill-rule="nonzero"/><path fill="#496696" d="M 156.820312 233.796875 C 156.820312 233.980469 156.671875 234.128906 156.488281 234.128906 L 146.113281 234.128906 C 145.933594 234.128906 145.785156 233.980469 145.785156 233.796875 L 145.785156 215.320312 C 145.785156 215.136719 145.933594 214.984375 146.113281 214.984375 L 156.488281 214.984375 C 156.671875 214.984375 156.820312 215.136719 156.820312 215.320312 L 156.820312 233.796875 " fill-opacity="1" fill-rule="nonzero"/><path fill="#263e63" d="M 156.488281 235.296875 L 146.113281 235.296875 C 145.933594 235.296875 145.785156 235.144531 145.785156 234.960938 L 145.785156 233.796875 C 145.785156 233.980469 145.933594 234.128906 146.113281 234.128906 L 156.488281 234.128906 C 156.671875 234.128906 156.820312 233.980469 156.820312 233.796875 L 156.820312 233.449219 L 156.820312 234.960938 C 156.820312 235.144531 156.671875 235.296875 156.488281 235.296875 " fill-opacity="1" fill-rule="nonzero"/><path fill="#2f486f" d="M 156.488281 234.128906 L 146.113281 234.128906 C 145.933594 234.128906 145.785156 233.980469 145.785156 233.796875 L 145.785156 233.449219 L 156.820312 233.449219 L 156.820312 233.796875 C 156.820312 233.980469 156.671875 234.128906 156.488281 234.128906 " fill-opacity="1" fill-rule="nonzero"/><path fill="#6184b3" d="M 145.785156 233.28125 L 145.785156 233.796875 C 145.785156 233.980469 145.933594 234.128906 146.113281 234.128906 L 156.488281 234.128906 C 156.671875 234.128906 156.820312 233.980469 156.820312 233.796875 L 156.820312 233.28125 L 145.785156 233.28125 " fill-opacity="1" fill-rule="nonzero"/><path fill="#46505f" d="M 83.949219 176.765625 L 104.203125 176.765625 C 104.390625 176.765625 104.535156 176.613281 104.535156 176.429688 L 104.535156 171.421875 L 104.496094 171.660156 C 104.496094 172.394531 103.363281 172.992188 101.976562 172.992188 L 86.097656 172.992188 C 84.84375 172.992188 83.796875 172.496094 83.617188 171.855469 L 83.617188 176.429688 C 83.617188 176.613281 83.765625 176.765625 83.949219 176.765625 " fill-opacity="1" fill-rule="nonzero"/><path fill="#46505f" d="M 123.730469 171.855469 L 123.730469 176.429688 C 123.730469 176.613281 123.882812 176.765625 124.066406 176.765625 L 144.320312 176.765625 C 144.503906 176.765625 144.65625 176.613281 144.65625 176.429688 L 144.65625 171.855469 C 144.472656 172.496094 143.421875 172.992188 142.167969 172.992188 L 126.285156 172.992188 C 124.90625 172.992188 123.773438 172.394531 123.773438 171.660156 C 123.773438 171.550781 123.75 171.445312 123.699219 171.347656 C 123.742188 171.746094 123.757812 171.941406 123.730469 171.855469 " fill-opacity="1" fill-rule="nonzero"/><path fill="#303c43" d="M 153.695312 170.644531 L 147.601562 170.644531 L 147.601562 167.738281 L 153.695312 167.738281 L 153.695312 170.644531 " fill-opacity="1" fill-rule="nonzero"/><path fill="#687e88" d="M 153.695312 167.738281 L 147.601562 167.738281 L 148.417969 166.742188 L 152.882812 166.742188 L 153.695312 167.738281 " fill-opacity="1" fill-rule="nonzero"/><path fill="#20252b" d="M 147.601562 171.347656 L 153.695312 171.347656 L 153.695312 168.441406 L 147.601562 168.441406 Z M 147.601562 171.347656 " fill-opacity="1" fill-rule="nonzero"/><path fill="#20252b" d="M 153.695312 171.347656 L 147.601562 171.347656 L 147.601562 168.441406 L 153.695312 168.441406 L 153.695312 171.347656 " fill-opacity="1" fill-rule="nonzero"/><path fill="#0d1115" d="M 104.535156 183.101562 C 104.535156 183.285156 104.390625 183.429688 104.203125 183.429688 L 83.949219 183.429688 C 83.765625 183.429688 83.617188 183.285156 83.617188 183.101562 L 83.617188 179.769531 C 83.617188 179.585938 83.765625 179.4375 83.949219 179.4375 L 104.203125 179.4375 C 104.390625 179.4375 104.535156 179.585938 104.535156 179.769531 L 104.535156 183.101562 " fill-opacity="1" fill-rule="nonzero"/><path fill="#46505f" d="M 83.617188 182.398438 L 83.617188 183.65625 C 83.617188 183.839844 83.765625 183.988281 83.949219 183.988281 L 104.203125 183.988281 C 104.390625 183.988281 104.535156 183.839844 104.535156 183.65625 L 104.535156 182.398438 L 83.617188 182.398438 " fill-opacity="1" fill-rule="nonzero"/><path fill="#0d1115" d="M 104.535156 183.101562 C 104.535156 183.285156 104.390625 183.429688 104.203125 183.429688 L 83.949219 183.429688 C 83.765625 183.429688 83.617188 183.285156 83.617188 183.101562 L 83.617188 179.769531 C 83.617188 179.585938 83.765625 179.4375 83.949219 179.4375 L 104.203125 179.4375 C 104.390625 179.4375 104.535156 179.585938 104.535156 179.769531 L 104.535156 183.101562 " fill-opacity="1" fill-rule="nonzero"/><path fill="#0b0d0f" d="M 104.203125 179.4375 L 83.949219 179.4375 C 83.765625 179.4375 83.617188 179.585938 83.617188 179.769531 L 83.617188 180.546875 C 83.617188 180.363281 83.765625 180.214844 83.949219 180.214844 L 104.203125 180.214844 C 104.390625 180.214844 104.535156 180.363281 104.535156 180.546875 L 104.535156 179.769531 C 104.535156 179.585938 104.390625 179.4375 104.203125 179.4375 " fill-opacity="1" fill-rule="nonzero"/><path fill="#46505f" d="M 123.664062 182.398438 L 123.664062 183.65625 C 123.664062 183.839844 123.8125 183.988281 123.996094 183.988281 L 144.253906 183.988281 C 144.4375 183.988281 144.582031 183.839844 144.582031 183.65625 L 144.582031 182.398438 L 123.664062 182.398438 " fill-opacity="1" fill-rule="nonzero"/><path fill="#0d1115" d="M 144.582031 183.101562 C 144.582031 183.285156 144.4375 183.429688 144.253906 183.429688 L 123.996094 183.429688 C 123.8125 183.429688 123.664062 183.285156 123.664062 183.101562 L 123.664062 179.769531 C 123.664062 179.585938 123.8125 179.4375 123.996094 179.4375 L 144.253906 179.4375 C 144.4375 179.4375 144.582031 179.585938 144.582031 179.769531 L 144.582031 183.101562 " fill-opacity="1" fill-rule="nonzero"/><path fill="#0b0d0f" d="M 144.253906 179.4375 L 123.996094 179.4375 C 123.8125 179.4375 123.664062 179.585938 123.664062 179.769531 L 123.664062 180.546875 C 123.664062 180.363281 123.8125 180.214844 123.996094 180.214844 L 144.253906 180.214844 C 144.4375 180.214844 144.582031 180.363281 144.582031 180.546875 L 144.582031 179.769531 C 144.582031 179.585938 144.4375 179.4375 144.253906 179.4375 " fill-opacity="1" fill-rule="nonzero"/><path fill="#e2eff7" d="M 67.859375 241.582031 L 65.699219 241.582031 L 65.699219 208.3125 L 67.859375 208.3125 L 67.859375 241.582031 " fill-opacity="1" fill-rule="nonzero"/><path fill="#e2eff7" d="M 64.480469 241.582031 L 62.320312 241.582031 L 62.320312 208.3125 L 64.480469 208.3125 L 64.480469 241.582031 " fill-opacity="1" fill-rule="nonzero"/><path fill="#e2eff7" d="M 160.632812 247.804688 L 158.625 247.804688 L 158.625 195.546875 L 160.632812 195.546875 L 160.632812 247.804688 " fill-opacity="1" fill-rule="nonzero"/><path fill="#e4846c" d="M 103.160156 199.183594 C 103.160156 199.183594 102.363281 198.734375 102.453125 197.582031 C 102.539062 196.425781 102.804688 194.964844 103.339844 194.832031 C 103.871094 194.699219 104.09375 194.5625 104.582031 194.5625 C 105.066406 194.5625 107.152344 194.339844 107.59375 194.921875 C 108.035156 195.496094 108.308594 198.144531 108.308594 198.144531 L 103.160156 199.183594 " fill-opacity="1" fill-rule="nonzero"/><path fill="#bbd6e6" d="M 106.621094 209.480469 C 106.621094 209.480469 104.046875 202.421875 102.71875 198.957031 C 102.71875 198.957031 103.464844 194.964844 108.875 197.625 L 113.902344 204.550781 L 106.621094 209.480469 " fill-opacity="1" fill-rule="nonzero"/><path fill="#f7fbfe" d="M 121.511719 169.921875 C 121.511719 169.921875 118.042969 170.914062 116.980469 172.289062 C 115.917969 173.671875 104.488281 206.996094 106.621094 209.480469 C 108.746094 211.96875 112.851562 213.390625 122.589844 192.609375 L 121.511719 169.921875 " fill-opacity="1" fill-rule="nonzero"/><path fill="#e4846c" d="M 169.878906 199.183594 C 169.878906 199.183594 170.675781 198.734375 170.585938 197.582031 C 170.496094 196.425781 170.234375 194.964844 169.699219 194.832031 C 169.167969 194.699219 168.949219 194.5625 168.457031 194.5625 C 167.972656 194.5625 165.886719 194.339844 165.445312 194.921875 C 165.003906 195.496094 164.726562 198.144531 164.726562 198.144531 L 169.878906 199.183594 " fill-opacity="1" fill-rule="nonzero"/><path fill="#bbd6e6" d="M 166.417969 209.480469 C 166.417969 209.480469 168.992188 202.421875 170.320312 198.957031 C 170.320312 198.957031 169.574219 194.964844 164.164062 197.625 L 159.136719 204.550781 L 166.417969 209.480469 " fill-opacity="1" fill-rule="nonzero"/><path fill="#f7fbfe" d="M 151.523438 169.921875 C 151.523438 169.921875 154.921875 171.515625 155.984375 172.894531 C 157.050781 174.269531 168.546875 206.996094 166.417969 209.480469 C 164.292969 211.96875 160.1875 213.390625 150.445312 192.609375 L 151.523438 169.921875 " fill-opacity="1" fill-rule="nonzero"/><g clip-path="url(#id3)"><path fill="#16151a" d="M 145.257812 332.558594 C 145.257812 332.558594 150.953125 336.296875 153.019531 337.183594 C 153.019531 337.183594 154.007812 338.167969 153.8125 339.152344 C 153.8125 339.152344 143.199219 339.644531 140.152344 339.152344 C 140.152344 339.152344 140.050781 332.65625 141.328125 332.0625 L 145.257812 332.558594 " fill-opacity="1" fill-rule="nonzero"/></g><g clip-path="url(#id4)"><path fill="#16151a" d="M 126.507812 332.558594 C 126.507812 332.558594 120.816406 336.296875 118.75 337.183594 C 118.75 337.183594 117.761719 338.167969 117.960938 339.152344 C 117.960938 339.152344 128.574219 339.644531 131.625 339.152344 C 131.625 339.152344 131.722656 332.65625 130.441406 332.0625 L 126.507812 332.558594 " fill-opacity="1" fill-rule="nonzero"/></g><path fill="#e4846c" d="M 146.933594 168.550781 C 144.84375 168.097656 143.105469 167.839844 143.105469 167.839844 C 140.558594 162.785156 140.730469 151.59375 140.730469 151.59375 C 140.730469 151.59375 132.359375 156.703125 132.292969 157.871094 C 132.007812 162.546875 130.953125 167.320312 130.214844 168.902344 C 129.730469 169.933594 123.945312 171.191406 123.945312 171.191406 C 123.617188 171.644531 123.355469 178.148438 123.15625 179.976562 L 146.933594 175.335938 L 146.933594 168.550781 " fill-opacity="1" fill-rule="nonzero"/><path fill="#456bbd" d="M 153.019531 221.265625 L 148.753906 333.09375 C 148.753906 333.09375 145 333.992188 138.90625 333.078125 L 136.320312 250.261719 L 131.804688 333.0625 C 131.804688 333.0625 127.292969 334.03125 123.632812 333.046875 L 119.476562 222.519531 C 119.476562 222.519531 131.386719 223.476562 153.019531 221.265625 " fill-opacity="1" fill-rule="nonzero"/><path fill="#f7fbfe" d="M 119.464844 188.652344 L 153.625 188.652344 C 154.332031 175.570312 153.636719 171.039062 153.636719 171.039062 C 152.3125 169.082031 144.78125 167.367188 142.914062 167.277344 C 142.914062 167.277344 133.605469 167.140625 129.746094 167.140625 L 121 169.84375 C 119.125 170.355469 119.476562 174.714844 119.476562 174.714844 L 119.464844 188.652344 " fill-opacity="1" fill-rule="nonzero"/><path fill="#456bbd" d="M 153.636719 171.039062 C 153.023438 170.128906 151.078125 169.28125 148.984375 168.613281 L 148.984375 178.566406 L 126.046875 178.566406 L 126.046875 168.285156 L 121 169.84375 C 119.125 170.355469 119.476562 174.714844 119.476562 174.714844 L 119.449219 204.746094 L 119.820312 231.746094 C 135.847656 238.390625 152.59375 232.441406 152.59375 232.441406 C 153.84375 216.5625 152.449219 203.875 152.449219 203.875 C 154.851562 178.90625 153.636719 171.039062 153.636719 171.039062 " fill-opacity="1" fill-rule="nonzero"/><path fill="#f79375" d="M 144.019531 149.824219 C 144.019531 149.824219 145.089844 141.527344 140.515625 139.523438 C 136.71875 137.859375 128.679688 138.078125 128.316406 144.730469 C 128.316406 144.730469 128.027344 146.839844 128.058594 149.671875 C 125.53125 148.363281 125.507812 151.355469 126.492188 153.34375 C 127.261719 154.894531 128.15625 154.921875 128.527344 154.855469 L 128.570312 155.09375 C 129.007812 157.363281 130.890625 160.402344 132.609375 162.128906 L 139.152344 162.128906 C 141.199219 160.679688 143.40625 158.070312 144.183594 154.945312 C 144.183594 154.945312 145.449219 155.316406 146.160156 153.1875 C 146.871094 151.058594 146.25 147.839844 144.019531 149.824219 " fill-opacity="1" fill-rule="nonzero"/><path fill="#1d1416" d="M 127.773438 149.796875 C 127.773438 149.796875 128.6875 153.414062 128.871094 155.445312 C 129.054688 157.472656 132.257812 161.855469 132.742188 162.78125 C 132.742188 162.78125 135.757812 162.867188 140.113281 162.78125 C 140.113281 162.78125 143.390625 156.960938 143.613281 154.929688 C 143.832031 152.894531 144.238281 149.46875 144.238281 149.46875 C 144.238281 149.46875 145.5625 137.0625 136.164062 138.023438 C 136.164062 138.023438 125.667969 136.582031 127.773438 149.796875 " fill-opacity="1" fill-rule="nonzero"/><path fill="#f7fbfe" d="M 127.496094 149.441406 C 127.496094 149.441406 136.425781 151.039062 144.300781 148.902344 C 144.300781 148.902344 145.136719 140.042969 143.269531 139.15625 C 141.40625 138.273438 137.726562 134.726562 128.585938 138.65625 C 126.15625 139.699219 127.496094 149.441406 127.496094 149.441406 " fill-opacity="1" fill-rule="nonzero"/></svg>