<svg xmlns="http://www.w3.org/2000/svg" xmlns:xlink="http://www.w3.org/1999/xlink" width="3840" zoomAndPan="magnify" viewBox="0 0 2880 2520.000003" height="3360" preserveAspectRatio="xMidYMid meet" version="1.0"><defs><clipPath id="id1"><path d="M 2443 2197 L 2521.5 2197 L 2521.5 2302 L 2443 2302 Z M 2443 2197 " clip-rule="nonzero"/></clipPath><clipPath id="id2"><path d="M 358.609375 516 L 472 516 L 472 1265 L 358.609375 1265 Z M 358.609375 516 " clip-rule="nonzero"/></clipPath></defs><path fill="#4f4c4c" d="M 507.199219 2049.917969 L 2466.621094 2049.917969 L 2466.621094 2023.007812 L 507.199219 2023.007812 L 507.199219 2049.917969 " fill-opacity="1" fill-rule="nonzero"/><path fill="#656263" d="M 507.199219 2264.382812 L 469.363281 2264.382812 L 469.363281 217.761719 L 507.199219 217.761719 L 507.199219 2264.382812 " fill-opacity="1" fill-rule="nonzero"/><path fill="#1d1c1d" d="M 446 2197.917969 L 446 2291.363281 C 446 2297.222656 450.726562 2301.949219 456.5625 2301.949219 L 513.304688 2301.949219 C 519.140625 2301.949219 523.867188 2297.222656 523.867188 2291.363281 L 523.867188 2197.917969 L 446 2197.917969 " fill-opacity="1" fill-rule="nonzero"/><path fill="#656263" d="M 2504.484375 2264.382812 L 2466.621094 2264.382812 L 2466.621094 217.761719 L 2504.484375 217.761719 L 2504.484375 2264.382812 " fill-opacity="1" fill-rule="nonzero"/><g clip-path="url(#id1)"><path fill="#1d1c1d" d="M 2443.285156 2197.917969 L 2443.285156 2291.363281 C 2443.285156 2297.222656 2448.011719 2301.949219 2453.84375 2301.949219 L 2510.589844 2301.949219 C 2516.421875 2301.949219 2521.148438 2297.222656 2521.148438 2291.363281 L 2521.148438 2197.917969 L 2443.285156 2197.917969 " fill-opacity="1" fill-rule="nonzero"/></g><path fill="#1d1c1d" d="M 554.957031 284.964844 L 507.199219 284.964844 L 507.199219 237.332031 L 554.957031 237.332031 L 554.957031 284.964844 " fill-opacity="1" fill-rule="nonzero"/><path fill="#1d1c1d" d="M 2466.621094 284.964844 L 2418.863281 284.964844 L 2418.863281 237.332031 L 2466.621094 237.332031 L 2466.621094 284.964844 " fill-opacity="1" fill-rule="nonzero"/><path fill="#4f4c4c" d="M 554.957031 276.128906 L 2418.863281 276.128906 L 2418.863281 246.167969 L 554.957031 246.167969 L 554.957031 276.128906 " fill-opacity="1" fill-rule="nonzero"/><path fill="#192745" d="M 804.140625 380.335938 L 598.410156 380.335938 L 701.261719 484.492188 Z M 804.140625 380.335938 " fill-opacity="1" fill-rule="nonzero"/><path fill="#da8e5d" d="M 969.25 547.636719 C 959.773438 547.636719 701.285156 547.636719 701.285156 547.636719 C 701.285156 547.636719 442.824219 547.636719 433.324219 547.636719 C 423.820312 547.636719 413.085938 543.546875 412.71875 531.289062 C 412.347656 519.054688 419.882812 514.105469 428.496094 508.691406 C 446.46875 497.390625 618.695312 409.039062 632.160156 404.140625 C 661.578125 393.40625 682.28125 390.5 701.285156 390.5 C 720.316406 390.5 741.019531 393.40625 770.414062 404.140625 C 783.878906 409.039062 954.972656 497.613281 973.289062 508.910156 C 981.929688 514.253906 990.222656 519.054688 989.855469 531.289062 C 989.484375 543.546875 978.726562 547.636719 969.25 547.636719 Z M 981.683594 502.609375 C 969.375 494.976562 800.644531 406.207031 800.644531 406.207031 C 753.746094 377.132812 754.089844 335.507812 701.285156 335.507812 C 648.507812 335.507812 648.800781 377.132812 601.929688 406.207031 C 601.929688 406.207031 435.6875 493.453125 420.914062 502.609375 C 407.746094 510.734375 402.894531 519.816406 403.414062 531.585938 C 403.878906 542.316406 411.289062 555.660156 433.964844 555.660156 L 968.660156 555.660156 C 991.28125 555.660156 998.691406 542.316406 999.160156 531.585938 C 999.675781 519.816406 994.828125 510.734375 981.683594 502.609375 " fill-opacity="1" fill-rule="nonzero"/><path fill="#39393f" d="M 703.207031 222.167969 C 686.097656 222.167969 671.300781 231.964844 663.941406 246.21875 L 675.636719 246.21875 C 681.863281 237.726562 691.882812 232.136719 703.207031 232.136719 C 722.164062 232.136719 737.574219 247.546875 737.574219 266.503906 C 737.574219 278.761719 730.136719 284.472656 718.914062 293.089844 C 715.761719 295.503906 712.464844 298.039062 708.671875 301.238281 C 702.566406 306.457031 696.757812 311.355469 696.757812 323.765625 L 696.757812 335.507812 C 696.757812 338.238281 698.996094 340.503906 701.753906 340.503906 C 704.488281 340.503906 706.726562 338.238281 706.726562 335.507812 L 706.726562 323.765625 C 706.726562 315.984375 709.535156 313.597656 715.515625 308.574219 C 718.789062 305.792969 721.964844 303.308594 724.992188 301.015625 C 737.105469 291.738281 747.542969 283.6875 747.542969 266.503906 C 747.542969 242.035156 727.652344 222.167969 703.207031 222.167969 " fill-opacity="1" fill-rule="nonzero"/><g clip-path="url(#id2)"><path fill="#426ebd" d="M 398.757812 516.421875 C 398.757812 516.421875 375.546875 577.324219 369.046875 757.941406 C 364.589844 881.523438 358.558594 1022.1875 358.976562 1119.402344 C 359.421875 1216.613281 365.625 1264.300781 365.625 1264.300781 L 449.027344 1264.300781 C 449.027344 1264.300781 451.023438 1129.074219 455.332031 1030.089844 C 459.640625 931.125 471.503906 653.515625 471.503906 653.515625 L 398.757812 516.421875 " fill-opacity="1" fill-rule="nonzero"/></g><path fill="#538ccf" d="M 365.746094 1287.488281 L 449.027344 1287.488281 L 449.027344 1264.300781 L 365.746094 1264.300781 L 365.746094 1287.488281 " fill-opacity="1" fill-rule="nonzero"/><path fill="#fffffc" d="M 382.460938 1275.179688 C 382.460938 1278.28125 379.953125 1280.792969 376.875 1280.792969 C 373.773438 1280.792969 371.261719 1278.28125 371.261719 1275.179688 C 371.261719 1272.078125 373.773438 1269.59375 376.875 1269.59375 C 379.953125 1269.59375 382.460938 1272.078125 382.460938 1275.179688 " fill-opacity="1" fill-rule="nonzero"/><path fill="#426ebd" d="M 1003.8125 516.421875 C 1003.8125 516.421875 1027.027344 577.324219 1033.550781 757.941406 C 1038.007812 881.523438 1043.988281 1022.1875 1043.570312 1119.402344 C 1043.175781 1216.613281 1036.972656 1264.300781 1036.972656 1264.300781 L 953.542969 1264.300781 C 953.542969 1264.300781 951.550781 1129.074219 947.242188 1030.089844 C 942.957031 931.125 931.066406 653.515625 931.066406 653.515625 L 1003.8125 516.421875 " fill-opacity="1" fill-rule="nonzero"/><path fill="#538ccf" d="M 1036.824219 1287.488281 L 953.542969 1287.488281 L 953.542969 1264.300781 L 1036.824219 1264.300781 L 1036.824219 1287.488281 " fill-opacity="1" fill-rule="nonzero"/><path fill="#fffffc" d="M 1020.109375 1275.179688 C 1020.109375 1278.28125 1022.621094 1280.792969 1025.722656 1280.792969 C 1028.800781 1280.792969 1031.3125 1278.28125 1031.3125 1275.179688 C 1031.3125 1272.078125 1028.800781 1269.59375 1025.722656 1269.59375 C 1022.621094 1269.59375 1020.109375 1272.078125 1020.109375 1275.179688 " fill-opacity="1" fill-rule="nonzero"/><path fill="#426ebd" d="M 598.410156 380.335938 L 701.261719 484.492188 L 666.15625 510.09375 L 648.777344 464.007812 L 618.988281 481.609375 L 550.035156 409.480469 L 598.410156 380.335938 " fill-opacity="1" fill-rule="nonzero"/><path fill="#426ebd" d="M 804.140625 380.335938 L 701.3125 484.492188 L 736.390625 510.09375 L 753.820312 464.007812 L 783.609375 481.609375 L 852.5625 409.480469 L 804.140625 380.335938 " fill-opacity="1" fill-rule="nonzero"/><path fill="#3a61a7" d="M 994.285156 504.332031 L 839.835938 422.773438 L 783.609375 481.609375 L 753.820312 464.007812 L 736.390625 510.09375 L 701.3125 484.492188 L 666.15625 510.09375 L 648.777344 464.007812 L 618.988281 481.609375 L 562.738281 422.773438 L 408.285156 504.332031 C 408.285156 504.332031 399.769531 509.429688 398.757812 516.421875 L 471.503906 653.515625 L 471.503906 1305.953125 L 931.066406 1305.953125 L 931.066406 653.515625 L 1003.8125 516.421875 C 1002.804688 509.429688 994.285156 504.332031 994.285156 504.332031 " fill-opacity="1" fill-rule="nonzero"/><path fill="#5b7ec7" d="M 701.261719 484.492188 L 690.011719 492.738281 L 690.011719 1305.953125 L 712.5625 1305.953125 L 712.5625 492.6875 L 701.261719 484.492188 " fill-opacity="1" fill-rule="nonzero"/><path fill="#fffffc" d="M 696.042969 497.21875 C 696.042969 500.320312 698.554688 502.832031 701.65625 502.832031 C 704.734375 502.832031 707.269531 500.320312 707.269531 497.21875 C 707.269531 494.140625 704.734375 491.628906 701.65625 491.628906 C 698.554688 491.628906 696.042969 494.140625 696.042969 497.21875 " fill-opacity="1" fill-rule="nonzero"/><path fill="#fffffc" d="M 696.042969 604.601562 C 696.042969 607.703125 698.554688 610.210938 701.65625 610.210938 C 704.734375 610.210938 707.269531 607.703125 707.269531 604.601562 C 707.269531 601.523438 704.734375 598.988281 701.65625 598.988281 C 698.554688 598.988281 696.042969 601.523438 696.042969 604.601562 " fill-opacity="1" fill-rule="nonzero"/><path fill="#fffffc" d="M 696.042969 711.980469 C 696.042969 715.082031 698.554688 717.570312 701.65625 717.570312 C 704.734375 717.570312 707.269531 715.082031 707.269531 711.980469 C 707.269531 708.878906 704.734375 706.367188 701.65625 706.367188 C 698.554688 706.367188 696.042969 708.878906 696.042969 711.980469 " fill-opacity="1" fill-rule="nonzero"/><path fill="#fffffc" d="M 696.042969 819.339844 C 696.042969 822.464844 698.554688 824.976562 701.65625 824.976562 C 704.734375 824.976562 707.269531 822.464844 707.269531 819.339844 C 707.269531 816.261719 704.734375 813.75 701.65625 813.75 C 698.554688 813.75 696.042969 816.261719 696.042969 819.339844 " fill-opacity="1" fill-rule="nonzero"/><path fill="#fffffc" d="M 696.042969 926.71875 C 696.042969 929.820312 698.554688 932.332031 701.65625 932.332031 C 704.734375 932.332031 707.269531 929.820312 707.269531 926.71875 C 707.269531 923.617188 704.734375 921.105469 701.65625 921.105469 C 698.554688 921.105469 696.042969 923.617188 696.042969 926.71875 " fill-opacity="1" fill-rule="nonzero"/><path fill="#fffffc" d="M 696.042969 1034.078125 C 696.042969 1037.203125 698.554688 1039.6875 701.65625 1039.6875 C 704.734375 1039.6875 707.269531 1037.203125 707.269531 1034.078125 C 707.269531 1030.976562 704.734375 1028.488281 701.65625 1028.488281 C 698.554688 1028.488281 696.042969 1030.976562 696.042969 1034.078125 " fill-opacity="1" fill-rule="nonzero"/><path fill="#fffffc" d="M 696.042969 1141.484375 C 696.042969 1144.558594 698.554688 1147.09375 701.65625 1147.09375 C 704.734375 1147.09375 707.269531 1144.558594 707.269531 1141.484375 C 707.269531 1138.378906 704.734375 1135.871094 701.65625 1135.871094 C 698.554688 1135.871094 696.042969 1138.378906 696.042969 1141.484375 " fill-opacity="1" fill-rule="nonzero"/><path fill="#fffffc" d="M 696.042969 1248.863281 C 696.042969 1251.941406 698.554688 1254.453125 701.65625 1254.453125 C 704.734375 1254.453125 707.269531 1251.941406 707.269531 1248.863281 C 707.269531 1245.738281 704.734375 1243.226562 701.65625 1243.226562 C 698.554688 1243.226562 696.042969 1245.738281 696.042969 1248.863281 " fill-opacity="1" fill-rule="nonzero"/><path fill="#567a7e" d="M 1022.5 396.53125 L 805.9375 396.53125 L 914.230469 484.492188 Z M 1022.5 396.53125 " fill-opacity="1" fill-rule="nonzero"/><path fill="#da8e5d" d="M 1181.75 547.636719 C 1172.246094 547.636719 913.8125 547.636719 913.8125 547.636719 C 913.8125 547.636719 655.351562 547.636719 645.847656 547.636719 C 636.371094 547.636719 625.585938 543.546875 625.21875 531.289062 C 624.847656 519.054688 632.40625 514.105469 640.996094 508.691406 C 658.96875 497.390625 831.195312 409.039062 844.660156 404.140625 C 874.078125 393.40625 894.78125 390.5 913.8125 390.5 C 932.816406 390.5 953.519531 393.40625 982.914062 404.140625 C 996.402344 409.039062 1167.472656 497.613281 1185.8125 508.910156 C 1194.476562 514.253906 1202.722656 519.054688 1202.378906 531.289062 C 1201.984375 543.546875 1191.253906 547.636719 1181.75 547.636719 Z M 1194.183594 502.609375 C 1181.898438 494.976562 1013.144531 406.207031 1013.144531 406.207031 C 966.273438 377.132812 966.589844 335.507812 913.8125 335.507812 C 861.007812 335.507812 861.328125 377.132812 814.429688 406.207031 C 814.429688 406.207031 648.1875 493.453125 633.390625 502.609375 C 620.246094 510.734375 615.394531 519.816406 615.9375 531.585938 C 616.40625 542.316406 623.816406 555.683594 646.464844 555.683594 L 1181.160156 555.683594 C 1203.78125 555.683594 1211.191406 542.316406 1211.660156 531.585938 C 1212.175781 519.816406 1207.328125 510.734375 1194.183594 502.609375 " fill-opacity="1" fill-rule="nonzero"/><path fill="#39393f" d="M 915.730469 222.167969 C 898.867188 222.167969 884.292969 231.695312 876.835938 245.554688 L 888.554688 245.554688 C 894.855469 237.40625 904.679688 232.136719 915.730469 232.136719 C 934.664062 232.136719 950.074219 247.546875 950.074219 266.503906 C 950.074219 278.761719 942.664062 284.472656 931.414062 293.089844 C 928.285156 295.503906 924.964844 298.039062 921.195312 301.238281 C 915.066406 306.457031 909.257812 311.355469 909.257812 323.765625 L 909.257812 335.507812 C 909.257812 338.238281 911.496094 340.503906 914.253906 340.503906 C 917.011719 340.503906 919.25 338.238281 919.25 335.507812 L 919.25 323.765625 C 919.25 315.984375 922.035156 313.597656 928.015625 308.574219 C 931.289062 305.792969 934.488281 303.332031 937.492188 301.015625 C 949.582031 291.738281 960.042969 283.6875 960.042969 266.503906 C 960.042969 242.035156 940.175781 222.167969 915.730469 222.167969 " fill-opacity="1" fill-rule="nonzero"/><path fill="#82babe" d="M 1206.785156 504.332031 L 1078.972656 435.15625 L 1013.90625 491.628906 L 971.910156 484.492188 L 962.109375 520.582031 L 914.230469 484.492188 L 866.324219 520.582031 L 856.527344 484.492188 L 814.527344 491.628906 L 749.144531 434.886719 L 620.8125 504.332031 C 620.8125 504.332031 612.269531 509.429688 611.285156 516.421875 L 684.03125 653.515625 L 684.03125 1305.976562 L 1143.59375 1305.976562 L 1143.59375 653.515625 L 1216.3125 516.421875 C 1215.328125 509.429688 1206.785156 504.332031 1206.785156 504.332031 " fill-opacity="1" fill-rule="nonzero"/><path fill="#78acaf" d="M 679.105469 776.453125 C 682.085938 707.574219 684.398438 653.515625 684.398438 653.515625 L 611.628906 516.421875 C 611.628906 516.421875 588.414062 577.347656 581.890625 757.96875 L 679.105469 776.453125 " fill-opacity="1" fill-rule="nonzero"/><path fill="#78acaf" d="M 1246.421875 757.96875 C 1239.921875 577.347656 1216.65625 516.421875 1216.65625 516.421875 L 1143.9375 653.515625 C 1143.9375 653.515625 1146.25 707.574219 1149.179688 776.453125 L 1246.421875 757.96875 " fill-opacity="1" fill-rule="nonzero"/><path fill="#a1d4de" d="M 925.085938 640.960938 L 925.085938 475.40625 L 914.230469 484.492188 L 914.15625 484.492188 L 902.511719 475.40625 L 902.511719 640.960938 L 925.085938 640.960938 " fill-opacity="1" fill-rule="nonzero"/><path fill="#b5dade" d="M 902.511719 640.960938 L 902.511719 668.582031 L 925.085938 668.582031 L 925.085938 640.960938 L 902.511719 640.960938 " fill-opacity="1" fill-rule="nonzero"/><path fill="#ffffff" d="M 908.566406 497.21875 C 908.566406 500.320312 911.054688 502.832031 914.15625 502.832031 C 917.257812 502.832031 919.769531 500.320312 919.769531 497.21875 C 919.769531 494.140625 917.257812 491.628906 914.15625 491.628906 C 911.054688 491.628906 908.566406 494.140625 908.566406 497.21875 " fill-opacity="1" fill-rule="nonzero"/><path fill="#ffffff" d="M 908.566406 537.515625 C 908.566406 540.59375 911.054688 543.105469 914.15625 543.105469 C 917.257812 543.105469 919.769531 540.59375 919.769531 537.515625 C 919.769531 534.390625 917.257812 531.90625 914.15625 531.90625 C 911.054688 531.90625 908.566406 534.390625 908.566406 537.515625 " fill-opacity="1" fill-rule="nonzero"/><path fill="#ffffff" d="M 908.566406 577.765625 C 908.566406 580.867188 911.054688 583.40625 914.15625 583.40625 C 917.257812 583.40625 919.769531 580.867188 919.769531 577.765625 C 919.769531 574.691406 917.257812 572.179688 914.15625 572.179688 C 911.054688 572.179688 908.566406 574.691406 908.566406 577.765625 " fill-opacity="1" fill-rule="nonzero"/><path fill="#ffffff" d="M 908.566406 618.042969 C 908.566406 621.167969 911.054688 623.652344 914.15625 623.652344 C 917.257812 623.652344 919.769531 621.167969 919.769531 618.042969 C 919.769531 614.964844 917.257812 612.453125 914.15625 612.453125 C 911.054688 612.453125 908.566406 614.964844 908.566406 618.042969 " fill-opacity="1" fill-rule="nonzero"/><path fill="#90cfd2" d="M 805.9375 396.53125 L 914.230469 484.492188 L 866.324219 520.582031 L 856.527344 484.492188 L 814.527344 491.628906 L 742.496094 429.125 L 805.9375 396.53125 " fill-opacity="1" fill-rule="nonzero"/><path fill="#90cfd2" d="M 1022.5 396.53125 L 914.230469 484.492188 L 962.109375 520.582031 L 971.910156 484.492188 L 1013.90625 491.628906 L 1085.914062 429.125 L 1022.5 396.53125 " fill-opacity="1" fill-rule="nonzero"/><path fill="#90cfd2" d="M 679.105469 806.90625 L 581.890625 788.394531 L 581.890625 757.96875 L 679.105469 776.453125 L 679.105469 806.90625 " fill-opacity="1" fill-rule="nonzero"/><path fill="#90cfd2" d="M 1149.207031 806.90625 L 1246.421875 788.394531 L 1246.421875 757.96875 L 1149.207031 776.453125 L 1149.207031 806.90625 " fill-opacity="1" fill-rule="nonzero"/><path fill="#2f798b" d="M 2473.195312 473.882812 L 2028.871094 473.882812 L 2028.871094 435.996094 L 2473.195312 435.996094 L 2473.195312 473.882812 " fill-opacity="1" fill-rule="nonzero"/><path fill="#25616f" d="M 2473.195312 473.882812 C 2473.195312 473.882812 2470.316406 631.753906 2468.246094 677.492188 C 2466.152344 723.257812 2424.820312 1500.824219 2424.820312 1500.824219 L 2278.863281 1500.824219 L 2251.042969 635.765625 L 2223.203125 1500.824219 L 2077.269531 1500.824219 C 2077.269531 1500.824219 2035.910156 723.257812 2033.84375 677.492188 C 2031.75 631.753906 2028.871094 473.882812 2028.871094 473.882812 L 2473.195312 473.882812 " fill-opacity="1" fill-rule="nonzero"/><path fill="#2f798b" d="M 2267.195312 435.996094 L 2229.652344 435.996094 L 2229.652344 473.882812 C 2229.652344 473.882812 2230.660156 580.820312 2251.042969 635.765625 C 2255.746094 648.417969 2263.550781 644.160156 2267.195312 632.195312 L 2267.195312 435.996094 " fill-opacity="1" fill-rule="nonzero"/><path fill="#2e869c" d="M 2267.195312 473.882812 L 2229.652344 473.882812 L 2229.652344 435.996094 L 2267.195312 435.996094 L 2267.195312 473.882812 " fill-opacity="1" fill-rule="nonzero"/><path fill="#183d47" d="M 2473.195312 473.882812 L 2471.054688 579.097656 C 2471.054688 579.097656 2369.285156 558.859375 2363.570312 473.882812 L 2473.195312 473.882812 " fill-opacity="1" fill-rule="nonzero"/><path fill="#2f798b" d="M 2363.570312 473.882812 C 2369.285156 558.859375 2471.054688 579.097656 2471.054688 579.097656 L 2470.683594 599.160156 C 2423.097656 588.03125 2354.292969 562.355469 2344.492188 473.882812 L 2363.570312 473.882812 " fill-opacity="1" fill-rule="nonzero"/><path fill="#183d47" d="M 2028.871094 473.882812 L 2031.0625 579.097656 C 2031.0625 579.097656 2132.804688 558.859375 2138.542969 473.882812 L 2028.871094 473.882812 " fill-opacity="1" fill-rule="nonzero"/><path fill="#2f798b" d="M 2138.542969 473.882812 C 2132.804688 558.859375 2031.0625 579.097656 2031.0625 579.097656 L 2031.40625 599.160156 C 2078.992188 588.03125 2147.796875 562.355469 2157.597656 473.882812 L 2138.542969 473.882812 " fill-opacity="1" fill-rule="nonzero"/><path fill="#245d6a" d="M 2123.523438 512.679688 L 2058.730469 512.679688 L 2058.730469 570.257812 C 2079.335938 561.816406 2106.710938 546.40625 2123.523438 520.089844 L 2123.523438 512.679688 " fill-opacity="1" fill-rule="nonzero"/><path fill="#2a6d7d" d="M 2123.523438 502.832031 L 2058.730469 502.832031 L 2058.730469 512.679688 L 2123.523438 512.679688 L 2123.523438 502.832031 " fill-opacity="1" fill-rule="nonzero"/><path fill="#183d47" d="M 2259.019531 455.714844 C 2259.019531 461.574219 2254.269531 466.324219 2248.410156 466.324219 C 2242.550781 466.324219 2237.824219 461.574219 2237.824219 455.714844 C 2237.824219 449.878906 2242.550781 445.101562 2248.410156 445.101562 C 2254.269531 445.101562 2259.019531 449.878906 2259.019531 455.714844 " fill-opacity="1" fill-rule="nonzero"/><path fill="#438fa2" d="M 2062.941406 484.8125 L 2048.785156 484.8125 L 2048.785156 432.648438 L 2062.941406 432.648438 L 2062.941406 484.8125 " fill-opacity="1" fill-rule="nonzero"/><path fill="#438fa2" d="M 2145.605469 484.8125 L 2131.476562 484.8125 L 2131.476562 432.648438 L 2145.605469 432.648438 L 2145.605469 484.8125 " fill-opacity="1" fill-rule="nonzero"/><path fill="#438fa2" d="M 2367.878906 484.8125 L 2353.773438 484.8125 L 2353.773438 432.648438 L 2367.878906 432.648438 L 2367.878906 484.8125 " fill-opacity="1" fill-rule="nonzero"/><path fill="#438fa2" d="M 2450.546875 484.8125 L 2436.414062 484.8125 L 2436.414062 432.648438 L 2450.546875 432.648438 L 2450.546875 484.8125 " fill-opacity="1" fill-rule="nonzero"/><path fill="#2f798b" d="M 2077.269531 1500.824219 C 2077.269531 1500.824219 2073.871094 1502.964844 2075.078125 1508.308594 C 2076.332031 1513.675781 2077.023438 1520.246094 2076.0625 1522.683594 C 2075.078125 1525.097656 2076.0625 1526.796875 2083.867188 1526.574219 C 2091.644531 1526.304688 2148.339844 1525.636719 2179.257812 1526.597656 C 2210.179688 1527.507812 2226.476562 1527.78125 2224.777344 1522.882812 C 2223.078125 1518.054688 2224.039062 1515.617188 2224.53125 1512.195312 C 2225.023438 1508.824219 2227.019531 1500.824219 2223.203125 1500.824219 C 2219.433594 1500.824219 2077.269531 1500.824219 2077.269531 1500.824219 " fill-opacity="1" fill-rule="nonzero"/><path fill="#2f798b" d="M 2424.871094 1500.824219 C 2424.871094 1500.824219 2428.265625 1502.964844 2427.035156 1508.308594 C 2425.832031 1513.675781 2425.117188 1520.246094 2426.078125 1522.683594 C 2427.035156 1525.097656 2426.078125 1526.796875 2418.273438 1526.574219 C 2410.492188 1526.304688 2353.773438 1525.636719 2322.878906 1526.597656 C 2291.960938 1527.507812 2275.636719 1527.78125 2277.359375 1522.882812 C 2279.058594 1518.054688 2278.074219 1515.617188 2277.605469 1512.195312 C 2277.113281 1508.824219 2275.121094 1500.824219 2278.9375 1500.824219 C 2282.726562 1500.824219 2424.871094 1500.824219 2424.871094 1500.824219 " fill-opacity="1" fill-rule="nonzero"/><path fill="#da8e5d" d="M 2480.1875 406.429688 L 2351.507812 406.230469 C 2304.636719 377.160156 2304.957031 335.507812 2252.152344 335.507812 C 2199.398438 335.507812 2199.691406 377.160156 2152.796875 406.230469 L 2021.929688 406.429688 C 2017.570312 409.089844 2015.96875 412.066406 2016.167969 415.957031 C 2016.289062 419.5 2018.726562 423.90625 2026.1875 423.90625 L 2475.902344 423.90625 C 2483.335938 423.90625 2485.773438 419.5 2485.972656 415.957031 C 2486.117188 412.066406 2484.519531 409.113281 2480.1875 406.429688 " fill-opacity="1" fill-rule="nonzero"/><path fill="#39393f" d="M 2254.097656 222.191406 C 2237.257812 222.191406 2222.683594 231.695312 2215.203125 245.554688 L 2226.945312 245.554688 C 2233.222656 237.40625 2243.042969 232.136719 2254.097656 232.136719 C 2273.027344 232.136719 2288.464844 247.546875 2288.464844 266.503906 C 2288.464844 278.789062 2281.027344 284.472656 2269.804688 293.089844 C 2266.675781 295.503906 2263.351562 298.039062 2259.585938 301.238281 C 2253.433594 306.457031 2247.621094 311.355469 2247.621094 323.765625 L 2247.621094 335.507812 C 2247.621094 338.261719 2249.863281 340.503906 2252.59375 340.503906 C 2255.378906 340.503906 2257.59375 338.261719 2257.59375 335.507812 L 2257.59375 323.765625 C 2257.59375 315.984375 2260.398438 313.621094 2266.382812 308.574219 C 2269.65625 305.792969 2272.855469 303.332031 2275.882812 301.015625 C 2287.972656 291.738281 2298.433594 283.6875 2298.433594 266.503906 C 2298.433594 242.058594 2278.542969 222.191406 2254.097656 222.191406 " fill-opacity="1" fill-rule="nonzero"/><path fill="#6d6975" d="M 2109.886719 453.105469 L 2079.261719 453.105469 L 2079.261719 442.222656 L 2109.886719 442.222656 L 2109.886719 453.105469 " fill-opacity="1" fill-rule="nonzero"/><path fill="#52555f" d="M 2109.886719 442.222656 L 2109.886719 410.738281 C 2109.886719 403.96875 2104.398438 398.476562 2097.601562 398.476562 L 2091.523438 398.476562 C 2084.753906 398.476562 2079.261719 403.96875 2079.261719 410.738281 L 2079.261719 442.222656 L 2109.886719 442.222656 " fill-opacity="1" fill-rule="nonzero"/><path fill="#6d6975" d="M 2425.042969 453.105469 L 2394.441406 453.105469 L 2394.441406 442.222656 L 2425.042969 442.222656 L 2425.042969 453.105469 " fill-opacity="1" fill-rule="nonzero"/><path fill="#52555f" d="M 2425.042969 442.222656 L 2425.042969 410.738281 C 2425.042969 403.96875 2419.578125 398.476562 2412.808594 398.476562 L 2406.703125 398.476562 C 2399.933594 398.476562 2394.441406 403.96875 2394.441406 410.738281 L 2394.441406 442.222656 L 2425.042969 442.222656 " fill-opacity="1" fill-rule="nonzero"/><path fill="#af7c17" d="M 2048.269531 394.023438 C 2048.269531 394.023438 2025.152344 430.183594 1955.363281 430.183594 C 1885.570312 430.183594 1858.390625 394.023438 1858.390625 394.023438 L 1842.957031 401.234375 C 1842.957031 401.234375 1874.761719 448.253906 1955.363281 448.253906 C 2035.960938 448.253906 2063.65625 401.234375 2063.65625 401.234375 L 2048.269531 394.023438 " fill-opacity="1" fill-rule="nonzero"/><path fill="#91722c" d="M 1953.316406 598.296875 C 2051.691406 598.296875 2052.332031 463.246094 2049.671875 416.964844 C 2034.238281 430.628906 2004.71875 448.253906 1955.363281 448.253906 C 1904.671875 448.253906 1873.335938 429.667969 1857.015625 415.882812 C 1854.28125 461.03125 1854.132812 598.296875 1953.316406 598.296875 " fill-opacity="1" fill-rule="nonzero"/><path fill="#da8e5d" d="M 2221.378906 547.660156 C 2211.902344 547.660156 1953.441406 547.660156 1953.441406 547.660156 C 1953.441406 547.660156 1694.980469 547.660156 1685.476562 547.660156 C 1675.976562 547.660156 1665.242188 543.546875 1664.871094 531.3125 C 1664.503906 519.054688 1672.035156 514.105469 1680.652344 508.691406 C 1698.625 497.390625 1870.847656 409.039062 1884.289062 404.140625 C 1913.707031 393.40625 1934.410156 390.5 1953.441406 390.5 C 1972.445312 390.5 1993.148438 393.40625 2022.566406 404.140625 C 2036.035156 409.039062 2207.125 497.613281 2225.441406 508.910156 C 2234.109375 514.253906 2242.355469 519.054688 2242.011719 531.3125 C 2241.617188 543.546875 2230.90625 547.660156 2221.378906 547.660156 Z M 2233.8125 502.609375 C 2221.527344 494.976562 2052.773438 406.207031 2052.773438 406.207031 C 2005.925781 377.160156 2006.222656 335.507812 1953.441406 335.507812 C 1900.660156 335.507812 1900.957031 377.160156 1854.109375 406.207031 C 1854.109375 406.207031 1687.816406 493.453125 1673.046875 502.609375 C 1659.898438 510.734375 1655.050781 519.816406 1655.566406 531.585938 C 1656.035156 542.316406 1663.445312 555.683594 1686.09375 555.683594 L 2220.765625 555.683594 C 2243.414062 555.683594 2250.847656 542.316406 2251.316406 531.585938 C 2251.808594 519.816406 2246.984375 510.734375 2233.8125 502.609375 " fill-opacity="1" fill-rule="nonzero"/><path fill="#39393f" d="M 1955.363281 222.167969 C 1938.425781 222.167969 1923.800781 231.84375 1916.367188 245.875 L 1927.914062 245.875 C 1934.191406 237.554688 1944.160156 232.136719 1955.363281 232.136719 C 1974.292969 232.136719 1989.703125 247.546875 1989.703125 266.503906 C 1989.703125 278.761719 1982.292969 284.472656 1971.042969 293.089844 C 1967.917969 295.503906 1964.617188 298.039062 1960.828125 301.261719 C 1954.695312 306.480469 1948.910156 311.382812 1948.910156 323.765625 L 1948.910156 335.507812 C 1948.910156 338.238281 1951.128906 340.503906 1953.882812 340.503906 C 1956.640625 340.503906 1958.882812 338.238281 1958.882812 335.507812 L 1958.882812 323.765625 C 1958.882812 315.984375 1961.6875 313.621094 1967.644531 308.574219 C 1970.945312 305.792969 1974.121094 303.332031 1977.125 301.015625 C 1989.210938 291.738281 1999.671875 283.6875 1999.671875 266.503906 C 1999.671875 242.035156 1979.808594 222.167969 1955.363281 222.167969 " fill-opacity="1" fill-rule="nonzero"/><path fill="#ecaa20" d="M 2135.734375 749.351562 C 2137.507812 749.351562 2138.910156 747.921875 2138.910156 746.175781 L 2144.03125 712.375 L 1762.582031 712.375 L 1767.699219 746.175781 C 1767.699219 747.921875 1769.128906 749.351562 1770.875 749.351562 L 2135.734375 749.351562 " fill-opacity="1" fill-rule="nonzero"/><path fill="#ecaa20" d="M 1742.320312 622.496094 L 1740.597656 607.382812 L 1744.140625 607.0625 C 1745.789062 606.839844 1785.820312 601.277344 1800.320312 546.527344 C 1819.027344 475.800781 1798.078125 429.9375 1797.882812 429.472656 L 1796.035156 425.359375 L 1809.796875 418.886719 L 1811.644531 423.023438 C 1812.601562 425.066406 1835.128906 474.398438 1815.015625 550.417969 C 1797.734375 615.578125 1747.957031 621.90625 1745.816406 622.152344 L 1742.320312 622.496094 " fill-opacity="1" fill-rule="nonzero"/><path fill="#ecaa20" d="M 1953.316406 613.511719 C 1810.386719 613.511719 1842.933594 402.910156 1842.957031 401.234375 L 1858.390625 394.023438 L 1858.171875 401.679688 C 1858.144531 401.972656 1834.683594 598.296875 1953.316406 598.296875 C 2071.925781 598.296875 2048.441406 401.972656 2048.441406 401.628906 L 2048.269531 394.023438 L 2063.65625 401.234375 C 2063.703125 402.910156 2096.222656 613.511719 1953.316406 613.511719 " fill-opacity="1" fill-rule="nonzero"/><path fill="#ecaa20" d="M 2164.933594 622.570312 L 2160.773438 622.152344 C 2158.679688 621.90625 2108.878906 615.578125 2091.621094 550.417969 C 2071.457031 474.398438 2094.007812 425.066406 2094.96875 423.023438 L 2096.9375 418.738281 L 2110.699219 425.1875 L 2108.730469 429.472656 C 2108.558594 429.914062 2087.65625 476.195312 2106.292969 546.527344 C 2120.792969 601.277344 2160.820312 606.839844 2162.496094 607.0625 L 2166.679688 607.554688 L 2164.933594 622.570312 " fill-opacity="1" fill-rule="nonzero"/><path fill="#eebe4a" d="M 2091.621094 550.417969 C 2071.457031 474.398438 2094.007812 425.066406 2094.96875 423.023438 L 2095.164062 422.601562 L 2064.222656 405.886719 C 2067.914062 436.882812 2084.210938 613.511719 1953.316406 613.511719 C 1822.402344 613.511719 1838.699219 436.882812 1842.390625 405.886719 L 1811.445312 422.601562 L 1811.644531 423.023438 C 1812.601562 425.066406 1835.128906 474.398438 1815.015625 550.417969 C 1798.421875 612.996094 1751.847656 621.289062 1746.332031 622.078125 C 1748.671875 635.125 1754.136719 665.257812 1762.851562 712.375 L 2143.761719 712.375 C 2152.476562 665.257812 2157.964844 635.125 2160.277344 622.078125 C 2154.765625 621.289062 2108.1875 612.996094 2091.621094 550.417969 " fill-opacity="1" fill-rule="nonzero"/><path fill="#a87cc2" d="M 1165.257812 420.832031 C 1183.300781 423.808594 1206.21875 426.074219 1234.726562 426.074219 C 1262.816406 426.074219 1285.414062 423.90625 1303.261719 420.953125 C 1319.460938 409.0625 1325.445312 396.015625 1325.960938 394.808594 C 1323.054688 395.402344 1285.734375 402.613281 1234.433594 402.613281 C 1180.988281 402.613281 1142.878906 394.761719 1142.878906 394.761719 C 1143.296875 395.695312 1149.105469 408.84375 1165.257812 420.832031 " fill-opacity="1" fill-rule="nonzero"/><path fill="#da8e5d" d="M 1502.394531 547.636719 C 1492.894531 547.636719 1234.457031 547.636719 1234.457031 547.636719 C 1234.457031 547.636719 975.972656 547.636719 966.492188 547.636719 C 956.992188 547.636719 946.234375 543.546875 945.886719 531.289062 C 945.519531 519.054688 953.050781 514.105469 961.644531 508.691406 C 979.613281 497.390625 1151.839844 409.039062 1165.332031 404.140625 C 1194.722656 393.40625 1215.402344 390.5 1234.457031 390.5 C 1253.460938 390.5 1274.140625 393.40625 1303.582031 404.140625 C 1317.050781 409.039062 1488.140625 497.613281 1506.457031 508.910156 C 1515.125 514.253906 1523.394531 519.054688 1523.027344 531.289062 C 1522.632812 543.546875 1511.898438 547.636719 1502.394531 547.636719 Z M 1514.828125 502.609375 C 1502.542969 494.976562 1333.789062 406.207031 1333.789062 406.207031 C 1286.917969 377.132812 1287.238281 335.507812 1234.457031 335.507812 C 1181.675781 335.507812 1181.945312 377.132812 1135.125 406.207031 C 1135.125 406.207031 968.832031 493.453125 954.0625 502.609375 C 940.890625 510.734375 936.066406 519.816406 936.582031 531.585938 C 937.027344 542.316406 944.460938 555.683594 967.109375 555.683594 L 1501.78125 555.683594 C 1524.429688 555.683594 1531.839844 542.316406 1532.304688 531.585938 C 1532.824219 519.816406 1528 510.734375 1514.828125 502.609375 " fill-opacity="1" fill-rule="nonzero"/><path fill="#39393f" d="M 1236.375 222.167969 C 1219.390625 222.167969 1204.71875 231.816406 1197.257812 245.898438 L 1208.929688 245.898438 C 1215.207031 237.554688 1225.175781 232.136719 1236.375 232.136719 C 1255.308594 232.136719 1270.71875 247.546875 1270.71875 266.503906 C 1270.71875 278.761719 1263.308594 284.472656 1252.058594 293.089844 C 1248.933594 295.503906 1245.632812 298.039062 1241.84375 301.261719 C 1235.710938 306.457031 1229.902344 311.355469 1229.902344 323.765625 L 1229.902344 335.507812 C 1229.902344 338.238281 1232.144531 340.503906 1234.898438 340.503906 C 1237.65625 340.503906 1239.871094 338.238281 1239.871094 335.507812 L 1239.871094 323.765625 C 1239.871094 315.984375 1242.679688 313.621094 1248.660156 308.574219 C 1251.960938 305.792969 1255.160156 303.308594 1258.140625 301.015625 C 1270.226562 291.738281 1280.6875 283.6875 1280.6875 266.503906 C 1280.6875 242.035156 1260.824219 222.167969 1236.375 222.167969 " fill-opacity="1" fill-rule="nonzero"/><path fill="#483150" d="M 1234.285156 440.894531 C 1267.171875 440.894531 1289.082031 431.417969 1303.214844 421.003906 C 1285.414062 423.90625 1262.742188 426.074219 1234.726562 426.074219 C 1206.320312 426.074219 1183.324219 423.859375 1165.332031 420.878906 C 1179.386719 431.316406 1201.296875 440.894531 1234.285156 440.894531 " fill-opacity="1" fill-rule="nonzero"/><path fill="#c7a2d3" d="M 1003.542969 653.589844 C 1004.453125 631.851562 1005.019531 618.605469 1005.019531 618.605469 L 960.265625 493.574219 C 960.265625 493.574219 932.472656 501.722656 905.023438 621.09375 L 1003.542969 653.589844 " fill-opacity="1" fill-rule="nonzero"/><path fill="#c7a2d3" d="M 1559.507812 614.914062 C 1548.53125 527.105469 1523.492188 499.605469 1523.492188 499.605469 L 1464.582031 618.605469 C 1464.582031 618.605469 1465.148438 631.851562 1466.085938 653.589844 L 1559.507812 614.914062 " fill-opacity="1" fill-rule="nonzero"/><path fill="#c7a2d3" d="M 1234.285156 472.257812 C 1141.253906 472.257812 1114.863281 409.113281 1113.78125 406.429688 L 1142.878906 394.761719 C 1143.640625 396.507812 1163.261719 440.894531 1234.285156 440.894531 C 1306.4375 440.894531 1325.835938 395.179688 1326.035156 394.6875 L 1355.082031 406.480469 C 1353.976562 409.136719 1327.363281 472.257812 1234.285156 472.257812 " fill-opacity="1" fill-rule="nonzero"/><path fill="#a173c0" d="M 1513.621094 487.542969 L 1353.359375 410.121094 C 1346.222656 424.082031 1315.621094 472.257812 1234.285156 472.257812 C 1153.070312 472.257812 1122.644531 424.128906 1115.527344 410.121094 L 969.421875 481.488281 C 969.421875 481.488281 960.878906 486.609375 959.894531 493.574219 L 1004.675781 618.605469 C 1004.675781 618.605469 1029.636719 760.503906 1029.636719 894.890625 C 1029.636719 1029.226562 984.734375 1146.160156 984.734375 1146.160156 L 1484.179688 1146.160156 C 1484.179688 1146.160156 1434.304688 1009.238281 1434.304688 887.132812 C 1434.304688 765.058594 1464.238281 618.605469 1464.238281 618.605469 L 1523.125 499.605469 C 1522.164062 492.664062 1513.621094 487.542969 1513.621094 487.542969 " fill-opacity="1" fill-rule="nonzero"/><path fill="#75b09a" d="M 1701.675781 448.253906 C 1750.910156 448.253906 1780.378906 430.703125 1795.839844 417.089844 C 1789.289062 413.789062 1783.652344 411.007812 1779.171875 408.84375 C 1765.238281 418.835938 1740.792969 430.183594 1701.675781 430.183594 C 1661.96875 430.183594 1636.09375 418.515625 1621.101562 408.421875 C 1616.695312 410.566406 1610.960938 413.320312 1604.265625 416.671875 C 1620.808594 430.382812 1651.949219 448.253906 1701.675781 448.253906 " fill-opacity="1" fill-rule="nonzero"/><path fill="#366763" d="M 1701.675781 448.253906 C 1653.941406 448.253906 1623.367188 431.785156 1606.308594 418.34375 C 1608.769531 430.726562 1614.578125 447.835938 1628.117188 461.644531 C 1644.488281 478.410156 1668.539062 486.878906 1699.609375 486.878906 C 1730.675781 486.878906 1754.703125 478.410156 1771.097656 461.644531 C 1784.070312 448.378906 1789.957031 432.082031 1792.589844 419.820312 C 1776.367188 432.96875 1747.636719 448.253906 1701.675781 448.253906 " fill-opacity="1" fill-rule="nonzero"/><path fill="#da8e5d" d="M 1967.695312 547.660156 C 1958.191406 547.660156 1699.730469 547.660156 1699.730469 547.660156 C 1699.730469 547.660156 1441.269531 547.660156 1431.769531 547.660156 C 1422.289062 547.660156 1411.53125 543.546875 1411.164062 531.3125 C 1410.769531 519.054688 1418.328125 514.105469 1426.941406 508.714844 C 1444.914062 497.390625 1617.113281 409.039062 1630.605469 404.140625 C 1660.023438 393.40625 1680.703125 390.5 1699.730469 390.5 C 1718.734375 390.5 1739.441406 393.40625 1768.859375 404.140625 C 1782.347656 409.039062 1953.417969 497.613281 1971.757812 508.910156 C 1980.398438 514.253906 1988.667969 519.054688 1988.300781 531.3125 C 1987.929688 543.546875 1977.199219 547.660156 1967.695312 547.660156 Z M 1980.125 502.609375 C 1967.816406 494.976562 1799.0625 406.230469 1799.0625 406.230469 C 1752.214844 377.160156 1752.535156 335.507812 1699.730469 335.507812 C 1646.976562 335.507812 1647.269531 377.160156 1600.375 406.230469 C 1600.375 406.230469 1434.132812 493.453125 1419.335938 502.609375 C 1406.214844 510.734375 1401.339844 519.816406 1401.832031 531.609375 C 1402.324219 542.316406 1409.734375 555.683594 1432.382812 555.683594 L 1967.078125 555.683594 C 1989.726562 555.683594 1997.136719 542.316406 1997.605469 531.609375 C 1998.121094 519.816406 1993.296875 510.734375 1980.125 502.609375 " fill-opacity="1" fill-rule="nonzero"/><path fill="#39393f" d="M 1701.675781 222.191406 C 1684.714844 222.191406 1670.019531 231.816406 1662.558594 245.875 L 1674.226562 245.875 C 1680.503906 237.554688 1690.449219 232.136719 1701.675781 232.136719 C 1720.605469 232.136719 1736.019531 247.546875 1736.019531 266.503906 C 1736.019531 278.761719 1728.582031 284.472656 1717.359375 293.089844 C 1714.230469 295.503906 1710.90625 298.039062 1707.140625 301.261719 C 1700.988281 306.480469 1695.203125 311.382812 1695.203125 323.765625 L 1695.203125 335.507812 C 1695.203125 338.261719 1697.417969 340.503906 1700.199219 340.503906 C 1702.929688 340.503906 1705.171875 338.261719 1705.171875 335.507812 L 1705.171875 323.765625 C 1705.171875 315.984375 1707.976562 313.621094 1713.9375 308.574219 C 1717.210938 305.792969 1720.433594 303.332031 1723.4375 301.015625 C 1735.527344 291.738281 1745.988281 283.6875 1745.988281 266.503906 C 1745.988281 242.058594 1726.097656 222.191406 1701.675781 222.191406 " fill-opacity="1" fill-rule="nonzero"/><path fill="#ade3d2" d="M 1927.222656 1193.867188 C 1929.292969 1193.867188 1931.015625 1192.167969 1931.015625 1190.101562 L 1926.4375 1149.878906 L 1472.78125 1149.878906 L 1468.203125 1190.101562 C 1468.203125 1192.167969 1469.925781 1193.867188 1471.992188 1193.867188 L 1927.222656 1193.867188 " fill-opacity="1" fill-rule="nonzero"/><path fill="#ade3d2" d="M 1488.609375 622.496094 L 1486.910156 607.382812 L 1490.457031 607.0625 C 1492.105469 606.839844 1532.085938 601.277344 1546.609375 546.527344 C 1565.34375 475.800781 1544.367188 429.9375 1544.171875 429.472656 L 1542.324219 425.359375 L 1556.085938 418.886719 L 1557.933594 423.023438 C 1558.917969 425.066406 1581.417969 474.421875 1561.304688 550.417969 C 1544.023438 615.578125 1494.222656 621.90625 1492.128906 622.152344 L 1488.609375 622.496094 " fill-opacity="1" fill-rule="nonzero"/><path fill="#ade3d2" d="M 1699.609375 502.09375 C 1664.234375 502.09375 1636.464844 492.023438 1617.113281 472.15625 C 1588.507812 442.765625 1589.222656 402.910156 1589.273438 401.257812 L 1604.683594 394.023438 L 1604.460938 401.679688 C 1604.460938 402 1603.96875 436.953125 1628.117188 461.644531 C 1644.488281 478.410156 1668.539062 486.878906 1699.609375 486.878906 C 1730.675781 486.878906 1754.703125 478.410156 1771.097656 461.644531 C 1795.246094 436.953125 1794.753906 402 1794.730469 401.652344 L 1794.582031 394.023438 L 1809.921875 401.257812 C 1809.992188 402.910156 1810.707031 442.765625 1782.078125 472.15625 C 1762.753906 492.023438 1734.984375 502.09375 1699.609375 502.09375 " fill-opacity="1" fill-rule="nonzero"/><path fill="#ade3d2" d="M 1911.246094 622.570312 L 1907.085938 622.152344 C 1904.945312 621.90625 1855.191406 615.578125 1837.910156 550.417969 C 1817.773438 474.421875 1840.296875 425.066406 1841.28125 423.023438 L 1843.253906 418.738281 L 1856.988281 425.1875 L 1855.042969 429.472656 C 1854.847656 429.914062 1833.972656 476.195312 1852.605469 546.527344 C 1867.105469 601.277344 1907.136719 606.839844 1908.808594 607.0625 L 1912.96875 607.554688 L 1911.246094 622.570312 " fill-opacity="1" fill-rule="nonzero"/><path fill="#68ccbe" d="M 1889.707031 765.105469 C 1899.773438 711.585938 1905.609375 644.429688 1907.355469 622.152344 L 1907.085938 622.152344 C 1904.945312 621.90625 1855.191406 615.578125 1837.910156 550.417969 C 1817.773438 474.421875 1840.296875 425.066406 1841.28125 423.023438 L 1841.457031 422.601562 L 1809.847656 405.519531 C 1809.304688 416.769531 1805.636719 447.984375 1782.078125 472.15625 C 1762.753906 492.023438 1734.984375 502.09375 1699.609375 502.09375 C 1664.234375 502.09375 1636.464844 492.023438 1617.113281 472.15625 C 1593.578125 447.984375 1589.886719 416.769531 1589.371094 405.519531 L 1557.738281 422.601562 L 1557.933594 423.023438 C 1558.917969 425.066406 1581.417969 474.421875 1561.304688 550.417969 C 1544.023438 615.578125 1494.222656 621.90625 1492.128906 622.152344 L 1491.859375 622.152344 C 1493.605469 644.429688 1499.417969 711.585938 1509.511719 765.105469 C 1519.75 819.511719 1472.015625 1149.878906 1472.015625 1149.878906 L 1927.199219 1149.878906 C 1927.199219 1149.878906 1879.441406 819.511719 1889.707031 765.105469 " fill-opacity="1" fill-rule="nonzero"/><path fill="#da8e5d" d="M 1741.949219 547.660156 C 1732.449219 547.660156 1473.988281 547.660156 1473.988281 547.660156 C 1473.988281 547.660156 1215.550781 547.660156 1206.046875 547.660156 C 1196.546875 547.660156 1185.8125 543.546875 1185.417969 531.3125 C 1185.074219 519.054688 1192.605469 514.105469 1201.199219 508.691406 C 1219.195312 497.390625 1391.394531 409.039062 1404.859375 404.140625 C 1434.277344 393.40625 1454.980469 390.5 1473.988281 390.5 C 1493.015625 390.5 1513.71875 393.40625 1543.136719 404.140625 C 1556.605469 409.039062 1727.671875 497.613281 1746.011719 508.910156 C 1754.652344 514.253906 1762.949219 519.054688 1762.582031 531.3125 C 1762.1875 543.546875 1751.453125 547.660156 1741.949219 547.660156 Z M 1754.382812 502.609375 C 1742.074219 494.976562 1573.34375 406.207031 1573.34375 406.207031 C 1526.472656 377.160156 1526.765625 335.507812 1473.988281 335.507812 C 1421.207031 335.507812 1421.527344 377.160156 1374.65625 406.207031 C 1374.65625 406.207031 1208.386719 493.453125 1193.617188 502.609375 C 1180.445312 510.734375 1175.621094 519.816406 1176.113281 531.585938 C 1176.605469 542.316406 1184.015625 555.683594 1206.664062 555.683594 L 1741.335938 555.683594 C 1763.984375 555.683594 1771.417969 542.316406 1771.886719 531.585938 C 1772.402344 519.816406 1767.554688 510.734375 1754.382812 502.609375 " fill-opacity="1" fill-rule="nonzero"/><path fill="#39393f" d="M 1475.957031 222.167969 C 1459.242188 222.167969 1444.765625 231.546875 1437.207031 245.234375 L 1449.023438 245.234375 C 1455.328125 237.308594 1465.027344 232.136719 1475.957031 232.136719 C 1494.886719 232.136719 1510.273438 247.546875 1510.273438 266.503906 C 1510.273438 278.761719 1502.863281 284.472656 1491.636719 293.089844 C 1488.488281 295.503906 1485.1875 298.039062 1481.398438 301.261719 C 1475.265625 306.480469 1469.480469 311.382812 1469.480469 323.765625 L 1469.480469 335.507812 C 1469.480469 338.238281 1471.699219 340.503906 1474.453125 340.503906 C 1477.210938 340.503906 1479.453125 338.238281 1479.453125 335.507812 L 1479.453125 323.765625 C 1479.453125 315.984375 1482.257812 313.621094 1488.214844 308.574219 C 1491.515625 305.792969 1494.691406 303.332031 1497.71875 301.015625 C 1509.804688 291.738281 1520.242188 283.6875 1520.242188 266.503906 C 1520.242188 242.035156 1500.378906 222.167969 1475.957031 222.167969 " fill-opacity="1" fill-rule="nonzero"/><path fill="#426ebd" d="M 1297.824219 610.730469 L 1212.203125 610.730469 L 1212.203125 561.496094 L 1297.824219 561.496094 L 1297.824219 610.730469 " fill-opacity="1" fill-rule="nonzero"/><path fill="#9db6e2" d="M 1215.132812 610.730469 L 1215.132812 652.210938 C 1215.132812 654.5 1212.472656 659.128906 1210.972656 660.949219 L 1168.605469 705.628906 C 1153.414062 721.632812 1153.070312 748.121094 1170.128906 762.128906 C 1194.722656 782.339844 1218.726562 768.898438 1226.605469 760.625 L 1269.855469 715.007812 C 1288.640625 693.738281 1295.066406 685.246094 1295.066406 652.210938 L 1295.066406 610.730469 L 1215.132812 610.730469 " fill-opacity="1" fill-rule="nonzero"/><path fill="#426ebd" d="M 1195.140625 734.039062 C 1177.320312 718.875 1159.644531 720.328125 1159.644531 720.328125 C 1154.449219 734.972656 1157.625 751.863281 1170.128906 762.128906 C 1186.476562 775.59375 1202.578125 774.140625 1213.851562 769.21875 C 1213.851562 769.21875 1212.964844 749.203125 1195.140625 734.039062 " fill-opacity="1" fill-rule="nonzero"/><path fill="#426ebd" d="M 1265.15625 676.777344 C 1255.183594 702.824219 1269.855469 715.007812 1269.855469 715.007812 C 1288.640625 693.738281 1295.066406 685.246094 1295.066406 652.210938 C 1295.066406 652.210938 1275.839844 648.886719 1265.15625 676.777344 " fill-opacity="1" fill-rule="nonzero"/><path fill="#426ebd" d="M 1745.25 583.945312 L 1666.644531 617.894531 L 1647.148438 572.71875 L 1725.726562 538.796875 L 1745.25 583.945312 " fill-opacity="1" fill-rule="nonzero"/><path fill="#9db6e2" d="M 1669.328125 616.738281 L 1685.796875 654.820312 C 1686.707031 656.960938 1686.09375 662.253906 1685.429688 664.519531 L 1664.28125 722.34375 C 1656.675781 743.046875 1666.84375 767.492188 1688.039062 773.597656 C 1718.6875 782.410156 1735.378906 760.527344 1739.316406 749.820312 L 1760.929688 690.761719 C 1769.742188 663.804688 1772.253906 653.464844 1759.160156 623.113281 L 1742.6875 585.027344 L 1669.328125 616.738281 " fill-opacity="1" fill-rule="nonzero"/><path fill="#426ebd" d="M 1699.878906 737.878906 C 1677.527344 731.035156 1661.871094 739.378906 1661.871094 739.378906 C 1662.929688 754.863281 1672.527344 769.117188 1688.039062 773.597656 C 1708.421875 779.457031 1722.625 771.753906 1731.019531 762.792969 C 1731.019531 762.792969 1722.28125 744.699219 1699.878906 737.878906 " fill-opacity="1" fill-rule="nonzero"/><path fill="#426ebd" d="M 1741.457031 657.527344 C 1742.617188 685.417969 1760.929688 690.761719 1760.929688 690.761719 C 1769.742188 663.804688 1772.253906 653.464844 1759.160156 623.113281 C 1759.160156 623.113281 1740.203125 627.714844 1741.457031 657.527344 " fill-opacity="1" fill-rule="nonzero"/><path fill="#6d6975" d="M 1270.914062 571.515625 L 1240.292969 571.515625 L 1240.292969 561.496094 L 1270.914062 561.496094 L 1270.914062 571.515625 " fill-opacity="1" fill-rule="nonzero"/><path fill="#52555f" d="M 1270.914062 560.632812 L 1270.914062 529.171875 C 1270.914062 522.402344 1265.425781 516.914062 1258.65625 516.914062 L 1252.550781 516.914062 C 1245.78125 516.914062 1240.292969 522.402344 1240.292969 529.171875 L 1240.292969 560.632812 L 1270.914062 560.632812 " fill-opacity="1" fill-rule="nonzero"/><path fill="#6d6975" d="M 1707.707031 571.515625 L 1677.109375 571.515625 L 1677.109375 560.632812 L 1707.707031 560.632812 L 1707.707031 571.515625 " fill-opacity="1" fill-rule="nonzero"/><path fill="#52555f" d="M 1707.707031 560.632812 L 1707.707031 529.171875 C 1707.707031 522.402344 1702.21875 516.914062 1695.421875 516.914062 L 1689.34375 516.914062 C 1682.597656 516.914062 1677.109375 522.402344 1677.109375 529.171875 L 1677.109375 560.632812 L 1707.707031 560.632812 " fill-opacity="1" fill-rule="nonzero"/><path fill="#5662b7" d="M 2312 1809.675781 L 2071.679688 1809.675781 C 2066.804688 1809.378906 2052.847656 1809.503906 2041.671875 1819.546875 C 2036.035156 1824.617188 2029.289062 1834.046875 2029.289062 1849.898438 C 2029.289062 1866.8125 2036.15625 1876.4375 2041.894531 1881.484375 C 2050.386719 1888.96875 2060.132812 1890.171875 2065.550781 1890.171875 C 2066.386719 1890.171875 2067.101562 1890.148438 2067.691406 1890.101562 L 2307.984375 1890.101562 C 2318.277344 1890.101562 2326.621094 1881.753906 2326.621094 1871.441406 C 2326.621094 1861.148438 2318.277344 1852.78125 2307.984375 1852.78125 L 2066.832031 1852.78125 C 2066.707031 1852.089844 2066.632812 1851.15625 2066.632812 1849.898438 C 2066.632812 1848.546875 2066.78125 1847.707031 2066.878906 1847.289062 C 2067.542969 1847.042969 2068.703125 1846.894531 2069.464844 1846.921875 L 2069.046875 1846.921875 C 2069.6875 1846.96875 2070.324219 1847.042969 2070.964844 1847.042969 L 2312 1847.042969 C 2325.464844 1847.042969 2336.417969 1857.972656 2336.417969 1871.441406 C 2336.417969 1884.90625 2325.464844 1895.886719 2312 1895.886719 L 2079.632812 1895.886719 C 2069.292969 1895.886719 2060.945312 1904.230469 2060.945312 1914.546875 C 2060.945312 1924.859375 2069.292969 1933.203125 2079.632812 1933.203125 L 2312 1933.203125 C 2346.042969 1933.203125 2373.765625 1905.535156 2373.765625 1871.441406 C 2373.765625 1837.394531 2346.042969 1809.675781 2312 1809.675781 " fill-opacity="1" fill-rule="nonzero"/><path fill="#f2555f" d="M 2063.433594 1764.722656 C 2063.433594 1789.464844 2083.570312 1809.601562 2108.3125 1809.601562 L 2306.925781 1809.601562 C 2314.410156 1809.601562 2320.492188 1803.519531 2320.492188 1796.035156 C 2320.492188 1788.527344 2314.410156 1782.449219 2306.925781 1782.449219 L 2108.3125 1782.449219 C 2098.539062 1782.449219 2090.5625 1774.519531 2090.5625 1764.722656 C 2090.5625 1754.925781 2098.539062 1747 2108.3125 1747 L 2283.417969 1747 L 2284.820312 1746.925781 L 2284.550781 1746.925781 L 2286.394531 1747.144531 C 2286.46875 1747.492188 2286.566406 1748.082031 2286.566406 1749.066406 C 2286.566406 1750 2286.496094 1750.667969 2286.421875 1751.183594 L 2111.242188 1751.183594 C 2103.730469 1751.183594 2097.652344 1757.238281 2097.652344 1764.722656 C 2097.652344 1772.207031 2103.730469 1778.289062 2111.242188 1778.289062 L 2285.804688 1778.289062 C 2286.222656 1778.289062 2286.765625 1778.3125 2287.355469 1778.3125 C 2291.292969 1778.3125 2298.382812 1777.449219 2304.539062 1772.011719 C 2308.722656 1768.316406 2313.695312 1761.375 2313.695312 1749.066406 C 2313.695312 1737.519531 2308.796875 1730.726562 2304.710938 1727.007812 C 2296.585938 1719.722656 2286.445312 1719.648438 2282.898438 1719.820312 L 2108.3125 1719.820312 C 2083.570312 1719.820312 2063.433594 1739.984375 2063.433594 1764.722656 " fill-opacity="1" fill-rule="nonzero"/><path fill="#60cced" d="M 1996.621094 1978.15625 C 1996.621094 2002.871094 2016.734375 2023.007812 2041.472656 2023.007812 L 2411.011719 2023.007812 C 2418.496094 2023.007812 2424.574219 2016.953125 2424.574219 2009.445312 C 2424.574219 2001.960938 2418.496094 1995.90625 2411.011719 1995.90625 L 2041.472656 1995.90625 C 2031.699219 1995.90625 2023.726562 1987.929688 2023.726562 1978.15625 C 2023.726562 1968.359375 2031.699219 1960.382812 2041.472656 1960.382812 L 2387.523438 1960.382812 L 2388.902344 1960.332031 L 2388.609375 1960.359375 L 2390.480469 1960.578125 C 2390.578125 1960.898438 2390.675781 1961.515625 2390.675781 1962.476562 C 2390.675781 1963.410156 2390.601562 1964.101562 2390.554688 1964.59375 L 2044.402344 1964.59375 C 2036.917969 1964.59375 2030.839844 1970.671875 2030.839844 1978.15625 C 2030.839844 1985.640625 2036.917969 1991.722656 2044.402344 1991.722656 L 2389.914062 1991.722656 C 2390.332031 1991.746094 2390.875 1991.746094 2391.4375 1991.746094 C 2395.378906 1991.746094 2402.46875 1990.882812 2408.648438 1985.445312 C 2412.808594 1981.773438 2417.804688 1974.757812 2417.804688 1962.476562 C 2417.804688 1950.953125 2412.929688 1944.160156 2408.792969 1940.441406 C 2400.695312 1933.15625 2390.554688 1933.058594 2386.984375 1933.253906 L 2041.472656 1933.253906 C 2016.734375 1933.253906 1996.621094 1953.390625 1996.621094 1978.15625 " fill-opacity="1" fill-rule="nonzero"/><path fill="#51c16d" d="M 1303.558594 1794.832031 L 1046.476562 1794.832031 C 1041.28125 1794.511719 1026.339844 1794.65625 1014.421875 1805.390625 C 1008.390625 1810.832031 1001.179688 1820.898438 1001.179688 1837.863281 C 1001.179688 1855.980469 1008.492188 1866.222656 1014.667969 1871.660156 C 1023.730469 1879.636719 1034.167969 1880.917969 1039.953125 1880.917969 C 1040.839844 1880.917969 1041.625 1880.917969 1042.265625 1880.867188 L 1299.25 1880.867188 C 1310.277344 1880.867188 1319.238281 1871.957031 1319.238281 1860.929688 C 1319.238281 1849.875 1310.277344 1840.9375 1299.25 1840.9375 L 1041.304688 1840.9375 C 1041.207031 1840.226562 1041.109375 1839.214844 1041.109375 1837.863281 C 1041.109375 1836.410156 1041.257812 1835.523438 1041.40625 1835.054688 C 1042.070312 1834.832031 1043.300781 1834.6875 1044.113281 1834.710938 L 1043.742188 1834.6875 C 1044.382812 1834.734375 1045.074219 1834.785156 1045.761719 1834.785156 L 1303.558594 1834.785156 C 1317.960938 1834.785156 1329.679688 1846.503906 1329.679688 1860.929688 C 1329.679688 1875.304688 1317.960938 1887.070312 1303.558594 1887.070312 L 1055.019531 1887.070312 C 1043.964844 1887.070312 1035.027344 1895.984375 1035.027344 1906.988281 C 1035.027344 1918.039062 1043.964844 1926.976562 1055.019531 1926.976562 L 1303.558594 1926.976562 C 1339.992188 1926.976562 1369.632812 1897.363281 1369.632812 1860.929688 C 1369.632812 1824.46875 1339.992188 1794.832031 1303.558594 1794.832031 " fill-opacity="1" fill-rule="nonzero"/><path fill="#f14b2c" d="M 1037.710938 1746.753906 C 1037.710938 1773.242188 1059.253906 1794.757812 1085.691406 1794.757812 L 1298.09375 1794.757812 C 1306.117188 1794.757812 1312.617188 1788.257812 1312.617188 1780.257812 C 1312.617188 1772.257812 1306.117188 1765.730469 1298.09375 1765.730469 L 1085.691406 1765.730469 C 1075.230469 1765.730469 1066.710938 1757.238281 1066.710938 1746.753906 C 1066.710938 1736.289062 1075.230469 1727.796875 1085.691406 1727.796875 L 1272.984375 1727.796875 L 1274.460938 1727.699219 L 1274.164062 1727.746094 C 1274.78125 1727.699219 1275.640625 1727.820312 1276.160156 1727.992188 C 1276.234375 1728.3125 1276.332031 1728.929688 1276.332031 1730.011719 C 1276.332031 1730.996094 1276.28125 1731.734375 1276.183594 1732.253906 L 1088.792969 1732.253906 C 1080.792969 1732.253906 1074.292969 1738.75 1074.292969 1746.753906 C 1074.292969 1754.800781 1080.792969 1761.253906 1088.792969 1761.253906 L 1275.519531 1761.253906 C 1275.988281 1761.277344 1276.554688 1761.324219 1277.191406 1761.324219 C 1281.402344 1761.324219 1288.984375 1760.367188 1295.582031 1754.582031 C 1300.039062 1750.667969 1305.378906 1743.15625 1305.378906 1730.011719 C 1305.378906 1717.703125 1300.113281 1710.367188 1295.730469 1706.453125 C 1287.066406 1698.625 1276.207031 1698.550781 1272.441406 1698.75 L 1085.691406 1698.75 C 1059.253906 1698.75 1037.710938 1720.289062 1037.710938 1746.753906 " fill-opacity="1" fill-rule="nonzero"/><path fill="#911822" d="M 966.222656 1975.054688 C 966.222656 2001.492188 987.738281 2023.007812 1014.203125 2023.007812 L 1409.464844 2023.007812 C 1417.488281 2023.007812 1423.964844 2016.535156 1423.964844 2008.558594 C 1423.964844 2000.535156 1417.488281 1994.035156 1409.464844 1994.035156 L 1014.203125 1994.035156 C 1003.738281 1994.035156 995.246094 1985.515625 995.246094 1975.054688 C 995.246094 1964.59375 1003.738281 1956.050781 1014.203125 1956.050781 L 1384.328125 1956.050781 L 1385.804688 1955.976562 L 1385.511719 1956 C 1386.125 1955.976562 1386.988281 1956.097656 1387.503906 1956.246094 C 1387.601562 1956.589844 1387.726562 1957.257812 1387.726562 1958.289062 C 1387.726562 1959.25 1387.628906 1960.011719 1387.554688 1960.554688 L 1017.328125 1960.554688 C 1009.351562 1960.554688 1002.828125 1967.03125 1002.828125 1975.054688 C 1002.828125 1983.054688 1009.351562 1989.554688 1017.328125 1989.554688 L 1386.890625 1989.554688 C 1387.332031 1989.554688 1387.875 1989.628906 1388.539062 1989.628906 C 1392.75 1989.628906 1400.332031 1988.667969 1406.929688 1982.859375 C 1411.410156 1978.894531 1416.726562 1971.4375 1416.726562 1958.289062 C 1416.726562 1945.980469 1411.484375 1938.671875 1407.074219 1934.730469 C 1398.410156 1926.925781 1387.578125 1926.828125 1383.789062 1927.050781 L 1014.203125 1927.050781 C 987.738281 1927.050781 966.222656 1948.589844 966.222656 1975.054688 " fill-opacity="1" fill-rule="nonzero"/><path fill="#f2555f" d="M 1919.839844 2015.378906 C 1919.839844 2019.585938 1916.417969 2023.007812 1912.207031 2023.007812 L 1476.449219 2023.007812 C 1472.238281 2023.007812 1468.816406 2019.585938 1468.816406 2015.378906 L 1468.816406 1995.707031 C 1468.816406 1991.476562 1472.238281 1988.054688 1476.449219 1988.054688 L 1912.207031 1988.054688 C 1916.417969 1988.054688 1919.839844 1991.476562 1919.839844 1995.707031 L 1919.839844 2015.378906 " fill-opacity="1" fill-rule="nonzero"/><path fill="#731f8c" d="M 1869.914062 1803.050781 C 1869.914062 1806.328125 1867.253906 1809.011719 1863.929688 1809.011719 L 1524.722656 1809.011719 C 1521.449219 1809.011719 1518.765625 1806.328125 1518.765625 1803.050781 L 1518.765625 1787.742188 C 1518.765625 1784.441406 1521.449219 1781.78125 1524.722656 1781.78125 L 1863.929688 1781.78125 C 1867.253906 1781.78125 1869.914062 1784.441406 1869.914062 1787.742188 L 1869.914062 1803.050781 " fill-opacity="1" fill-rule="nonzero"/><path fill="#89c051" d="M 1869.914062 1775.800781 C 1869.914062 1779.125 1867.253906 1781.78125 1863.929688 1781.78125 L 1524.722656 1781.78125 C 1521.449219 1781.78125 1518.765625 1779.125 1518.765625 1775.800781 L 1518.765625 1760.511719 C 1518.765625 1757.191406 1521.449219 1754.554688 1524.722656 1754.554688 L 1863.929688 1754.554688 C 1867.253906 1754.554688 1869.914062 1757.191406 1869.914062 1760.511719 L 1869.914062 1775.800781 " fill-opacity="1" fill-rule="nonzero"/><path fill="#f6824e" d="M 1869.914062 1748.574219 C 1869.914062 1751.871094 1867.253906 1754.554688 1863.929688 1754.554688 L 1524.722656 1754.554688 C 1521.449219 1754.554688 1518.765625 1751.871094 1518.765625 1748.574219 L 1518.765625 1733.261719 C 1518.765625 1729.988281 1521.449219 1727.304688 1524.722656 1727.304688 L 1863.929688 1727.304688 C 1867.253906 1727.304688 1869.914062 1729.988281 1869.914062 1733.261719 L 1869.914062 1748.574219 " fill-opacity="1" fill-rule="nonzero"/><path fill="#d284c4" d="M 1869.914062 1721.347656 C 1869.914062 1724.644531 1867.253906 1727.304688 1863.929688 1727.304688 L 1524.722656 1727.304688 C 1521.449219 1727.304688 1518.765625 1724.644531 1518.765625 1721.347656 L 1518.765625 1706.035156 C 1518.765625 1702.761719 1521.449219 1700.078125 1524.722656 1700.078125 L 1863.929688 1700.078125 C 1867.253906 1700.078125 1869.914062 1702.761719 1869.914062 1706.035156 L 1869.914062 1721.347656 " fill-opacity="1" fill-rule="nonzero"/><path fill="#8886cb" d="M 1899.160156 1903.566406 C 1899.160156 1907.40625 1896.058594 1910.507812 1892.242188 1910.507812 L 1496.4375 1910.507812 C 1492.597656 1910.507812 1489.472656 1907.40625 1489.472656 1903.566406 L 1489.472656 1885.667969 C 1489.472656 1881.851562 1492.597656 1878.703125 1496.4375 1878.703125 L 1892.242188 1878.703125 C 1896.058594 1878.703125 1899.160156 1881.851562 1899.160156 1885.667969 L 1899.160156 1903.566406 " fill-opacity="1" fill-rule="nonzero"/><path fill="#57c7c0" d="M 1904.476562 1980.914062 C 1904.476562 1984.851562 1901.277344 1988.054688 1897.335938 1988.054688 L 1491.316406 1988.054688 C 1487.378906 1988.054688 1484.203125 1984.851562 1484.203125 1980.914062 L 1484.203125 1917.671875 C 1484.203125 1913.707031 1487.378906 1910.507812 1491.316406 1910.507812 L 1897.335938 1910.507812 C 1901.277344 1910.507812 1904.476562 1913.707031 1904.476562 1917.671875 L 1904.476562 1980.914062 " fill-opacity="1" fill-rule="nonzero"/><path fill="#25346c" d="M 1883.304688 1872.277344 C 1883.304688 1875.871094 1880.449219 1878.703125 1876.90625 1878.703125 L 1511.75 1878.703125 C 1508.207031 1878.703125 1505.351562 1875.871094 1505.351562 1872.277344 L 1505.351562 1815.433594 C 1505.351562 1811.867188 1508.207031 1809.011719 1511.75 1809.011719 L 1876.90625 1809.011719 C 1880.449219 1809.011719 1883.304688 1811.867188 1883.304688 1815.433594 L 1883.304688 1872.277344 " fill-opacity="1" fill-rule="nonzero"/><path fill="#ed4447" d="M 912.679688 2016.460938 C 912.679688 2020.105469 909.726562 2023.007812 906.128906 2023.007812 L 533.050781 2023.007812 C 529.429688 2023.007812 526.5 2020.105469 526.5 2016.460938 L 526.5 1999.625 C 526.5 1996.003906 529.429688 1993.050781 533.050781 1993.050781 L 906.128906 1993.050781 C 909.726562 1993.050781 912.679688 1996.003906 912.679688 1999.625 L 912.679688 2016.460938 " fill-opacity="1" fill-rule="nonzero"/><path fill="#f14b2c" d="M 869.917969 1834.710938 C 869.917969 1837.492188 867.605469 1839.804688 864.796875 1839.804688 L 574.359375 1839.804688 C 571.550781 1839.804688 569.261719 1837.492188 569.261719 1834.710938 L 569.261719 1821.589844 C 569.261719 1818.757812 571.550781 1816.492188 574.359375 1816.492188 L 864.796875 1816.492188 C 867.605469 1816.492188 869.917969 1818.757812 869.917969 1821.589844 L 869.917969 1834.710938 " fill-opacity="1" fill-rule="nonzero"/><path fill="#5662b7" d="M 869.917969 1811.375 C 869.917969 1814.203125 867.605469 1816.492188 864.796875 1816.492188 L 574.359375 1816.492188 C 571.550781 1816.492188 569.261719 1814.203125 569.261719 1811.375 L 569.261719 1798.253906 C 569.261719 1795.445312 571.550781 1793.179688 574.359375 1793.179688 L 864.796875 1793.179688 C 867.605469 1793.179688 869.917969 1795.445312 869.917969 1798.253906 L 869.917969 1811.375 " fill-opacity="1" fill-rule="nonzero"/><path fill="#df9630" d="M 869.917969 1788.035156 C 869.917969 1790.867188 867.605469 1793.179688 864.796875 1793.179688 L 574.359375 1793.179688 C 571.550781 1793.179688 569.261719 1790.867188 569.261719 1788.035156 L 569.261719 1774.9375 C 569.261719 1772.132812 571.550781 1769.84375 574.359375 1769.84375 L 864.796875 1769.84375 C 867.605469 1769.84375 869.917969 1772.132812 869.917969 1774.9375 L 869.917969 1788.035156 " fill-opacity="1" fill-rule="nonzero"/><path fill="#60cced" d="M 869.917969 1764.746094 C 869.917969 1767.578125 867.605469 1769.84375 864.796875 1769.84375 L 574.359375 1769.84375 C 571.550781 1769.84375 569.261719 1767.578125 569.261719 1764.746094 L 569.261719 1751.625 C 569.261719 1748.820312 571.550781 1746.507812 574.359375 1746.507812 L 864.796875 1746.507812 C 867.605469 1746.507812 869.917969 1748.820312 869.917969 1751.625 L 869.917969 1764.746094 " fill-opacity="1" fill-rule="nonzero"/><path fill="#f14b2c" d="M 894.953125 1920.75 C 894.953125 1924.023438 892.320312 1926.707031 889.019531 1926.707031 L 550.160156 1926.707031 C 546.859375 1926.707031 544.226562 1924.023438 544.226562 1920.75 L 544.226562 1905.4375 C 544.226562 1902.136719 546.859375 1899.503906 550.160156 1899.503906 L 889.019531 1899.503906 C 892.320312 1899.503906 894.953125 1902.136719 894.953125 1905.4375 L 894.953125 1920.75 " fill-opacity="1" fill-rule="nonzero"/><path fill="#76cb58" d="M 899.484375 1986.996094 C 899.484375 1990.34375 896.777344 1993.050781 893.378906 1993.050781 L 545.777344 1993.050781 C 542.402344 1993.050781 539.671875 1990.34375 539.671875 1986.996094 L 539.671875 1932.785156 C 539.671875 1929.4375 542.402344 1926.707031 545.777344 1926.707031 L 893.378906 1926.707031 C 896.777344 1926.707031 899.484375 1929.4375 899.484375 1932.785156 L 899.484375 1986.996094 " fill-opacity="1" fill-rule="nonzero"/><path fill="#911822" d="M 881.390625 1893.988281 C 881.390625 1897.042969 878.929688 1899.503906 875.925781 1899.503906 L 563.253906 1899.503906 C 560.226562 1899.503906 557.789062 1897.042969 557.789062 1893.988281 L 557.789062 1845.296875 C 557.789062 1842.269531 560.226562 1839.804688 563.253906 1839.804688 L 875.925781 1839.804688 C 878.929688 1839.804688 881.390625 1842.269531 881.390625 1845.296875 L 881.390625 1893.988281 " fill-opacity="1" fill-rule="nonzero"/></svg>